{"glyphs":{"0":{"ha":722,"x_min":44,"x_max":678,"o":"m 360 -17 q 199 17 261 -17 q 104 116 138 51 q 58 272 71 181 q 44 478 44 363 q 58 684 44 593 q 106 840 71 775 q 203 938 140 904 q 364 972 267 972 q 524 938 463 972 q 619 840 586 904 q 665 684 653 775 q 678 478 678 593 q 665 272 678 363 q 617 116 651 181 q 520 17 582 51 q 360 -17 458 -17 m 361 169 q 407 188 390 169 q 431 253 424 207 q 438 376 438 299 l 438 581 q 431 704 438 660 q 407 767 424 749 q 361 786 390 786 q 317 767 333 786 q 293 704 300 749 q 286 581 286 660 l 286 376 q 293 253 286 299 q 317 188 300 207 q 361 169 333 169 z "},"1":{"ha":656,"x_min":69,"x_max":631,"o":"m 69 0 l 69 196 l 229 196 l 229 647 l 69 647 l 69 807 q 178 833 119 811 q 292 889 236 856 q 389 957 347 922 l 474 957 l 474 196 l 631 196 l 631 0 l 69 0 z "},"2":{"ha":707,"x_min":46,"x_max":664,"o":"m 46 0 l 46 67 q 64 177 46 126 q 113 274 82 228 q 181 360 143 319 q 256 440 218 401 q 335 525 300 486 q 392 604 371 564 q 414 693 414 644 q 408 740 414 719 q 388 772 401 760 q 347 783 374 783 q 306 771 322 783 q 282 732 290 758 q 274 668 274 706 l 274 618 l 51 618 q 49 642 50 628 q 49 665 49 656 q 84 828 49 760 q 190 934 119 896 q 367 972 260 972 q 487 954 433 972 q 578 901 540 936 q 635 816 615 867 q 656 701 656 765 q 640 588 656 639 q 597 492 625 536 q 528 406 568 449 q 439 317 488 364 q 394 275 414 294 q 362 238 375 256 q 339 204 349 221 l 664 204 l 664 0 l 46 0 z "},"3":{"ha":719,"x_min":36,"x_max":676,"o":"m 351 -17 q 172 19 242 -17 q 69 116 103 54 q 36 257 36 178 l 36 286 l 265 286 l 265 263 q 284 197 265 224 q 347 171 303 171 q 413 202 396 171 q 431 294 431 233 q 423 351 431 329 q 400 384 415 372 q 363 396 385 396 l 285 396 l 285 572 l 350 572 q 385 585 372 572 q 405 623 399 597 q 411 688 411 649 q 405 739 411 717 q 385 774 399 761 q 346 786 371 786 q 308 774 324 786 q 284 744 292 763 q 276 701 276 725 l 276 686 l 60 686 l 60 714 q 94 847 60 788 q 197 939 129 906 q 364 972 264 972 q 525 939 460 972 q 623 848 590 906 q 656 715 656 790 q 639 616 656 658 q 597 546 622 574 q 543 503 572 518 l 543 496 q 640 415 603 471 q 676 269 676 360 q 642 123 676 188 q 535 21 607 58 q 351 -17 464 -17 z "},"4":{"ha":714,"x_min":19,"x_max":694,"o":"m 365 0 l 365 192 l 19 192 l 19 388 q 90 545 56 454 q 152 745 124 636 q 196 972 181 854 l 442 972 q 418 866 436 926 q 374 738 400 806 q 316 606 347 671 q 253 483 285 540 q 190 385 221 425 l 365 385 l 365 507 q 399 576 381 535 q 439 668 418 618 q 476 769 460 718 q 503 863 493 821 l 604 863 l 604 385 l 694 385 l 694 192 l 604 192 l 604 0 l 365 0 z "},"5":{"ha":717,"x_min":38,"x_max":676,"o":"m 365 -17 q 187 19 260 -17 q 76 126 114 56 q 38 301 38 196 l 267 301 q 274 236 267 265 q 301 189 282 207 q 351 171 319 171 q 400 190 382 171 q 426 242 418 210 q 435 317 435 275 q 427 390 435 358 q 402 441 419 422 q 354 460 385 460 q 311 447 326 460 q 288 419 296 435 q 275 392 279 403 l 74 421 l 106 956 l 621 956 l 621 750 l 296 750 l 286 590 q 313 608 294 597 q 360 628 332 619 q 426 638 389 638 q 563 603 507 638 q 647 496 618 568 q 676 313 676 424 q 638 141 676 215 q 531 25 600 67 q 365 -17 463 -17 z "},"6":{"ha":724,"x_min":44,"x_max":685,"o":"m 368 -17 q 225 8 286 -17 q 124 88 164 33 q 65 233 85 143 q 44 454 44 324 q 65 700 44 600 q 126 860 86 800 q 228 946 167 919 q 371 972 289 972 q 524 939 458 972 q 625 835 589 906 q 661 650 661 764 l 442 650 q 433 730 442 700 q 408 773 425 760 q 367 786 392 786 q 317 764 335 786 q 292 688 299 742 q 286 539 286 633 q 329 578 304 563 q 383 601 354 593 q 440 610 413 610 q 567 578 513 610 q 653 483 622 547 q 685 321 685 419 q 646 128 685 203 q 536 18 607 53 q 368 -17 465 -17 m 368 169 q 415 183 397 169 q 442 227 433 197 q 450 306 450 257 q 442 378 450 350 q 416 419 433 406 q 369 433 399 433 q 322 420 340 433 q 294 379 303 407 q 286 308 286 351 q 294 228 286 258 q 320 183 301 197 q 368 169 339 169 z "},"7":{"ha":679,"x_min":26,"x_max":654,"o":"m 135 0 q 153 210 135 108 q 204 406 171 311 q 281 588 238 501 q 375 750 325 674 l 26 750 l 26 956 l 654 956 l 654 829 q 574 695 614 764 q 501 553 535 626 q 443 404 468 481 q 404 247 418 328 q 390 82 390 167 l 390 0 l 135 0 z "},"8":{"ha":711,"x_min":35,"x_max":678,"o":"m 356 -17 q 183 15 256 -17 q 73 108 111 46 q 35 264 35 171 q 69 403 35 350 q 158 485 104 456 q 77 581 101 528 q 53 693 53 633 q 92 849 53 788 q 201 942 132 911 q 356 972 269 972 q 510 942 442 972 q 619 849 579 911 q 658 693 658 788 q 634 580 658 632 q 553 485 610 528 q 642 403 607 456 q 678 264 678 350 q 638 108 678 171 q 526 15 599 46 q 356 -17 454 -17 m 356 167 q 415 199 397 167 q 432 286 432 231 q 414 372 432 343 q 356 401 396 401 q 297 372 315 401 q 279 286 279 343 q 297 199 279 231 q 356 167 314 167 m 356 572 q 413 599 394 572 q 431 681 431 625 q 413 763 431 738 q 356 789 396 789 q 298 763 315 789 q 281 681 281 738 q 299 599 281 625 q 356 572 317 572 z "},"9":{"ha":724,"x_min":38,"x_max":678,"o":"m 353 -17 q 199 17 265 -17 q 97 121 133 50 q 61 306 61 192 l 281 306 q 290 226 281 257 q 315 183 299 196 q 356 169 331 169 q 406 192 389 169 q 430 269 424 215 q 436 417 436 322 q 394 378 419 394 q 340 354 368 363 q 283 346 311 346 q 156 377 211 346 q 69 473 100 408 q 38 635 38 538 q 77 828 38 754 q 188 938 117 903 q 356 972 258 972 q 497 947 436 972 q 598 867 558 922 q 658 722 638 813 q 678 501 678 632 q 658 256 678 356 q 597 96 638 156 q 494 10 556 36 q 353 -17 433 -17 m 353 522 q 401 535 383 522 q 428 576 419 549 q 436 647 436 604 q 428 728 436 697 q 403 772 421 758 q 354 786 385 786 q 307 772 325 786 q 281 728 289 758 q 272 650 272 699 q 281 577 272 606 q 306 535 289 549 q 353 522 324 522 z "},"A":{"ha":854,"x_min":4,"x_max":850,"o":"m 4 0 l 249 956 l 606 956 l 850 0 l 563 0 l 536 139 l 310 139 l 283 0 l 4 0 m 350 350 l 496 350 l 461 543 q 455 579 458 557 q 447 627 451 601 q 438 678 442 653 q 429 725 433 704 l 417 725 q 408 666 414 699 q 397 601 403 633 q 386 543 392 569 l 350 350 z "},"Á":{"ha":854,"x_min":4,"x_max":850,"o":"m 4 0 l 249 956 l 606 956 l 850 0 l 563 0 l 536 139 l 310 139 l 283 0 l 4 0 m 350 350 l 496 350 l 461 543 q 455 579 458 557 q 447 627 451 601 q 438 678 442 653 q 429 725 433 704 l 417 725 q 408 666 414 699 q 397 601 403 633 q 386 543 392 569 l 350 350 m 336 1044 l 432 1229 l 663 1229 l 665 1224 l 496 1044 l 336 1044 z "},"Ă":{"ha":854,"x_min":4,"x_max":850,"o":"m 4 0 l 249 956 l 606 956 l 850 0 l 563 0 l 536 139 l 310 139 l 283 0 l 4 0 m 350 350 l 496 350 l 461 543 q 455 579 458 557 q 447 627 451 601 q 438 678 442 653 q 429 725 433 704 l 417 725 q 408 666 414 699 q 397 601 403 633 q 386 543 392 569 l 350 350 m 424 1029 q 313 1060 356 1029 q 251 1137 271 1090 q 232 1229 232 1183 l 336 1229 q 351 1194 339 1211 q 383 1167 364 1178 q 426 1157 403 1157 q 474 1169 454 1157 q 505 1198 493 1181 q 518 1229 517 1215 l 622 1229 q 601 1137 622 1183 q 537 1060 581 1090 q 424 1029 493 1029 z "},"Ắ":{"ha":854,"x_min":4,"x_max":850,"o":"m 4 0 l 249 956 l 606 956 l 850 0 l 563 0 l 536 139 l 310 139 l 283 0 l 4 0 m 350 350 l 496 350 l 461 543 q 455 579 458 557 q 447 627 451 601 q 438 678 442 653 q 429 725 433 704 l 417 725 q 408 666 414 699 q 397 601 403 633 q 386 543 392 569 l 350 350 m 424 1029 q 313 1060 356 1029 q 251 1137 271 1090 q 232 1229 232 1183 l 336 1229 q 351 1194 339 1211 q 383 1167 364 1178 q 426 1157 403 1157 q 474 1169 454 1157 q 505 1198 493 1181 q 518 1229 517 1215 l 622 1229 q 601 1137 622 1183 q 537 1060 581 1090 q 424 1029 493 1029 m 336 1269 l 432 1454 l 663 1454 l 665 1449 l 496 1269 l 336 1269 z "},"Ặ":{"ha":854,"x_min":4,"x_max":850,"o":"m 4 0 l 249 956 l 606 956 l 850 0 l 563 0 l 536 139 l 310 139 l 283 0 l 4 0 m 350 350 l 496 350 l 461 543 q 455 579 458 557 q 447 627 451 601 q 438 678 442 653 q 429 725 433 704 l 417 725 q 408 666 414 699 q 397 601 403 633 q 386 543 392 569 l 350 350 m 346 -260 l 346 -83 l 507 -83 l 507 -260 l 346 -260 m 424 1029 q 313 1060 356 1029 q 251 1137 271 1090 q 232 1229 232 1183 l 336 1229 q 351 1194 339 1211 q 383 1167 364 1178 q 426 1157 403 1157 q 474 1169 454 1157 q 505 1198 493 1181 q 518 1229 517 1215 l 622 1229 q 601 1137 622 1183 q 537 1060 581 1090 q 424 1029 493 1029 z "},"Ằ":{"ha":854,"x_min":4,"x_max":850,"o":"m 4 0 l 249 956 l 606 956 l 850 0 l 563 0 l 536 139 l 310 139 l 283 0 l 4 0 m 350 350 l 496 350 l 461 543 q 455 579 458 557 q 447 627 451 601 q 438 678 442 653 q 429 725 433 704 l 417 725 q 408 666 414 699 q 397 601 403 633 q 386 543 392 569 l 350 350 m 424 1029 q 313 1060 356 1029 q 251 1137 271 1090 q 232 1229 232 1183 l 336 1229 q 351 1194 339 1211 q 383 1167 364 1178 q 426 1157 403 1157 q 474 1169 454 1157 q 505 1198 493 1181 q 518 1229 517 1215 l 622 1229 q 601 1137 622 1183 q 537 1060 581 1090 q 424 1029 493 1029 m 554 1269 l 394 1269 l 225 1449 l 226 1454 l 457 1454 l 554 1269 z "},"Ẳ":{"ha":854,"x_min":4,"x_max":850,"o":"m 4 0 l 249 956 l 606 956 l 850 0 l 563 0 l 536 139 l 310 139 l 283 0 l 4 0 m 350 350 l 496 350 l 461 543 q 455 579 458 557 q 447 627 451 601 q 438 678 442 653 q 429 725 433 704 l 417 725 q 408 666 414 699 q 397 601 403 633 q 386 543 392 569 l 350 350 m 424 1029 q 313 1060 356 1029 q 251 1137 271 1090 q 232 1229 232 1183 l 336 1229 q 351 1194 339 1211 q 383 1167 364 1178 q 426 1157 403 1157 q 474 1169 454 1157 q 505 1198 493 1181 q 518 1229 517 1215 l 622 1229 q 601 1137 622 1183 q 537 1060 581 1090 q 424 1029 493 1029 m 388 1264 l 388 1346 l 411 1346 q 439 1351 431 1346 q 447 1371 447 1357 q 435 1390 447 1386 q 406 1393 424 1393 l 332 1393 l 332 1460 q 365 1465 347 1463 q 399 1468 382 1467 q 431 1469 417 1469 q 480 1465 456 1469 q 523 1451 504 1460 q 553 1426 542 1442 q 565 1386 565 1410 q 551 1340 565 1358 q 515 1311 538 1321 q 465 1299 492 1301 l 465 1264 l 388 1264 z "},"Ẵ":{"ha":854,"x_min":4,"x_max":850,"o":"m 4 0 l 249 956 l 606 956 l 850 0 l 563 0 l 536 139 l 310 139 l 283 0 l 4 0 m 350 350 l 496 350 l 461 543 q 455 579 458 557 q 447 627 451 601 q 438 678 442 653 q 429 725 433 704 l 417 725 q 408 666 414 699 q 397 601 403 633 q 386 543 392 569 l 350 350 m 424 1029 q 313 1060 356 1029 q 251 1137 271 1090 q 232 1229 232 1183 l 336 1229 q 351 1194 339 1211 q 383 1167 364 1178 q 426 1157 403 1157 q 474 1169 454 1157 q 505 1198 493 1181 q 518 1229 517 1215 l 622 1229 q 601 1137 622 1183 q 537 1060 581 1090 q 424 1029 493 1029 m 182 1263 q 201 1361 182 1318 q 254 1429 221 1404 q 332 1454 288 1454 q 398 1441 367 1454 q 459 1415 429 1428 q 518 1403 489 1403 q 553 1417 539 1403 q 572 1454 567 1432 l 671 1454 q 652 1356 671 1399 q 600 1288 633 1313 q 522 1263 567 1263 q 457 1276 488 1263 q 397 1302 426 1289 q 336 1315 367 1315 q 301 1301 315 1315 q 282 1263 286 1286 l 182 1263 z "},"Ǎ":{"ha":854,"x_min":4,"x_max":850,"o":"m 4 0 l 249 956 l 606 956 l 850 0 l 563 0 l 536 139 l 310 139 l 283 0 l 4 0 m 350 350 l 496 350 l 461 543 q 455 579 458 557 q 447 627 451 601 q 438 678 442 653 q 429 725 433 704 l 417 725 q 408 666 414 699 q 397 601 403 633 q 386 543 392 569 l 350 350 m 183 1229 l 349 1229 l 457 1104 l 397 1104 l 506 1229 l 669 1229 l 525 1044 l 329 1044 l 183 1229 z "},"Â":{"ha":854,"x_min":4,"x_max":850,"o":"m 4 0 l 249 956 l 606 956 l 850 0 l 563 0 l 536 139 l 310 139 l 283 0 l 4 0 m 350 350 l 496 350 l 461 543 q 455 579 458 557 q 447 627 451 601 q 438 678 442 653 q 429 725 433 704 l 417 725 q 408 666 414 699 q 397 601 403 633 q 386 543 392 569 l 350 350 m 183 1044 l 329 1229 l 525 1229 l 669 1044 l 506 1044 l 397 1169 l 457 1169 l 349 1044 l 183 1044 z "},"Ấ":{"ha":854,"x_min":4,"x_max":850,"o":"m 4 0 l 249 956 l 606 956 l 850 0 l 563 0 l 536 139 l 310 139 l 283 0 l 4 0 m 350 350 l 496 350 l 461 543 q 455 579 458 557 q 447 627 451 601 q 438 678 442 653 q 429 725 433 704 l 417 725 q 408 666 414 699 q 397 601 403 633 q 386 543 392 569 l 350 350 m 183 1044 l 329 1229 l 525 1229 l 669 1044 l 506 1044 l 397 1169 l 457 1169 l 349 1044 l 183 1044 m 336 1269 l 432 1454 l 663 1454 l 665 1449 l 496 1269 l 336 1269 z "},"Ậ":{"ha":854,"x_min":4,"x_max":850,"o":"m 4 0 l 249 956 l 606 956 l 850 0 l 563 0 l 536 139 l 310 139 l 283 0 l 4 0 m 350 350 l 496 350 l 461 543 q 455 579 458 557 q 447 627 451 601 q 438 678 442 653 q 429 725 433 704 l 417 725 q 408 666 414 699 q 397 601 403 633 q 386 543 392 569 l 350 350 m 346 -260 l 346 -83 l 507 -83 l 507 -260 l 346 -260 m 183 1044 l 329 1229 l 525 1229 l 669 1044 l 506 1044 l 397 1169 l 457 1169 l 349 1044 l 183 1044 z "},"Ầ":{"ha":854,"x_min":4,"x_max":850,"o":"m 4 0 l 249 956 l 606 956 l 850 0 l 563 0 l 536 139 l 310 139 l 283 0 l 4 0 m 350 350 l 496 350 l 461 543 q 455 579 458 557 q 447 627 451 601 q 438 678 442 653 q 429 725 433 704 l 417 725 q 408 666 414 699 q 397 601 403 633 q 386 543 392 569 l 350 350 m 183 1044 l 329 1229 l 525 1229 l 669 1044 l 506 1044 l 397 1169 l 457 1169 l 349 1044 l 183 1044 m 554 1269 l 394 1269 l 225 1449 l 226 1454 l 457 1454 l 554 1269 z "},"Ẩ":{"ha":854,"x_min":4,"x_max":850,"o":"m 4 0 l 249 956 l 606 956 l 850 0 l 563 0 l 536 139 l 310 139 l 283 0 l 4 0 m 350 350 l 496 350 l 461 543 q 455 579 458 557 q 447 627 451 601 q 438 678 442 653 q 429 725 433 704 l 417 725 q 408 666 414 699 q 397 601 403 633 q 386 543 392 569 l 350 350 m 183 1044 l 329 1229 l 525 1229 l 669 1044 l 506 1044 l 397 1169 l 457 1169 l 349 1044 l 183 1044 m 388 1264 l 388 1346 l 411 1346 q 439 1351 431 1346 q 447 1371 447 1357 q 435 1390 447 1386 q 406 1393 424 1393 l 332 1393 l 332 1460 q 365 1465 347 1463 q 399 1468 382 1467 q 431 1469 417 1469 q 480 1465 456 1469 q 523 1451 504 1460 q 553 1426 542 1442 q 565 1386 565 1410 q 551 1340 565 1358 q 515 1311 538 1321 q 465 1299 492 1301 l 465 1264 l 388 1264 z "},"Ẫ":{"ha":854,"x_min":4,"x_max":850,"o":"m 4 0 l 249 956 l 606 956 l 850 0 l 563 0 l 536 139 l 310 139 l 283 0 l 4 0 m 350 350 l 496 350 l 461 543 q 455 579 458 557 q 447 627 451 601 q 438 678 442 653 q 429 725 433 704 l 417 725 q 408 666 414 699 q 397 601 403 633 q 386 543 392 569 l 350 350 m 183 1044 l 329 1229 l 525 1229 l 669 1044 l 506 1044 l 397 1169 l 457 1169 l 349 1044 l 183 1044 m 182 1263 q 201 1361 182 1318 q 254 1429 221 1404 q 332 1454 288 1454 q 398 1441 367 1454 q 459 1415 429 1428 q 518 1403 489 1403 q 553 1417 539 1403 q 572 1454 567 1432 l 671 1454 q 652 1356 671 1399 q 600 1288 633 1313 q 522 1263 567 1263 q 457 1276 488 1263 q 397 1302 426 1289 q 336 1315 367 1315 q 301 1301 315 1315 q 282 1263 286 1286 l 182 1263 z "},"Ȁ":{"ha":854,"x_min":4,"x_max":850,"o":"m 4 0 l 249 956 l 606 956 l 850 0 l 563 0 l 536 139 l 310 139 l 283 0 l 4 0 m 350 350 l 496 350 l 461 543 q 455 579 458 557 q 447 627 451 601 q 438 678 442 653 q 429 725 433 704 l 417 725 q 408 666 414 699 q 397 601 403 633 q 386 543 392 569 l 350 350 m 513 1044 l 364 1224 l 365 1229 l 569 1229 l 650 1044 l 513 1044 m 260 1044 l 113 1224 l 114 1229 l 317 1229 l 397 1044 l 260 1044 z "},"Ä":{"ha":854,"x_min":4,"x_max":850,"o":"m 4 0 l 249 956 l 606 956 l 850 0 l 563 0 l 536 139 l 310 139 l 283 0 l 4 0 m 350 350 l 496 350 l 461 543 q 455 579 458 557 q 447 627 451 601 q 438 678 442 653 q 429 725 433 704 l 417 725 q 408 666 414 699 q 397 601 403 633 q 386 543 392 569 l 350 350 m 229 1036 l 229 1229 l 390 1229 l 390 1036 l 229 1036 m 464 1036 l 464 1229 l 624 1229 l 624 1036 l 464 1036 z "},"Ạ":{"ha":854,"x_min":4,"x_max":850,"o":"m 4 0 l 249 956 l 606 956 l 850 0 l 563 0 l 536 139 l 310 139 l 283 0 l 4 0 m 350 350 l 496 350 l 461 543 q 455 579 458 557 q 447 627 451 601 q 438 678 442 653 q 429 725 433 704 l 417 725 q 408 666 414 699 q 397 601 403 633 q 386 543 392 569 l 350 350 m 346 -260 l 346 -83 l 507 -83 l 507 -260 l 346 -260 z "},"À":{"ha":854,"x_min":4,"x_max":850,"o":"m 4 0 l 249 956 l 606 956 l 850 0 l 563 0 l 536 139 l 310 139 l 283 0 l 4 0 m 350 350 l 496 350 l 461 543 q 455 579 458 557 q 447 627 451 601 q 438 678 442 653 q 429 725 433 704 l 417 725 q 408 666 414 699 q 397 601 403 633 q 386 543 392 569 l 350 350 m 554 1044 l 394 1044 l 225 1224 l 226 1229 l 457 1229 l 554 1044 z "},"Ả":{"ha":854,"x_min":4,"x_max":850,"o":"m 4 0 l 249 956 l 606 956 l 850 0 l 563 0 l 536 139 l 310 139 l 283 0 l 4 0 m 350 350 l 496 350 l 461 543 q 455 579 458 557 q 447 627 451 601 q 438 678 442 653 q 429 725 433 704 l 417 725 q 408 666 414 699 q 397 601 403 633 q 386 543 392 569 l 350 350 m 388 1039 l 388 1121 l 411 1121 q 439 1126 431 1121 q 447 1146 447 1132 q 435 1165 447 1161 q 406 1168 424 1168 l 332 1168 l 332 1235 q 365 1240 347 1238 q 399 1243 382 1242 q 431 1244 417 1244 q 480 1240 456 1244 q 523 1226 504 1235 q 553 1201 542 1217 q 565 1161 565 1185 q 551 1115 565 1133 q 515 1086 538 1096 q 465 1074 492 1076 l 465 1039 l 388 1039 z "},"Ȃ":{"ha":854,"x_min":4,"x_max":850,"o":"m 4 0 l 249 956 l 606 956 l 850 0 l 563 0 l 536 139 l 310 139 l 283 0 l 4 0 m 350 350 l 496 350 l 461 543 q 455 579 458 557 q 447 627 451 601 q 438 678 442 653 q 429 725 433 704 l 417 725 q 408 666 414 699 q 397 601 403 633 q 386 543 392 569 l 350 350 m 233 1028 q 254 1121 233 1075 q 319 1197 275 1167 q 431 1228 363 1228 q 542 1197 499 1228 q 606 1121 585 1167 q 626 1028 626 1075 l 513 1028 q 502 1069 511 1050 q 475 1102 493 1089 q 431 1115 457 1115 q 386 1102 404 1115 q 358 1069 368 1089 q 349 1028 349 1050 l 233 1028 z "},"Ā":{"ha":854,"x_min":4,"x_max":850,"o":"m 4 0 l 249 956 l 606 956 l 850 0 l 563 0 l 536 139 l 310 139 l 283 0 l 4 0 m 350 350 l 496 350 l 461 543 q 455 579 458 557 q 447 627 451 601 q 438 678 442 653 q 429 725 433 704 l 417 725 q 408 666 414 699 q 397 601 403 633 q 386 543 392 569 l 350 350 m 258 1036 l 258 1175 l 594 1175 l 594 1036 l 258 1036 z "},"Ą":{"ha":854,"x_min":4,"x_max":850,"o":"m 4 0 l 249 956 l 606 956 l 850 0 l 563 0 l 536 139 l 310 139 l 283 0 l 4 0 m 350 350 l 496 350 l 461 543 q 455 579 458 557 q 447 627 451 601 q 438 678 442 653 q 429 725 433 704 l 417 725 q 408 666 414 699 q 397 601 403 633 q 386 543 392 569 l 350 350 m 658 -293 q 585 -276 619 -292 q 531 -226 551 -260 q 510 -135 510 -192 q 530 -48 510 -83 q 572 17 550 -12 l 694 17 l 694 11 q 658 -33 669 -6 q 646 -86 646 -60 q 663 -144 646 -122 q 711 -167 679 -167 l 765 -167 l 765 -272 q 713 -288 742 -283 q 658 -293 683 -293 z "},"Å":{"ha":854,"x_min":4,"x_max":850,"o":"m 4 0 l 249 956 l 606 956 l 850 0 l 563 0 l 536 139 l 310 139 l 283 0 l 4 0 m 350 350 l 496 350 l 461 543 q 455 579 458 557 q 447 627 451 601 q 438 678 442 653 q 429 725 433 704 l 417 725 q 408 666 414 699 q 397 601 403 633 q 386 543 392 569 l 350 350 m 426 1010 q 310 1052 357 1010 q 264 1160 264 1094 q 310 1268 264 1225 q 426 1311 357 1311 q 544 1268 497 1311 q 590 1160 590 1225 q 544 1052 590 1094 q 426 1010 497 1010 m 426 1107 q 466 1122 450 1107 q 482 1160 482 1138 q 466 1198 482 1183 q 426 1213 450 1213 q 387 1198 403 1213 q 371 1160 371 1183 q 387 1122 371 1138 q 426 1107 403 1107 z "},"Ǻ":{"ha":854,"x_min":4,"x_max":850,"o":"m 4 0 l 249 956 l 606 956 l 850 0 l 563 0 l 536 139 l 310 139 l 283 0 l 4 0 m 350 350 l 496 350 l 461 543 q 455 579 458 557 q 447 627 451 601 q 438 678 442 653 q 429 725 433 704 l 417 725 q 408 666 414 699 q 397 601 403 633 q 386 543 392 569 l 350 350 m 426 1010 q 310 1052 357 1010 q 264 1160 264 1094 q 310 1268 264 1225 q 426 1311 357 1311 q 544 1268 497 1311 q 590 1160 590 1225 q 544 1052 590 1094 q 426 1010 497 1010 m 426 1107 q 466 1122 450 1107 q 482 1160 482 1138 q 466 1198 482 1183 q 426 1213 450 1213 q 387 1198 403 1213 q 371 1160 371 1183 q 387 1122 371 1138 q 426 1107 403 1107 m 336 1353 l 432 1538 l 663 1538 l 665 1532 l 496 1353 l 336 1353 z "},"Ã":{"ha":854,"x_min":4,"x_max":850,"o":"m 4 0 l 249 956 l 606 956 l 850 0 l 563 0 l 536 139 l 310 139 l 283 0 l 4 0 m 350 350 l 496 350 l 461 543 q 455 579 458 557 q 447 627 451 601 q 438 678 442 653 q 429 725 433 704 l 417 725 q 408 666 414 699 q 397 601 403 633 q 386 543 392 569 l 350 350 m 182 1038 q 201 1137 182 1093 q 254 1205 221 1181 q 332 1229 288 1229 q 398 1216 367 1229 q 459 1190 429 1203 q 518 1178 489 1178 q 553 1192 539 1178 q 572 1229 567 1207 l 671 1229 q 652 1131 671 1174 q 600 1063 633 1088 q 522 1038 567 1038 q 457 1051 488 1038 q 397 1077 426 1064 q 336 1090 367 1090 q 301 1076 315 1090 q 282 1038 286 1061 l 182 1038 z "},"Æ":{"ha":1161,"x_min":-4,"x_max":1121,"o":"m -4 0 l 258 956 l 1113 956 l 1113 733 l 686 733 l 713 594 l 1053 594 l 1053 375 l 754 375 l 782 222 l 1121 222 l 1121 0 l 549 0 l 525 139 l 303 139 l 275 0 l -4 0 m 349 350 l 490 350 l 450 590 q 447 616 449 600 q 442 651 444 632 q 437 690 439 671 q 432 725 435 708 l 422 725 q 418 693 421 711 q 413 657 415 675 q 408 622 410 639 q 403 590 406 604 l 349 350 z "},"Ǽ":{"ha":1161,"x_min":-4,"x_max":1121,"o":"m -4 0 l 258 956 l 1113 956 l 1113 733 l 686 733 l 713 594 l 1053 594 l 1053 375 l 754 375 l 782 222 l 1121 222 l 1121 0 l 549 0 l 525 139 l 303 139 l 275 0 l -4 0 m 349 350 l 490 350 l 450 590 q 447 616 449 600 q 442 651 444 632 q 437 690 439 671 q 432 725 435 708 l 422 725 q 418 693 421 711 q 413 657 415 675 q 408 622 410 639 q 403 590 406 604 l 349 350 m 446 1044 l 542 1229 l 772 1229 l 775 1224 l 606 1044 l 446 1044 z "},"B":{"ha":825,"x_min":72,"x_max":797,"o":"m 72 0 l 72 956 l 524 956 q 656 928 599 956 q 746 849 713 900 q 779 724 779 797 q 760 617 779 661 q 707 544 740 572 q 633 499 674 515 l 633 493 q 715 453 678 479 q 774 383 751 428 q 797 267 797 338 q 760 126 797 186 q 660 33 724 65 q 517 0 597 0 l 72 0 m 340 222 l 464 222 q 507 244 490 222 q 524 311 524 267 q 516 349 524 332 q 494 376 508 367 q 464 386 481 386 l 340 386 l 340 222 m 340 583 l 451 583 q 483 594 469 583 q 503 624 496 604 q 511 672 511 643 q 494 724 511 703 q 451 746 476 746 l 340 746 l 340 583 z "},"C":{"ha":839,"x_min":49,"x_max":794,"o":"m 439 -17 q 220 37 307 -17 q 91 201 133 90 q 49 479 49 311 q 149 851 49 729 q 443 974 249 974 q 633 931 554 974 q 753 799 711 889 q 794 563 794 708 l 533 563 q 524 665 533 622 q 494 728 515 707 q 433 750 472 750 q 368 728 392 750 q 335 663 344 706 q 326 558 326 621 l 326 397 q 336 292 326 335 q 369 227 346 249 q 433 206 392 206 q 497 226 474 206 q 530 288 519 247 q 540 388 540 329 l 794 388 q 753 158 794 247 q 633 26 713 68 q 439 -17 554 -17 z "},"Ć":{"ha":839,"x_min":49,"x_max":794,"o":"m 439 -17 q 220 37 307 -17 q 91 201 133 90 q 49 479 49 311 q 149 851 49 729 q 443 974 249 974 q 633 931 554 974 q 753 799 711 889 q 794 563 794 708 l 533 563 q 524 665 533 622 q 494 728 515 707 q 433 750 472 750 q 368 728 392 750 q 335 663 344 706 q 326 558 326 621 l 326 397 q 336 292 326 335 q 369 227 346 249 q 433 206 392 206 q 497 226 474 206 q 530 288 519 247 q 540 388 540 329 l 794 388 q 753 158 794 247 q 633 26 713 68 q 439 -17 554 -17 m 333 1044 l 431 1229 l 661 1229 l 663 1224 l 493 1044 l 333 1044 z "},"Č":{"ha":839,"x_min":49,"x_max":794,"o":"m 439 -17 q 220 37 307 -17 q 91 201 133 90 q 49 479 49 311 q 149 851 49 729 q 443 974 249 974 q 633 931 554 974 q 753 799 711 889 q 794 563 794 708 l 533 563 q 524 665 533 622 q 494 728 515 707 q 433 750 472 750 q 368 728 392 750 q 335 663 344 706 q 326 558 326 621 l 326 397 q 336 292 326 335 q 369 227 346 249 q 433 206 392 206 q 497 226 474 206 q 530 288 519 247 q 540 388 540 329 l 794 388 q 753 158 794 247 q 633 26 713 68 q 439 -17 554 -17 m 182 1229 l 346 1229 l 456 1104 l 394 1104 l 504 1229 l 667 1229 l 522 1044 l 326 1044 l 182 1229 z "},"Ç":{"ha":839,"x_min":49,"x_max":794,"o":"m 439 -17 q 220 37 307 -17 q 91 201 133 90 q 49 479 49 311 q 149 851 49 729 q 443 974 249 974 q 633 931 554 974 q 753 799 711 889 q 794 563 794 708 l 533 563 q 524 665 533 622 q 494 728 515 707 q 433 750 472 750 q 368 728 392 750 q 335 663 344 706 q 326 558 326 621 l 326 397 q 336 292 326 335 q 369 227 346 249 q 433 206 392 206 q 497 226 474 206 q 530 288 519 247 q 540 388 540 329 l 794 388 q 753 158 794 247 q 633 26 713 68 q 439 -17 554 -17 m 440 -293 q 361 -287 404 -293 q 294 -271 318 -281 l 294 -192 l 401 -192 q 440 -187 425 -192 q 454 -161 454 -182 q 444 -134 454 -140 q 404 -128 433 -128 l 368 -128 l 390 54 l 506 54 l 494 -39 q 531 -53 510 -42 q 569 -90 553 -65 q 585 -160 585 -114 q 570 -226 585 -200 q 533 -267 556 -253 q 486 -287 511 -282 q 440 -293 461 -293 z "},"Ĉ":{"ha":839,"x_min":49,"x_max":794,"o":"m 439 -17 q 220 37 307 -17 q 91 201 133 90 q 49 479 49 311 q 149 851 49 729 q 443 974 249 974 q 633 931 554 974 q 753 799 711 889 q 794 563 794 708 l 533 563 q 524 665 533 622 q 494 728 515 707 q 433 750 472 750 q 368 728 392 750 q 335 663 344 706 q 326 558 326 621 l 326 397 q 336 292 326 335 q 369 227 346 249 q 433 206 392 206 q 497 226 474 206 q 530 288 519 247 q 540 388 540 329 l 794 388 q 753 158 794 247 q 633 26 713 68 q 439 -17 554 -17 m 182 1044 l 326 1229 l 522 1229 l 667 1044 l 504 1044 l 394 1169 l 456 1169 l 346 1044 l 182 1044 z "},"Ċ":{"ha":839,"x_min":49,"x_max":794,"o":"m 439 -17 q 220 37 307 -17 q 91 201 133 90 q 49 479 49 311 q 149 851 49 729 q 443 974 249 974 q 633 931 554 974 q 753 799 711 889 q 794 563 794 708 l 533 563 q 524 665 533 622 q 494 728 515 707 q 433 750 472 750 q 368 728 392 750 q 335 663 344 706 q 326 558 326 621 l 326 397 q 336 292 326 335 q 369 227 346 249 q 433 206 392 206 q 497 226 474 206 q 530 288 519 247 q 540 388 540 329 l 794 388 q 753 158 794 247 q 633 26 713 68 q 439 -17 554 -17 m 346 1036 l 346 1229 l 507 1229 l 507 1036 l 346 1036 z "},"D":{"ha":835,"x_min":72,"x_max":786,"o":"m 72 0 l 72 956 l 419 956 q 633 905 553 956 q 749 749 713 854 q 786 481 786 644 q 749 211 786 318 q 630 52 711 104 q 417 0 549 0 l 72 0 m 344 222 l 404 222 q 456 233 435 222 q 488 267 476 244 q 503 323 499 289 q 508 401 508 357 l 508 540 q 503 622 508 586 q 488 683 499 658 q 456 720 476 707 q 404 733 435 733 l 344 733 l 344 222 z "},"Ǆ":{"ha":1589,"x_min":72,"x_max":1560,"o":"m 72 0 l 72 956 l 419 956 q 633 905 553 956 q 749 749 713 854 q 786 481 786 644 q 749 211 786 318 q 630 52 711 104 q 417 0 549 0 l 72 0 m 344 222 l 404 222 q 456 233 435 222 q 488 267 476 244 q 503 323 499 289 q 508 401 508 357 l 508 540 q 503 622 508 586 q 488 683 499 658 q 456 720 476 707 q 404 733 435 733 l 344 733 l 344 222 m 838 0 l 838 99 l 1176 733 l 863 733 l 863 956 l 1551 956 l 1551 857 l 1213 222 l 1560 222 l 1560 0 l 838 0 m 958 1229 l 1124 1229 l 1232 1104 l 1172 1104 l 1281 1229 l 1444 1229 l 1300 1044 l 1104 1044 l 958 1229 z "},"Ð":{"ha":835,"x_min":0,"x_max":786,"o":"m 0 388 l 0 579 l 429 579 l 429 388 l 0 388 m 72 0 l 72 956 l 419 956 q 633 905 553 956 q 749 749 713 854 q 786 481 786 644 q 749 211 786 318 q 630 52 711 104 q 417 0 549 0 l 72 0 m 344 222 l 404 222 q 456 233 435 222 q 488 267 476 244 q 503 323 499 289 q 508 401 508 357 l 508 540 q 503 622 508 586 q 488 683 499 658 q 456 720 476 707 q 404 733 435 733 l 344 733 l 344 222 z "},"Ď":{"ha":835,"x_min":72,"x_max":786,"o":"m 72 0 l 72 956 l 419 956 q 633 905 553 956 q 749 749 713 854 q 786 481 786 644 q 749 211 786 318 q 630 52 711 104 q 417 0 549 0 l 72 0 m 344 222 l 404 222 q 456 233 435 222 q 488 267 476 244 q 503 323 499 289 q 508 401 508 357 l 508 540 q 503 622 508 586 q 488 683 499 658 q 456 720 476 707 q 404 733 435 733 l 344 733 l 344 222 m 169 1229 l 333 1229 l 443 1104 l 382 1104 l 492 1229 l 654 1229 l 510 1044 l 314 1044 l 169 1229 z "},"Đ":{"ha":835,"x_min":0,"x_max":786,"o":"m 0 388 l 0 579 l 429 579 l 429 388 l 0 388 m 72 0 l 72 956 l 419 956 q 633 905 553 956 q 749 749 713 854 q 786 481 786 644 q 749 211 786 318 q 630 52 711 104 q 417 0 549 0 l 72 0 m 344 222 l 404 222 q 456 233 435 222 q 488 267 476 244 q 503 323 499 289 q 508 401 508 357 l 508 540 q 503 622 508 586 q 488 683 499 658 q 456 720 476 707 q 404 733 435 733 l 344 733 l 344 222 z "},"ǅ":{"ha":1449,"x_min":72,"x_max":1421,"o":"m 72 0 l 72 956 l 419 956 q 633 905 553 956 q 749 749 713 854 q 786 481 786 644 q 749 211 786 318 q 630 52 711 104 q 417 0 549 0 l 72 0 m 344 222 l 404 222 q 456 233 435 222 q 488 267 476 244 q 503 323 499 289 q 508 401 508 357 l 508 540 q 503 622 508 586 q 488 683 499 658 q 456 720 476 707 q 404 733 435 733 l 344 733 l 344 222 m 863 0 l 863 90 l 1092 547 l 875 547 l 875 733 l 1411 733 l 1411 647 l 1179 186 l 1421 186 l 1421 0 l 863 0 m 906 1007 l 1064 1007 l 1172 882 l 1113 882 l 1221 1007 l 1378 1007 l 1233 822 l 1051 822 l 906 1007 z "},"E":{"ha":765,"x_min":74,"x_max":725,"o":"m 74 0 l 74 956 l 717 956 l 717 733 l 346 733 l 346 594 l 658 594 l 658 375 l 346 375 l 346 222 l 725 222 l 725 0 l 74 0 z "},"É":{"ha":765,"x_min":74,"x_max":725,"o":"m 74 0 l 74 956 l 717 956 l 717 733 l 346 733 l 346 594 l 658 594 l 658 375 l 346 375 l 346 222 l 725 222 l 725 0 l 74 0 m 308 1044 l 406 1229 l 636 1229 l 638 1224 l 468 1044 l 308 1044 z "},"Ĕ":{"ha":765,"x_min":74,"x_max":725,"o":"m 74 0 l 74 956 l 717 956 l 717 733 l 346 733 l 346 594 l 658 594 l 658 375 l 346 375 l 346 222 l 725 222 l 725 0 l 74 0 m 397 1029 q 285 1060 328 1029 q 224 1137 243 1090 q 204 1229 204 1183 l 308 1229 q 324 1194 313 1211 q 356 1167 336 1178 q 400 1157 376 1157 q 447 1169 428 1157 q 478 1198 465 1181 q 490 1229 490 1215 l 596 1229 q 574 1137 596 1183 q 509 1060 553 1090 q 397 1029 465 1029 z "},"Ě":{"ha":765,"x_min":74,"x_max":725,"o":"m 74 0 l 74 956 l 717 956 l 717 733 l 346 733 l 346 594 l 658 594 l 658 375 l 346 375 l 346 222 l 725 222 l 725 0 l 74 0 m 157 1229 l 321 1229 l 431 1104 l 369 1104 l 479 1229 l 643 1229 l 497 1044 l 301 1044 l 157 1229 z "},"Ê":{"ha":765,"x_min":74,"x_max":725,"o":"m 74 0 l 74 956 l 717 956 l 717 733 l 346 733 l 346 594 l 658 594 l 658 375 l 346 375 l 346 222 l 725 222 l 725 0 l 74 0 m 157 1044 l 301 1229 l 497 1229 l 643 1044 l 479 1044 l 369 1169 l 431 1169 l 321 1044 l 157 1044 z "},"Ế":{"ha":765,"x_min":74,"x_max":725,"o":"m 74 0 l 74 956 l 717 956 l 717 733 l 346 733 l 346 594 l 658 594 l 658 375 l 346 375 l 346 222 l 725 222 l 725 0 l 74 0 m 157 1044 l 301 1229 l 497 1229 l 643 1044 l 479 1044 l 369 1169 l 431 1169 l 321 1044 l 157 1044 m 308 1269 l 406 1454 l 636 1454 l 638 1449 l 468 1269 l 308 1269 z "},"Ệ":{"ha":765,"x_min":74,"x_max":725,"o":"m 74 0 l 74 956 l 717 956 l 717 733 l 346 733 l 346 594 l 658 594 l 658 375 l 346 375 l 346 222 l 725 222 l 725 0 l 74 0 m 321 -260 l 321 -83 l 482 -83 l 482 -260 l 321 -260 m 157 1044 l 301 1229 l 497 1229 l 643 1044 l 479 1044 l 369 1169 l 431 1169 l 321 1044 l 157 1044 z "},"Ề":{"ha":765,"x_min":74,"x_max":725,"o":"m 74 0 l 74 956 l 717 956 l 717 733 l 346 733 l 346 594 l 658 594 l 658 375 l 346 375 l 346 222 l 725 222 l 725 0 l 74 0 m 157 1044 l 301 1229 l 497 1229 l 643 1044 l 479 1044 l 369 1169 l 431 1169 l 321 1044 l 157 1044 m 526 1269 l 367 1269 l 199 1449 l 200 1454 l 431 1454 l 526 1269 z "},"Ể":{"ha":765,"x_min":74,"x_max":725,"o":"m 74 0 l 74 956 l 717 956 l 717 733 l 346 733 l 346 594 l 658 594 l 658 375 l 346 375 l 346 222 l 725 222 l 725 0 l 74 0 m 157 1044 l 301 1229 l 497 1229 l 643 1044 l 479 1044 l 369 1169 l 431 1169 l 321 1044 l 157 1044 m 360 1264 l 360 1346 l 385 1346 q 412 1351 404 1346 q 419 1371 419 1357 q 408 1390 419 1386 q 378 1393 396 1393 l 306 1393 l 306 1460 q 338 1465 321 1463 q 373 1468 356 1467 q 404 1469 390 1469 q 452 1465 428 1469 q 496 1451 476 1460 q 527 1426 515 1442 q 539 1386 539 1410 q 524 1340 539 1358 q 488 1311 510 1321 q 439 1299 465 1301 l 439 1264 l 360 1264 z "},"Ễ":{"ha":765,"x_min":74,"x_max":725,"o":"m 74 0 l 74 956 l 717 956 l 717 733 l 346 733 l 346 594 l 658 594 l 658 375 l 346 375 l 346 222 l 725 222 l 725 0 l 74 0 m 157 1044 l 301 1229 l 497 1229 l 643 1044 l 479 1044 l 369 1169 l 431 1169 l 321 1044 l 157 1044 m 156 1263 q 174 1361 156 1318 q 227 1429 193 1404 q 306 1454 261 1454 q 371 1441 339 1454 q 432 1415 403 1428 q 490 1403 461 1403 q 525 1417 511 1403 q 546 1454 539 1432 l 644 1454 q 626 1356 644 1399 q 573 1288 607 1313 q 494 1263 539 1263 q 429 1276 460 1263 q 369 1302 399 1289 q 310 1315 340 1315 q 273 1301 288 1315 q 254 1263 258 1286 l 156 1263 z "},"Ȅ":{"ha":765,"x_min":74,"x_max":725,"o":"m 74 0 l 74 956 l 717 956 l 717 733 l 346 733 l 346 594 l 658 594 l 658 375 l 346 375 l 346 222 l 725 222 l 725 0 l 74 0 m 485 1044 l 338 1224 l 339 1229 l 542 1229 l 622 1044 l 485 1044 m 232 1044 l 85 1224 l 86 1229 l 289 1229 l 371 1044 l 232 1044 z "},"Ë":{"ha":765,"x_min":74,"x_max":725,"o":"m 74 0 l 74 956 l 717 956 l 717 733 l 346 733 l 346 594 l 658 594 l 658 375 l 346 375 l 346 222 l 725 222 l 725 0 l 74 0 m 203 1036 l 203 1229 l 364 1229 l 364 1036 l 203 1036 m 436 1036 l 436 1229 l 597 1229 l 597 1036 l 436 1036 z "},"Ė":{"ha":765,"x_min":74,"x_max":725,"o":"m 74 0 l 74 956 l 717 956 l 717 733 l 346 733 l 346 594 l 658 594 l 658 375 l 346 375 l 346 222 l 725 222 l 725 0 l 74 0 m 321 1036 l 321 1229 l 482 1229 l 482 1036 l 321 1036 z "},"Ẹ":{"ha":765,"x_min":74,"x_max":725,"o":"m 74 0 l 74 956 l 717 956 l 717 733 l 346 733 l 346 594 l 658 594 l 658 375 l 346 375 l 346 222 l 725 222 l 725 0 l 74 0 m 321 -260 l 321 -83 l 482 -83 l 482 -260 l 321 -260 z "},"È":{"ha":765,"x_min":74,"x_max":725,"o":"m 74 0 l 74 956 l 717 956 l 717 733 l 346 733 l 346 594 l 658 594 l 658 375 l 346 375 l 346 222 l 725 222 l 725 0 l 74 0 m 526 1044 l 367 1044 l 199 1224 l 199 1229 l 431 1229 l 526 1044 z "},"Ẻ":{"ha":765,"x_min":74,"x_max":725,"o":"m 74 0 l 74 956 l 717 956 l 717 733 l 346 733 l 346 594 l 658 594 l 658 375 l 346 375 l 346 222 l 725 222 l 725 0 l 74 0 m 360 1039 l 360 1121 l 385 1121 q 412 1126 404 1121 q 419 1146 419 1132 q 408 1165 419 1161 q 378 1168 396 1168 l 306 1168 l 306 1235 q 338 1240 321 1238 q 373 1243 356 1242 q 406 1244 390 1244 q 452 1240 428 1244 q 496 1226 476 1235 q 527 1201 515 1217 q 539 1161 539 1185 q 524 1115 539 1133 q 488 1086 510 1096 q 439 1074 465 1076 l 439 1039 l 360 1039 z "},"Ȇ":{"ha":765,"x_min":74,"x_max":725,"o":"m 74 0 l 74 956 l 717 956 l 717 733 l 346 733 l 346 594 l 658 594 l 658 375 l 346 375 l 346 222 l 725 222 l 725 0 l 74 0 m 207 1028 q 227 1121 207 1075 q 291 1197 247 1167 q 403 1228 335 1228 q 515 1197 472 1228 q 578 1120 558 1167 q 599 1028 599 1074 l 485 1028 q 475 1069 485 1050 q 448 1102 465 1089 q 404 1115 431 1115 q 358 1102 376 1115 q 331 1069 340 1089 q 321 1028 322 1050 l 207 1028 z "},"Ē":{"ha":765,"x_min":74,"x_max":725,"o":"m 74 0 l 74 956 l 717 956 l 717 733 l 346 733 l 346 594 l 658 594 l 658 375 l 346 375 l 346 222 l 725 222 l 725 0 l 74 0 m 231 1036 l 231 1175 l 567 1175 l 567 1036 l 231 1036 z "},"Ę":{"ha":765,"x_min":74,"x_max":725,"o":"m 74 0 l 74 956 l 717 956 l 717 733 l 346 733 l 346 594 l 658 594 l 658 375 l 346 375 l 346 222 l 725 222 l 725 0 l 74 0 m 618 -293 q 546 -276 579 -292 q 491 -226 513 -260 q 469 -135 469 -192 q 490 -48 469 -83 q 532 17 510 -12 l 654 17 l 654 11 q 617 -33 629 -6 q 606 -86 606 -60 q 622 -144 606 -122 q 671 -167 639 -167 l 725 -167 l 725 -272 q 672 -288 701 -283 q 618 -293 643 -293 z "},"Ẽ":{"ha":765,"x_min":74,"x_max":725,"o":"m 74 0 l 74 956 l 717 956 l 717 733 l 346 733 l 346 594 l 658 594 l 658 375 l 346 375 l 346 222 l 725 222 l 725 0 l 74 0 m 156 1038 q 174 1137 156 1093 q 227 1205 193 1181 q 306 1229 261 1229 q 372 1216 340 1229 q 432 1190 403 1203 q 490 1178 461 1178 q 525 1192 511 1178 q 546 1229 539 1207 l 644 1229 q 626 1131 644 1174 q 573 1063 607 1088 q 494 1038 539 1038 q 429 1051 460 1038 q 369 1077 399 1064 q 310 1090 340 1090 q 273 1076 288 1090 q 254 1038 258 1061 l 156 1038 z "},"F":{"ha":685,"x_min":72,"x_max":663,"o":"m 72 0 l 72 956 l 663 956 l 663 733 l 344 733 l 344 557 l 607 557 l 607 336 l 344 336 l 344 0 l 72 0 z "},"G":{"ha":892,"x_min":49,"x_max":831,"o":"m 418 -17 q 144 106 239 -17 q 49 478 49 229 q 96 756 49 646 q 233 919 143 865 q 456 972 324 972 q 610 950 542 972 q 728 883 679 928 q 804 769 778 838 q 831 610 831 701 l 569 610 q 563 665 569 639 q 542 710 556 690 q 507 740 528 729 q 456 750 486 750 q 393 738 418 750 q 353 702 368 726 q 333 642 339 678 q 326 558 326 606 l 326 397 q 338 290 326 333 q 378 226 350 247 q 457 206 407 206 q 521 223 496 206 q 559 269 546 240 q 572 332 572 299 l 572 339 l 438 339 l 438 533 l 831 533 l 831 0 l 690 0 l 671 90 q 610 35 644 60 q 528 -3 575 11 q 418 -17 481 -17 z "},"Ğ":{"ha":892,"x_min":49,"x_max":831,"o":"m 418 -17 q 144 106 239 -17 q 49 478 49 229 q 96 756 49 646 q 233 919 143 865 q 456 972 324 972 q 610 950 542 972 q 728 883 679 928 q 804 769 778 838 q 831 610 831 701 l 569 610 q 563 665 569 639 q 542 710 556 690 q 507 740 528 729 q 456 750 486 750 q 393 738 418 750 q 353 702 368 726 q 333 642 339 678 q 326 558 326 606 l 326 397 q 338 290 326 333 q 378 226 350 247 q 457 206 407 206 q 521 223 496 206 q 559 269 546 240 q 572 332 572 299 l 572 339 l 438 339 l 438 533 l 831 533 l 831 0 l 690 0 l 671 90 q 610 35 644 60 q 528 -3 575 11 q 418 -17 481 -17 m 451 1029 q 340 1060 382 1029 q 278 1137 297 1090 q 258 1229 258 1183 l 364 1229 q 378 1194 367 1211 q 410 1167 390 1178 q 453 1157 429 1157 q 501 1169 482 1157 q 531 1198 519 1181 q 544 1229 543 1215 l 650 1229 q 628 1137 650 1183 q 563 1060 607 1090 q 451 1029 519 1029 z "},"Ǧ":{"ha":892,"x_min":49,"x_max":831,"o":"m 418 -17 q 144 106 239 -17 q 49 478 49 229 q 96 756 49 646 q 233 919 143 865 q 456 972 324 972 q 610 950 542 972 q 728 883 679 928 q 804 769 778 838 q 831 610 831 701 l 569 610 q 563 665 569 639 q 542 710 556 690 q 507 740 528 729 q 456 750 486 750 q 393 738 418 750 q 353 702 368 726 q 333 642 339 678 q 326 558 326 606 l 326 397 q 338 290 326 333 q 378 226 350 247 q 457 206 407 206 q 521 223 496 206 q 559 269 546 240 q 572 332 572 299 l 572 339 l 438 339 l 438 533 l 831 533 l 831 0 l 690 0 l 671 90 q 610 35 644 60 q 528 -3 575 11 q 418 -17 481 -17 m 210 1229 l 375 1229 l 485 1104 l 424 1104 l 533 1229 l 696 1229 l 551 1044 l 356 1044 l 210 1229 z "},"Ĝ":{"ha":892,"x_min":49,"x_max":831,"o":"m 418 -17 q 144 106 239 -17 q 49 478 49 229 q 96 756 49 646 q 233 919 143 865 q 456 972 324 972 q 610 950 542 972 q 728 883 679 928 q 804 769 778 838 q 831 610 831 701 l 569 610 q 563 665 569 639 q 542 710 556 690 q 507 740 528 729 q 456 750 486 750 q 393 738 418 750 q 353 702 368 726 q 333 642 339 678 q 326 558 326 606 l 326 397 q 338 290 326 333 q 378 226 350 247 q 457 206 407 206 q 521 223 496 206 q 559 269 546 240 q 572 332 572 299 l 572 339 l 438 339 l 438 533 l 831 533 l 831 0 l 690 0 l 671 90 q 610 35 644 60 q 528 -3 575 11 q 418 -17 481 -17 m 210 1044 l 356 1229 l 551 1229 l 696 1044 l 533 1044 l 424 1169 l 485 1169 l 375 1044 l 210 1044 z "},"Ģ":{"ha":892,"x_min":49,"x_max":831,"o":"m 418 -17 q 144 106 239 -17 q 49 478 49 229 q 96 756 49 646 q 233 919 143 865 q 456 972 324 972 q 610 950 542 972 q 728 883 679 928 q 804 769 778 838 q 831 610 831 701 l 569 610 q 563 665 569 639 q 542 710 556 690 q 507 740 528 729 q 456 750 486 750 q 393 738 418 750 q 353 702 368 726 q 333 642 339 678 q 326 558 326 606 l 326 397 q 338 290 326 333 q 378 226 350 247 q 457 206 407 206 q 521 223 496 206 q 559 269 546 240 q 572 332 572 299 l 572 339 l 438 339 l 438 533 l 831 533 l 831 0 l 690 0 l 671 90 q 610 35 644 60 q 528 -3 575 11 q 418 -17 481 -17 m 371 -440 l 371 -358 q 427 -336 413 -358 q 442 -254 442 -314 l 371 -254 l 371 -76 l 532 -76 l 532 -231 q 517 -356 532 -310 q 467 -422 503 -403 q 371 -440 432 -440 z "},"Ġ":{"ha":892,"x_min":49,"x_max":831,"o":"m 418 -17 q 144 106 239 -17 q 49 478 49 229 q 96 756 49 646 q 233 919 143 865 q 456 972 324 972 q 610 950 542 972 q 728 883 679 928 q 804 769 778 838 q 831 610 831 701 l 569 610 q 563 665 569 639 q 542 710 556 690 q 507 740 528 729 q 456 750 486 750 q 393 738 418 750 q 353 702 368 726 q 333 642 339 678 q 326 558 326 606 l 326 397 q 338 290 326 333 q 378 226 350 247 q 457 206 407 206 q 521 223 496 206 q 559 269 546 240 q 572 332 572 299 l 572 339 l 438 339 l 438 533 l 831 533 l 831 0 l 690 0 l 671 90 q 610 35 644 60 q 528 -3 575 11 q 418 -17 481 -17 m 375 1036 l 375 1229 l 536 1229 l 536 1036 l 375 1036 z "},"H":{"ha":864,"x_min":72,"x_max":793,"o":"m 72 0 l 72 956 l 344 956 l 344 597 l 521 597 l 521 956 l 793 956 l 793 0 l 521 0 l 521 371 l 344 371 l 344 0 l 72 0 z "},"Ħ":{"ha":864,"x_min":-7,"x_max":874,"o":"m 72 0 l 72 956 l 344 956 l 344 597 l 521 597 l 521 956 l 793 956 l 793 0 l 521 0 l 521 371 l 344 371 l 344 0 l 72 0 m -7 697 l -7 853 l 874 853 l 874 697 l -7 697 z "},"Ĥ":{"ha":864,"x_min":72,"x_max":793,"o":"m 72 0 l 72 956 l 344 956 l 344 597 l 521 597 l 521 956 l 793 956 l 793 0 l 521 0 l 521 371 l 344 371 l 344 0 l 72 0 m 190 1044 l 335 1229 l 531 1229 l 676 1044 l 513 1044 l 403 1169 l 464 1169 l 354 1044 l 190 1044 z "},"Ḥ":{"ha":864,"x_min":72,"x_max":793,"o":"m 72 0 l 72 956 l 344 956 l 344 597 l 521 597 l 521 956 l 793 956 l 793 0 l 521 0 l 521 371 l 344 371 l 344 0 l 72 0 m 350 -260 l 350 -83 l 511 -83 l 511 -260 l 350 -260 z "},"I":{"ha":415,"x_min":72,"x_max":344,"o":"m 72 0 l 72 956 l 344 956 l 344 0 l 72 0 z "},"Ĳ":{"ha":1146,"x_min":72,"x_max":1085,"o":"m 72 0 l 72 956 l 344 956 l 344 0 l 72 0 m 751 -17 q 583 13 656 -17 q 471 110 511 43 q 431 288 431 178 l 431 339 l 692 339 l 692 296 q 705 228 692 251 q 751 206 718 206 q 799 228 786 206 q 813 297 813 251 l 813 956 l 1085 956 l 1085 288 q 1042 111 1085 179 q 924 13 1000 43 q 751 -17 849 -17 z "},"Í":{"ha":415,"x_min":72,"x_max":446,"o":"m 72 0 l 72 956 l 344 956 l 344 0 l 72 0 m 117 1044 l 214 1229 l 444 1229 l 446 1224 l 276 1044 l 117 1044 z "},"Ĭ":{"ha":415,"x_min":14,"x_max":404,"o":"m 72 0 l 72 956 l 344 956 l 344 0 l 72 0 m 206 1029 q 95 1060 138 1029 q 33 1137 53 1090 q 14 1229 14 1183 l 118 1229 q 133 1194 121 1211 q 165 1167 144 1178 q 207 1157 185 1157 q 256 1169 236 1157 q 286 1198 275 1181 q 300 1229 297 1215 l 404 1229 q 383 1137 404 1183 q 317 1060 361 1090 q 206 1029 274 1029 z "},"Ǐ":{"ha":415,"x_min":-35,"x_max":451,"o":"m 72 0 l 72 956 l 344 956 l 344 0 l 72 0 m -35 1229 l 129 1229 l 239 1104 l 178 1104 l 288 1229 l 451 1229 l 306 1044 l 110 1044 l -35 1229 z "},"Î":{"ha":415,"x_min":-35,"x_max":451,"o":"m 72 0 l 72 956 l 344 956 l 344 0 l 72 0 m -35 1044 l 110 1229 l 306 1229 l 451 1044 l 288 1044 l 178 1169 l 239 1169 l 129 1044 l -35 1044 z "},"Ȉ":{"ha":415,"x_min":-106,"x_max":432,"o":"m 72 0 l 72 956 l 344 956 l 344 0 l 72 0 m 293 1044 l 146 1224 l 147 1229 l 350 1229 l 432 1044 l 293 1044 m 40 1044 l -106 1224 l -104 1229 l 99 1229 l 179 1044 l 40 1044 z "},"Ï":{"ha":415,"x_min":11,"x_max":406,"o":"m 72 0 l 72 956 l 344 956 l 344 0 l 72 0 m 11 1036 l 11 1229 l 172 1229 l 172 1036 l 11 1036 m 244 1036 l 244 1229 l 406 1229 l 406 1036 l 244 1036 z "},"İ":{"ha":415,"x_min":72,"x_max":344,"o":"m 72 0 l 72 956 l 344 956 l 344 0 l 72 0 m 129 1036 l 129 1229 l 290 1229 l 290 1036 l 129 1036 z "},"Ị":{"ha":415,"x_min":72,"x_max":344,"o":"m 72 0 l 72 956 l 344 956 l 344 0 l 72 0 m 126 -260 l 126 -83 l 288 -83 l 288 -260 l 126 -260 z "},"Ì":{"ha":415,"x_min":7,"x_max":344,"o":"m 72 0 l 72 956 l 344 956 l 344 0 l 72 0 m 336 1044 l 176 1044 l 7 1224 l 8 1229 l 239 1229 l 336 1044 z "},"Ỉ":{"ha":415,"x_min":72,"x_max":347,"o":"m 72 0 l 72 956 l 344 956 l 344 0 l 72 0 m 168 1039 l 168 1121 l 193 1121 q 220 1126 213 1121 q 228 1146 228 1132 q 217 1165 228 1161 q 188 1168 206 1168 l 114 1168 l 114 1235 q 147 1240 129 1238 q 181 1243 164 1242 q 213 1244 197 1244 q 260 1240 236 1244 q 304 1226 285 1235 q 335 1201 324 1217 q 347 1161 347 1185 q 333 1115 347 1133 q 297 1086 319 1096 q 247 1075 274 1076 l 247 1039 l 168 1039 z "},"Ȋ":{"ha":415,"x_min":15,"x_max":408,"o":"m 72 0 l 72 956 l 344 956 l 344 0 l 72 0 m 15 1028 q 36 1121 15 1075 q 101 1197 57 1167 q 211 1228 144 1228 q 324 1197 281 1228 q 388 1121 367 1167 q 408 1028 408 1075 l 293 1028 q 284 1069 293 1050 q 257 1102 275 1089 q 211 1115 239 1115 q 168 1102 186 1115 q 140 1069 150 1089 q 129 1028 131 1050 l 15 1028 z "},"Ī":{"ha":415,"x_min":40,"x_max":376,"o":"m 72 0 l 72 956 l 344 956 l 344 0 l 72 0 m 40 1036 l 40 1175 l 376 1175 l 376 1036 l 40 1036 z "},"Į":{"ha":415,"x_min":72,"x_max":344,"o":"m 72 0 l 72 956 l 344 956 l 344 0 l 72 0 m 238 -293 q 166 -276 200 -292 q 111 -226 132 -260 q 90 -135 90 -192 q 110 -48 90 -83 q 153 17 129 -12 l 274 17 l 274 11 q 238 -33 250 -6 q 226 -86 226 -60 q 243 -144 226 -122 q 290 -167 260 -167 l 344 -167 l 344 -272 q 293 -288 322 -283 q 238 -293 264 -293 z "},"Ĩ":{"ha":415,"x_min":-36,"x_max":453,"o":"m 72 0 l 72 956 l 344 956 l 344 0 l 72 0 m -36 1038 q -17 1137 -36 1093 q 35 1205 1 1181 q 114 1229 69 1229 q 180 1216 149 1229 q 240 1190 211 1203 q 299 1178 269 1178 q 335 1192 321 1178 q 354 1229 349 1207 l 453 1229 q 434 1131 453 1174 q 381 1063 415 1088 q 303 1038 347 1038 q 239 1051 269 1038 q 178 1077 208 1064 q 118 1090 149 1090 q 82 1076 97 1090 q 63 1038 67 1061 l -36 1038 z "},"J":{"ha":731,"x_min":15,"x_max":669,"o":"m 336 -17 q 168 13 240 -17 q 56 110 96 43 q 15 288 15 178 l 15 339 l 275 339 l 275 297 q 288 228 275 251 q 336 206 301 206 q 384 228 371 206 q 397 297 397 251 l 397 956 l 669 956 l 669 288 q 626 111 669 179 q 508 13 583 43 q 336 -17 433 -17 z "},"Ĵ":{"ha":731,"x_min":15,"x_max":775,"o":"m 336 -17 q 168 13 240 -17 q 56 110 96 43 q 15 288 15 178 l 15 339 l 275 339 l 275 297 q 288 228 275 251 q 336 206 301 206 q 384 228 371 206 q 397 297 397 251 l 397 956 l 669 956 l 669 288 q 626 111 669 179 q 508 13 583 43 q 336 -17 433 -17 m 289 1044 l 433 1229 l 629 1229 l 775 1044 l 611 1044 l 501 1169 l 563 1169 l 453 1044 l 289 1044 z "},"K":{"ha":861,"x_min":72,"x_max":860,"o":"m 72 0 l 72 956 l 344 956 l 344 563 l 550 956 l 853 956 l 625 544 l 860 0 l 553 0 l 438 322 l 344 218 l 344 0 l 72 0 z "},"Ķ":{"ha":861,"x_min":72,"x_max":860,"o":"m 72 0 l 72 956 l 344 956 l 344 563 l 550 956 l 853 956 l 625 544 l 860 0 l 553 0 l 438 322 l 344 218 l 344 0 l 72 0 m 372 -440 l 372 -358 q 429 -336 414 -358 q 444 -254 444 -314 l 372 -254 l 372 -76 l 533 -76 l 533 -231 q 519 -356 533 -310 q 469 -422 504 -403 q 372 -440 435 -440 z "},"L":{"ha":711,"x_min":72,"x_max":693,"o":"m 72 0 l 72 956 l 344 956 l 344 228 l 693 228 l 693 0 l 72 0 z "},"Ǉ":{"ha":1424,"x_min":72,"x_max":1363,"o":"m 72 0 l 72 956 l 344 956 l 344 228 l 693 228 l 693 0 l 72 0 m 1029 -17 q 861 13 933 -17 q 749 110 789 43 q 708 288 708 178 l 708 339 l 968 339 l 968 296 q 981 228 968 251 q 1029 206 994 206 q 1077 228 1064 206 q 1090 297 1090 251 l 1090 956 l 1363 956 l 1363 288 q 1319 111 1363 179 q 1201 13 1276 43 q 1029 -17 1126 -17 z "},"Ĺ":{"ha":711,"x_min":72,"x_max":693,"o":"m 72 0 l 72 956 l 344 956 l 344 228 l 693 228 l 693 0 l 72 0 m 117 1044 l 214 1229 l 444 1229 l 446 1224 l 276 1044 l 117 1044 z "},"Ľ":{"ha":711,"x_min":72,"x_max":693,"o":"m 72 0 l 72 956 l 344 956 l 344 228 l 693 228 l 693 0 l 72 0 m 481 771 l 481 1007 l 688 1007 l 626 771 l 481 771 z "},"Ļ":{"ha":711,"x_min":72,"x_max":693,"o":"m 72 0 l 72 956 l 344 956 l 344 228 l 693 228 l 693 0 l 72 0 m 311 -440 l 311 -358 q 368 -336 353 -358 q 383 -254 383 -314 l 311 -254 l 311 -76 l 472 -76 l 472 -231 q 458 -356 472 -310 q 408 -422 443 -403 q 311 -440 372 -440 z "},"Ŀ":{"ha":711,"x_min":72,"x_max":693,"o":"m 72 0 l 72 956 l 344 956 l 344 228 l 693 228 l 693 0 l 72 0 m 481 431 l 481 624 l 644 624 l 644 431 l 481 431 z "},"ǈ":{"ha":1074,"x_min":72,"x_max":1018,"o":"m 72 0 l 72 956 l 344 956 l 344 228 l 693 228 l 693 0 l 72 0 m 775 819 l 775 1007 l 1018 1007 l 1018 819 l 775 819 m 810 -292 q 764 -289 793 -292 q 706 -280 735 -286 q 660 -267 676 -274 l 660 -101 l 722 -101 q 765 -83 756 -101 q 775 -22 775 -64 l 775 733 l 1018 733 l 1018 -76 q 994 -205 1018 -157 q 925 -272 971 -253 q 810 -292 879 -292 z "},"Ł":{"ha":711,"x_min":0,"x_max":693,"o":"m 72 0 l 72 956 l 344 956 l 344 228 l 693 228 l 693 0 l 72 0 m 0 213 l 0 358 l 492 760 l 492 611 l 0 213 z "},"M":{"ha":1106,"x_min":72,"x_max":1035,"o":"m 72 0 l 72 956 l 449 956 l 513 618 q 524 553 517 594 q 539 469 531 513 q 554 390 547 425 l 567 390 q 579 458 572 418 q 594 540 586 499 q 607 618 601 582 l 668 956 l 1035 956 l 1035 0 l 776 0 l 776 299 q 778 428 776 367 q 783 538 781 490 q 785 610 785 585 l 772 610 q 764 561 769 589 q 753 507 758 533 q 743 463 749 481 l 651 0 l 446 0 l 354 463 q 345 507 351 481 q 335 561 339 533 q 326 610 331 589 l 314 610 q 318 522 317 575 q 321 411 319 469 q 322 299 322 353 l 322 0 l 72 0 z "},"N":{"ha":869,"x_min":72,"x_max":797,"o":"m 72 0 l 72 956 l 322 956 l 479 649 q 497 615 486 635 q 517 575 507 596 q 535 536 528 554 l 542 538 q 542 597 542 567 q 542 649 542 626 l 542 956 l 797 956 l 797 0 l 547 0 l 378 321 q 353 376 364 349 q 333 428 343 403 l 326 426 q 328 372 328 400 q 328 321 328 343 l 328 0 l 72 0 z "},"Ǌ":{"ha":1600,"x_min":72,"x_max":1539,"o":"m 72 0 l 72 956 l 322 956 l 479 649 q 497 615 486 635 q 517 575 507 596 q 535 536 528 554 l 542 538 q 542 597 542 567 q 542 649 542 626 l 542 956 l 797 956 l 797 0 l 547 0 l 378 321 q 353 376 364 349 q 333 428 343 403 l 326 426 q 328 372 328 400 q 328 321 328 343 l 328 0 l 72 0 m 1206 -17 q 1037 13 1110 -17 q 924 110 964 43 q 885 288 885 178 l 885 339 l 1144 339 l 1144 297 q 1158 228 1144 251 q 1206 206 1171 206 q 1253 228 1240 206 q 1267 297 1267 251 l 1267 956 l 1539 956 l 1539 288 q 1496 111 1539 179 q 1378 13 1453 43 q 1206 -17 1303 -17 z "},"Ń":{"ha":869,"x_min":72,"x_max":797,"o":"m 72 0 l 72 956 l 322 956 l 479 649 q 497 615 486 635 q 517 575 507 596 q 535 536 528 554 l 542 538 q 542 597 542 567 q 542 649 542 626 l 542 956 l 797 956 l 797 0 l 547 0 l 378 321 q 353 376 364 349 q 333 428 343 403 l 326 426 q 328 372 328 400 q 328 321 328 343 l 328 0 l 72 0 m 343 1044 l 440 1229 l 671 1229 l 672 1224 l 503 1044 l 343 1044 z "},"Ň":{"ha":869,"x_min":72,"x_max":797,"o":"m 72 0 l 72 956 l 322 956 l 479 649 q 497 615 486 635 q 517 575 507 596 q 535 536 528 554 l 542 538 q 542 597 542 567 q 542 649 542 626 l 542 956 l 797 956 l 797 0 l 547 0 l 378 321 q 353 376 364 349 q 333 428 343 403 l 326 426 q 328 372 328 400 q 328 321 328 343 l 328 0 l 72 0 m 192 1229 l 356 1229 l 465 1104 l 404 1104 l 514 1229 l 678 1229 l 532 1044 l 336 1044 l 192 1229 z "},"Ņ":{"ha":869,"x_min":72,"x_max":797,"o":"m 72 0 l 72 956 l 322 956 l 479 649 q 497 615 486 635 q 517 575 507 596 q 535 536 528 554 l 542 538 q 542 597 542 567 q 542 649 542 626 l 542 956 l 797 956 l 797 0 l 547 0 l 378 321 q 353 376 364 349 q 333 428 343 403 l 326 426 q 328 372 328 400 q 328 321 328 343 l 328 0 l 72 0 m 350 -440 l 350 -358 q 406 -336 390 -358 q 421 -254 421 -314 l 350 -254 l 350 -76 l 511 -76 l 511 -231 q 497 -356 511 -310 q 447 -422 482 -403 q 350 -440 411 -440 z "},"Ŋ":{"ha":869,"x_min":72,"x_max":797,"o":"m 585 -292 q 539 -289 568 -292 q 481 -280 510 -286 q 435 -267 451 -274 l 435 -101 l 499 -101 q 540 -83 531 -101 q 550 -22 550 -65 l 550 6 l 379 321 q 355 373 367 347 q 335 424 343 399 l 328 422 q 328 372 328 397 q 328 321 328 346 l 328 0 l 72 0 l 72 956 l 322 956 l 481 649 q 497 614 488 632 q 517 577 507 596 q 533 542 526 558 l 540 542 q 540 596 540 569 q 540 649 540 622 l 540 956 l 797 956 l 797 -58 q 783 -170 797 -125 q 742 -242 769 -215 q 676 -280 715 -268 q 585 -292 636 -292 z "},"Ɲ":{"ha":869,"x_min":-35,"x_max":797,"o":"m 115 -292 q 69 -289 99 -292 q 11 -280 40 -286 q -35 -267 -18 -274 l -35 -101 l 19 -101 q 62 -83 51 -101 q 72 -22 72 -65 l 72 956 l 322 956 l 481 649 q 497 617 486 635 q 517 578 507 599 q 533 542 526 558 l 540 543 q 540 596 540 569 q 540 649 540 622 l 540 956 l 797 956 l 797 0 l 546 0 l 376 321 q 354 373 364 347 q 335 424 344 399 l 328 422 q 328 371 328 396 q 328 321 328 346 l 328 -58 q 315 -170 328 -125 q 276 -242 301 -215 q 210 -280 250 -268 q 115 -292 169 -292 z "},"ǋ":{"ha":1231,"x_min":72,"x_max":1175,"o":"m 72 0 l 72 956 l 322 956 l 479 649 q 497 615 486 635 q 517 575 507 596 q 535 536 528 554 l 542 538 q 542 597 542 567 q 542 649 542 626 l 542 956 l 797 956 l 797 0 l 547 0 l 378 321 q 353 376 364 349 q 333 428 343 403 l 326 426 q 328 372 328 400 q 328 321 328 343 l 328 0 l 72 0 m 932 819 l 932 1007 l 1175 1007 l 1175 819 l 932 819 m 967 -292 q 921 -289 950 -292 q 863 -280 892 -286 q 817 -267 833 -274 l 817 -101 l 881 -101 q 922 -83 913 -101 q 932 -22 932 -65 l 932 733 l 1175 733 l 1175 -76 q 1152 -205 1175 -157 q 1083 -272 1129 -253 q 967 -292 1036 -292 z "},"Ñ":{"ha":869,"x_min":72,"x_max":797,"o":"m 72 0 l 72 956 l 322 956 l 479 649 q 497 615 486 635 q 517 575 507 596 q 535 536 528 554 l 542 538 q 542 597 542 567 q 542 649 542 626 l 542 956 l 797 956 l 797 0 l 547 0 l 378 321 q 353 376 364 349 q 333 428 343 403 l 326 426 q 328 372 328 400 q 328 321 328 343 l 328 0 l 72 0 m 190 1038 q 209 1137 190 1093 q 262 1205 228 1181 q 340 1229 296 1229 q 406 1216 375 1229 q 467 1190 438 1203 q 525 1178 496 1178 q 560 1192 546 1178 q 581 1229 575 1207 l 679 1229 q 660 1131 679 1174 q 608 1063 642 1088 q 529 1038 574 1038 q 465 1051 494 1038 q 405 1077 435 1064 q 344 1090 375 1090 q 308 1076 324 1090 q 289 1038 293 1061 l 190 1038 z "},"O":{"ha":901,"x_min":49,"x_max":853,"o":"m 451 -17 q 229 35 318 -17 q 94 197 140 88 q 49 478 49 306 q 94 759 49 650 q 229 920 140 868 q 451 972 318 972 q 673 920 583 972 q 808 759 763 868 q 853 478 853 650 q 808 197 853 306 q 673 35 763 88 q 451 -17 583 -17 m 451 206 q 511 219 488 206 q 549 258 535 232 q 570 319 564 283 q 576 397 576 354 l 576 558 q 570 637 576 601 q 549 698 564 672 q 511 737 535 724 q 451 750 488 750 q 390 737 414 750 q 353 698 367 724 q 333 637 339 672 q 326 558 326 601 l 326 397 q 333 319 326 354 q 353 258 339 283 q 390 219 367 232 q 451 206 414 206 z "},"Ó":{"ha":901,"x_min":49,"x_max":853,"o":"m 451 -17 q 229 35 318 -17 q 94 197 140 88 q 49 478 49 306 q 94 759 49 650 q 229 920 140 868 q 451 972 318 972 q 673 920 583 972 q 808 759 763 868 q 853 478 853 650 q 808 197 853 306 q 673 35 763 88 q 451 -17 583 -17 m 451 206 q 511 219 488 206 q 549 258 535 232 q 570 319 564 283 q 576 397 576 354 l 576 558 q 570 637 576 601 q 549 698 564 672 q 511 737 535 724 q 451 750 488 750 q 390 737 414 750 q 353 698 367 724 q 333 637 339 672 q 326 558 326 601 l 326 397 q 333 319 326 354 q 353 258 339 283 q 390 219 367 232 q 451 206 414 206 m 360 1044 l 456 1229 l 686 1229 l 689 1224 l 519 1044 l 360 1044 z "},"Ŏ":{"ha":901,"x_min":49,"x_max":853,"o":"m 451 -17 q 229 35 318 -17 q 94 197 140 88 q 49 478 49 306 q 94 759 49 650 q 229 920 140 868 q 451 972 318 972 q 673 920 583 972 q 808 759 763 868 q 853 478 853 650 q 808 197 853 306 q 673 35 763 88 q 451 -17 583 -17 m 451 206 q 511 219 488 206 q 549 258 535 232 q 570 319 564 283 q 576 397 576 354 l 576 558 q 570 637 576 601 q 549 698 564 672 q 511 737 535 724 q 451 750 488 750 q 390 737 414 750 q 353 698 367 724 q 333 637 339 672 q 326 558 326 601 l 326 397 q 333 319 326 354 q 353 258 339 283 q 390 219 367 232 q 451 206 414 206 m 449 1029 q 337 1060 379 1029 q 275 1137 294 1090 q 256 1229 256 1183 l 361 1229 q 376 1194 364 1211 q 407 1167 388 1178 q 450 1157 426 1157 q 497 1169 478 1157 q 528 1198 517 1181 q 542 1229 540 1215 l 646 1229 q 625 1137 646 1183 q 560 1060 604 1090 q 449 1029 517 1029 z "},"Ǒ":{"ha":901,"x_min":49,"x_max":853,"o":"m 451 -17 q 229 35 318 -17 q 94 197 140 88 q 49 478 49 306 q 94 759 49 650 q 229 920 140 868 q 451 972 318 972 q 673 920 583 972 q 808 759 763 868 q 853 478 853 650 q 808 197 853 306 q 673 35 763 88 q 451 -17 583 -17 m 451 206 q 511 219 488 206 q 549 258 535 232 q 570 319 564 283 q 576 397 576 354 l 576 558 q 570 637 576 601 q 549 698 564 672 q 511 737 535 724 q 451 750 488 750 q 390 737 414 750 q 353 698 367 724 q 333 637 339 672 q 326 558 326 601 l 326 397 q 333 319 326 354 q 353 258 339 283 q 390 219 367 232 q 451 206 414 206 m 207 1229 l 372 1229 l 481 1104 l 421 1104 l 529 1229 l 693 1229 l 549 1044 l 353 1044 l 207 1229 z "},"Ô":{"ha":901,"x_min":49,"x_max":853,"o":"m 451 -17 q 229 35 318 -17 q 94 197 140 88 q 49 478 49 306 q 94 759 49 650 q 229 920 140 868 q 451 972 318 972 q 673 920 583 972 q 808 759 763 868 q 853 478 853 650 q 808 197 853 306 q 673 35 763 88 q 451 -17 583 -17 m 451 206 q 511 219 488 206 q 549 258 535 232 q 570 319 564 283 q 576 397 576 354 l 576 558 q 570 637 576 601 q 549 698 564 672 q 511 737 535 724 q 451 750 488 750 q 390 737 414 750 q 353 698 367 724 q 333 637 339 672 q 326 558 326 601 l 326 397 q 333 319 326 354 q 353 258 339 283 q 390 219 367 232 q 451 206 414 206 m 207 1044 l 353 1229 l 549 1229 l 693 1044 l 529 1044 l 421 1169 l 481 1169 l 372 1044 l 207 1044 z "},"Ố":{"ha":901,"x_min":49,"x_max":853,"o":"m 451 -17 q 229 35 318 -17 q 94 197 140 88 q 49 478 49 306 q 94 759 49 650 q 229 920 140 868 q 451 972 318 972 q 673 920 583 972 q 808 759 763 868 q 853 478 853 650 q 808 197 853 306 q 673 35 763 88 q 451 -17 583 -17 m 451 206 q 511 219 488 206 q 549 258 535 232 q 570 319 564 283 q 576 397 576 354 l 576 558 q 570 637 576 601 q 549 698 564 672 q 511 737 535 724 q 451 750 488 750 q 390 737 414 750 q 353 698 367 724 q 333 637 339 672 q 326 558 326 601 l 326 397 q 333 319 326 354 q 353 258 339 283 q 390 219 367 232 q 451 206 414 206 m 207 1044 l 353 1229 l 549 1229 l 693 1044 l 529 1044 l 421 1169 l 481 1169 l 372 1044 l 207 1044 m 360 1269 l 456 1454 l 686 1454 l 689 1449 l 519 1269 l 360 1269 z "},"Ộ":{"ha":901,"x_min":49,"x_max":853,"o":"m 451 -17 q 229 35 318 -17 q 94 197 140 88 q 49 478 49 306 q 94 759 49 650 q 229 920 140 868 q 451 972 318 972 q 673 920 583 972 q 808 759 763 868 q 853 478 853 650 q 808 197 853 306 q 673 35 763 88 q 451 -17 583 -17 m 451 206 q 511 219 488 206 q 549 258 535 232 q 570 319 564 283 q 576 397 576 354 l 576 558 q 570 637 576 601 q 549 698 564 672 q 511 737 535 724 q 451 750 488 750 q 390 737 414 750 q 353 698 367 724 q 333 637 339 672 q 326 558 326 601 l 326 397 q 333 319 326 354 q 353 258 339 283 q 390 219 367 232 q 451 206 414 206 m 374 -260 l 374 -83 l 535 -83 l 535 -260 l 374 -260 m 207 1044 l 353 1229 l 549 1229 l 693 1044 l 529 1044 l 421 1169 l 481 1169 l 372 1044 l 207 1044 z "},"Ồ":{"ha":901,"x_min":49,"x_max":853,"o":"m 451 -17 q 229 35 318 -17 q 94 197 140 88 q 49 478 49 306 q 94 759 49 650 q 229 920 140 868 q 451 972 318 972 q 673 920 583 972 q 808 759 763 868 q 853 478 853 650 q 808 197 853 306 q 673 35 763 88 q 451 -17 583 -17 m 451 206 q 511 219 488 206 q 549 258 535 232 q 570 319 564 283 q 576 397 576 354 l 576 558 q 570 637 576 601 q 549 698 564 672 q 511 737 535 724 q 451 750 488 750 q 390 737 414 750 q 353 698 367 724 q 333 637 339 672 q 326 558 326 601 l 326 397 q 333 319 326 354 q 353 258 339 283 q 390 219 367 232 q 451 206 414 206 m 207 1044 l 353 1229 l 549 1229 l 693 1044 l 529 1044 l 421 1169 l 481 1169 l 372 1044 l 207 1044 m 578 1269 l 418 1269 l 249 1449 l 251 1454 l 482 1454 l 578 1269 z "},"Ổ":{"ha":901,"x_min":49,"x_max":853,"o":"m 451 -17 q 229 35 318 -17 q 94 197 140 88 q 49 478 49 306 q 94 759 49 650 q 229 920 140 868 q 451 972 318 972 q 673 920 583 972 q 808 759 763 868 q 853 478 853 650 q 808 197 853 306 q 673 35 763 88 q 451 -17 583 -17 m 451 206 q 511 219 488 206 q 549 258 535 232 q 570 319 564 283 q 576 397 576 354 l 576 558 q 570 637 576 601 q 549 698 564 672 q 511 737 535 724 q 451 750 488 750 q 390 737 414 750 q 353 698 367 724 q 333 637 339 672 q 326 558 326 601 l 326 397 q 333 319 326 354 q 353 258 339 283 q 390 219 367 232 q 451 206 414 206 m 207 1044 l 353 1229 l 549 1229 l 693 1044 l 529 1044 l 421 1169 l 481 1169 l 372 1044 l 207 1044 m 411 1264 l 411 1346 l 435 1346 q 463 1351 454 1346 q 471 1371 471 1357 q 459 1390 471 1386 q 429 1393 447 1393 l 356 1393 l 356 1460 q 389 1465 372 1463 q 423 1468 406 1467 q 456 1469 440 1469 q 503 1465 479 1469 q 547 1451 528 1460 q 577 1426 565 1442 q 589 1386 589 1410 q 575 1340 589 1358 q 538 1311 561 1321 q 489 1299 515 1301 l 489 1264 l 411 1264 z "},"Ỗ":{"ha":901,"x_min":49,"x_max":853,"o":"m 451 -17 q 229 35 318 -17 q 94 197 140 88 q 49 478 49 306 q 94 759 49 650 q 229 920 140 868 q 451 972 318 972 q 673 920 583 972 q 808 759 763 868 q 853 478 853 650 q 808 197 853 306 q 673 35 763 88 q 451 -17 583 -17 m 451 206 q 511 219 488 206 q 549 258 535 232 q 570 319 564 283 q 576 397 576 354 l 576 558 q 570 637 576 601 q 549 698 564 672 q 511 737 535 724 q 451 750 488 750 q 390 737 414 750 q 353 698 367 724 q 333 637 339 672 q 326 558 326 601 l 326 397 q 333 319 326 354 q 353 258 339 283 q 390 219 367 232 q 451 206 414 206 m 207 1044 l 353 1229 l 549 1229 l 693 1044 l 529 1044 l 421 1169 l 481 1169 l 372 1044 l 207 1044 m 207 1263 q 226 1361 207 1318 q 278 1429 244 1404 q 356 1454 311 1454 q 422 1441 390 1454 q 483 1415 453 1428 q 542 1403 513 1403 q 576 1417 563 1403 q 596 1454 590 1432 l 694 1454 q 676 1356 694 1399 q 624 1288 657 1313 q 546 1263 590 1263 q 481 1276 511 1263 q 421 1302 450 1289 q 360 1315 392 1315 q 324 1301 339 1315 q 306 1263 310 1286 l 207 1263 z "},"Ȍ":{"ha":901,"x_min":49,"x_max":853,"o":"m 451 -17 q 229 35 318 -17 q 94 197 140 88 q 49 478 49 306 q 94 759 49 650 q 229 920 140 868 q 451 972 318 972 q 673 920 583 972 q 808 759 763 868 q 853 478 853 650 q 808 197 853 306 q 673 35 763 88 q 451 -17 583 -17 m 451 206 q 511 219 488 206 q 549 258 535 232 q 570 319 564 283 q 576 397 576 354 l 576 558 q 570 637 576 601 q 549 698 564 672 q 511 737 535 724 q 451 750 488 750 q 390 737 414 750 q 353 698 367 724 q 333 637 339 672 q 326 558 326 601 l 326 397 q 333 319 326 354 q 353 258 339 283 q 390 219 367 232 q 451 206 414 206 m 536 1044 l 389 1224 l 389 1229 l 593 1229 l 674 1044 l 536 1044 m 283 1044 l 136 1224 l 138 1229 l 340 1229 l 421 1044 l 283 1044 z "},"Ö":{"ha":901,"x_min":49,"x_max":853,"o":"m 451 -17 q 229 35 318 -17 q 94 197 140 88 q 49 478 49 306 q 94 759 49 650 q 229 920 140 868 q 451 972 318 972 q 673 920 583 972 q 808 759 763 868 q 853 478 853 650 q 808 197 853 306 q 673 35 763 88 q 451 -17 583 -17 m 451 206 q 511 219 488 206 q 549 258 535 232 q 570 319 564 283 q 576 397 576 354 l 576 558 q 570 637 576 601 q 549 698 564 672 q 511 737 535 724 q 451 750 488 750 q 390 737 414 750 q 353 698 367 724 q 333 637 339 672 q 326 558 326 601 l 326 397 q 333 319 326 354 q 353 258 339 283 q 390 219 367 232 q 451 206 414 206 m 254 1036 l 254 1229 l 414 1229 l 414 1036 l 254 1036 m 488 1036 l 488 1229 l 647 1229 l 647 1036 l 488 1036 z "},"Ȫ":{"ha":901,"x_min":49,"x_max":853,"o":"m 451 -17 q 229 35 318 -17 q 94 197 140 88 q 49 478 49 306 q 94 759 49 650 q 229 920 140 868 q 451 972 318 972 q 673 920 583 972 q 808 759 763 868 q 853 478 853 650 q 808 197 853 306 q 673 35 763 88 q 451 -17 583 -17 m 451 206 q 511 219 488 206 q 549 258 535 232 q 570 319 564 283 q 576 397 576 354 l 576 558 q 570 637 576 601 q 549 698 564 672 q 511 737 535 724 q 451 750 488 750 q 390 737 414 750 q 353 698 367 724 q 333 637 339 672 q 326 558 326 601 l 326 397 q 333 319 326 354 q 353 258 339 283 q 390 219 367 232 q 451 206 414 206 m 254 1036 l 254 1229 l 414 1229 l 414 1036 l 254 1036 m 488 1036 l 488 1229 l 647 1229 l 647 1036 l 488 1036 m 282 1289 l 282 1428 l 618 1428 l 618 1289 l 282 1289 z "},"Ȱ":{"ha":901,"x_min":49,"x_max":853,"o":"m 451 -17 q 229 35 318 -17 q 94 197 140 88 q 49 478 49 306 q 94 759 49 650 q 229 920 140 868 q 451 972 318 972 q 673 920 583 972 q 808 759 763 868 q 853 478 853 650 q 808 197 853 306 q 673 35 763 88 q 451 -17 583 -17 m 451 206 q 511 219 488 206 q 549 258 535 232 q 570 319 564 283 q 576 397 576 354 l 576 558 q 570 637 576 601 q 549 698 564 672 q 511 737 535 724 q 451 750 488 750 q 390 737 414 750 q 353 698 367 724 q 333 637 339 672 q 326 558 326 601 l 326 397 q 333 319 326 354 q 353 258 339 283 q 390 219 367 232 q 451 206 414 206 m 372 1036 l 372 1229 l 532 1229 l 532 1036 l 372 1036 m 283 1289 l 283 1428 l 619 1428 l 619 1289 l 283 1289 z "},"Ọ":{"ha":901,"x_min":49,"x_max":853,"o":"m 451 -17 q 229 35 318 -17 q 94 197 140 88 q 49 478 49 306 q 94 759 49 650 q 229 920 140 868 q 451 972 318 972 q 673 920 583 972 q 808 759 763 868 q 853 478 853 650 q 808 197 853 306 q 673 35 763 88 q 451 -17 583 -17 m 451 206 q 511 219 488 206 q 549 258 535 232 q 570 319 564 283 q 576 397 576 354 l 576 558 q 570 637 576 601 q 549 698 564 672 q 511 737 535 724 q 451 750 488 750 q 390 737 414 750 q 353 698 367 724 q 333 637 339 672 q 326 558 326 601 l 326 397 q 333 319 326 354 q 353 258 339 283 q 390 219 367 232 q 451 206 414 206 m 374 -260 l 374 -83 l 535 -83 l 535 -260 l 374 -260 z "},"Ò":{"ha":901,"x_min":49,"x_max":853,"o":"m 451 -17 q 229 35 318 -17 q 94 197 140 88 q 49 478 49 306 q 94 759 49 650 q 229 920 140 868 q 451 972 318 972 q 673 920 583 972 q 808 759 763 868 q 853 478 853 650 q 808 197 853 306 q 673 35 763 88 q 451 -17 583 -17 m 451 206 q 511 219 488 206 q 549 258 535 232 q 570 319 564 283 q 576 397 576 354 l 576 558 q 570 637 576 601 q 549 698 564 672 q 511 737 535 724 q 451 750 488 750 q 390 737 414 750 q 353 698 367 724 q 333 637 339 672 q 326 558 326 601 l 326 397 q 333 319 326 354 q 353 258 339 283 q 390 219 367 232 q 451 206 414 206 m 578 1044 l 418 1044 l 249 1224 l 251 1229 l 482 1229 l 578 1044 z "},"Ỏ":{"ha":901,"x_min":49,"x_max":853,"o":"m 451 -17 q 229 35 318 -17 q 94 197 140 88 q 49 478 49 306 q 94 759 49 650 q 229 920 140 868 q 451 972 318 972 q 673 920 583 972 q 808 759 763 868 q 853 478 853 650 q 808 197 853 306 q 673 35 763 88 q 451 -17 583 -17 m 451 206 q 511 219 488 206 q 549 258 535 232 q 570 319 564 283 q 576 397 576 354 l 576 558 q 570 637 576 601 q 549 698 564 672 q 511 737 535 724 q 451 750 488 750 q 390 737 414 750 q 353 698 367 724 q 333 637 339 672 q 326 558 326 601 l 326 397 q 333 319 326 354 q 353 258 339 283 q 390 219 367 232 q 451 206 414 206 m 411 1039 l 411 1121 l 435 1121 q 463 1126 454 1121 q 471 1146 471 1132 q 459 1165 471 1161 q 429 1168 447 1168 l 356 1168 l 356 1235 q 389 1240 372 1238 q 423 1243 406 1242 q 456 1244 440 1244 q 503 1240 479 1244 q 547 1226 528 1235 q 577 1201 565 1217 q 589 1161 589 1185 q 575 1115 589 1133 q 538 1086 561 1096 q 489 1074 515 1076 l 489 1039 l 411 1039 z "},"Ơ":{"ha":901,"x_min":49,"x_max":939,"o":"m 451 -17 q 229 35 318 -17 q 94 197 140 88 q 49 478 49 306 q 94 759 49 650 q 229 920 140 868 q 451 972 318 972 q 673 920 583 972 q 808 759 763 868 q 853 478 853 650 q 808 197 853 306 q 673 35 763 88 q 451 -17 583 -17 m 451 206 q 511 219 488 206 q 549 258 535 232 q 570 319 564 283 q 576 397 576 354 l 576 558 q 570 637 576 601 q 549 698 564 672 q 511 737 535 724 q 451 750 488 750 q 390 737 414 750 q 353 698 367 724 q 333 637 339 672 q 326 558 326 601 l 326 397 q 333 319 326 354 q 353 258 339 283 q 390 219 367 232 q 451 206 414 206 m 717 775 l 717 871 q 794 890 764 871 q 826 951 824 910 l 753 951 l 753 1143 l 939 1143 l 939 997 q 914 872 939 922 q 840 799 889 822 q 717 775 790 775 z "},"Ớ":{"ha":901,"x_min":49,"x_max":939,"o":"m 451 -17 q 229 35 318 -17 q 94 197 140 88 q 49 478 49 306 q 94 759 49 650 q 229 920 140 868 q 451 972 318 972 q 673 920 583 972 q 808 759 763 868 q 853 478 853 650 q 808 197 853 306 q 673 35 763 88 q 451 -17 583 -17 m 451 206 q 511 219 488 206 q 549 258 535 232 q 570 319 564 283 q 576 397 576 354 l 576 558 q 570 637 576 601 q 549 698 564 672 q 511 737 535 724 q 451 750 488 750 q 390 737 414 750 q 353 698 367 724 q 333 637 339 672 q 326 558 326 601 l 326 397 q 333 319 326 354 q 353 258 339 283 q 390 219 367 232 q 451 206 414 206 m 717 775 l 717 871 q 794 890 764 871 q 826 951 824 910 l 753 951 l 753 1143 l 939 1143 l 939 997 q 914 872 939 922 q 840 799 889 822 q 717 775 790 775 m 360 1044 l 457 1229 l 688 1229 l 689 1224 l 519 1044 l 360 1044 z "},"Ợ":{"ha":901,"x_min":49,"x_max":939,"o":"m 451 -17 q 229 35 318 -17 q 94 197 140 88 q 49 478 49 306 q 94 759 49 650 q 229 920 140 868 q 451 972 318 972 q 673 920 583 972 q 808 759 763 868 q 853 478 853 650 q 808 197 853 306 q 673 35 763 88 q 451 -17 583 -17 m 451 206 q 511 219 488 206 q 549 258 535 232 q 570 319 564 283 q 576 397 576 354 l 576 558 q 570 637 576 601 q 549 698 564 672 q 511 737 535 724 q 451 750 488 750 q 390 737 414 750 q 353 698 367 724 q 333 637 339 672 q 326 558 326 601 l 326 397 q 333 319 326 354 q 353 258 339 283 q 390 219 367 232 q 451 206 414 206 m 717 775 l 717 871 q 794 890 764 871 q 826 951 824 910 l 753 951 l 753 1143 l 939 1143 l 939 997 q 914 872 939 922 q 840 799 889 822 q 717 775 790 775 m 371 -260 l 371 -83 l 531 -83 l 531 -260 l 371 -260 z "},"Ờ":{"ha":901,"x_min":49,"x_max":939,"o":"m 451 -17 q 229 35 318 -17 q 94 197 140 88 q 49 478 49 306 q 94 759 49 650 q 229 920 140 868 q 451 972 318 972 q 673 920 583 972 q 808 759 763 868 q 853 478 853 650 q 808 197 853 306 q 673 35 763 88 q 451 -17 583 -17 m 451 206 q 511 219 488 206 q 549 258 535 232 q 570 319 564 283 q 576 397 576 354 l 576 558 q 570 637 576 601 q 549 698 564 672 q 511 737 535 724 q 451 750 488 750 q 390 737 414 750 q 353 698 367 724 q 333 637 339 672 q 326 558 326 601 l 326 397 q 333 319 326 354 q 353 258 339 283 q 390 219 367 232 q 451 206 414 206 m 717 775 l 717 871 q 794 890 764 871 q 826 951 824 910 l 753 951 l 753 1143 l 939 1143 l 939 997 q 914 872 939 922 q 840 799 889 822 q 717 775 790 775 m 578 1044 l 418 1044 l 250 1224 l 251 1229 l 482 1229 l 578 1044 z "},"Ở":{"ha":901,"x_min":49,"x_max":939,"o":"m 451 -17 q 229 35 318 -17 q 94 197 140 88 q 49 478 49 306 q 94 759 49 650 q 229 920 140 868 q 451 972 318 972 q 673 920 583 972 q 808 759 763 868 q 853 478 853 650 q 808 197 853 306 q 673 35 763 88 q 451 -17 583 -17 m 451 206 q 511 219 488 206 q 549 258 535 232 q 570 319 564 283 q 576 397 576 354 l 576 558 q 570 637 576 601 q 549 698 564 672 q 511 737 535 724 q 451 750 488 750 q 390 737 414 750 q 353 698 367 724 q 333 637 339 672 q 326 558 326 601 l 326 397 q 333 319 326 354 q 353 258 339 283 q 390 219 367 232 q 451 206 414 206 m 717 775 l 717 871 q 794 890 764 871 q 826 951 824 910 l 753 951 l 753 1143 l 939 1143 l 939 997 q 914 872 939 922 q 840 799 889 822 q 717 775 790 775 m 411 1039 l 411 1121 l 436 1121 q 463 1126 456 1121 q 471 1146 471 1132 q 459 1165 471 1161 q 429 1168 447 1168 l 357 1168 l 357 1235 q 390 1240 372 1238 q 424 1243 407 1242 q 456 1244 442 1244 q 503 1240 479 1244 q 547 1226 528 1235 q 578 1201 567 1217 q 590 1161 590 1185 q 576 1115 590 1133 q 540 1086 563 1096 q 490 1074 517 1076 l 490 1039 l 411 1039 z "},"Ỡ":{"ha":901,"x_min":49,"x_max":939,"o":"m 451 -17 q 229 35 318 -17 q 94 197 140 88 q 49 478 49 306 q 94 759 49 650 q 229 920 140 868 q 451 972 318 972 q 673 920 583 972 q 808 759 763 868 q 853 478 853 650 q 808 197 853 306 q 673 35 763 88 q 451 -17 583 -17 m 451 206 q 511 219 488 206 q 549 258 535 232 q 570 319 564 283 q 576 397 576 354 l 576 558 q 570 637 576 601 q 549 698 564 672 q 511 737 535 724 q 451 750 488 750 q 390 737 414 750 q 353 698 367 724 q 333 637 339 672 q 326 558 326 601 l 326 397 q 333 319 326 354 q 353 258 339 283 q 390 219 367 232 q 451 206 414 206 m 717 775 l 717 871 q 794 890 764 871 q 826 951 824 910 l 753 951 l 753 1143 l 939 1143 l 939 997 q 914 872 939 922 q 840 799 889 822 q 717 775 790 775 m 207 1038 q 226 1137 207 1093 q 278 1205 244 1181 q 357 1229 313 1229 q 422 1216 390 1229 q 483 1190 454 1203 q 542 1178 513 1178 q 576 1192 563 1178 q 597 1229 590 1207 l 696 1229 q 677 1131 696 1174 q 624 1063 658 1088 q 546 1038 590 1038 q 481 1051 511 1038 q 421 1077 450 1064 q 361 1090 392 1090 q 324 1076 339 1090 q 306 1038 310 1061 l 207 1038 z "},"Ő":{"ha":901,"x_min":49,"x_max":853,"o":"m 451 -17 q 229 35 318 -17 q 94 197 140 88 q 49 478 49 306 q 94 759 49 650 q 229 920 140 868 q 451 972 318 972 q 673 920 583 972 q 808 759 763 868 q 853 478 853 650 q 808 197 853 306 q 673 35 763 88 q 451 -17 583 -17 m 451 206 q 511 219 488 206 q 549 258 535 232 q 570 319 564 283 q 576 397 576 354 l 576 558 q 570 637 576 601 q 549 698 564 672 q 511 737 535 724 q 451 750 488 750 q 390 737 414 750 q 353 698 367 724 q 333 637 339 672 q 326 558 326 601 l 326 397 q 333 319 326 354 q 353 258 339 283 q 390 219 367 232 q 451 206 414 206 m 508 1044 l 589 1229 l 792 1229 l 793 1224 l 646 1044 l 508 1044 m 256 1044 l 338 1229 l 539 1229 l 542 1224 l 394 1044 l 256 1044 z "},"Ȏ":{"ha":901,"x_min":49,"x_max":853,"o":"m 451 -17 q 229 35 318 -17 q 94 197 140 88 q 49 478 49 306 q 94 759 49 650 q 229 920 140 868 q 451 972 318 972 q 673 920 583 972 q 808 759 763 868 q 853 478 853 650 q 808 197 853 306 q 673 35 763 88 q 451 -17 583 -17 m 451 206 q 511 219 488 206 q 549 258 535 232 q 570 319 564 283 q 576 397 576 354 l 576 558 q 570 637 576 601 q 549 698 564 672 q 511 737 535 724 q 451 750 488 750 q 390 737 414 750 q 353 698 367 724 q 333 637 339 672 q 326 558 326 601 l 326 397 q 333 319 326 354 q 353 258 339 283 q 390 219 367 232 q 451 206 414 206 m 257 1028 q 278 1121 257 1075 q 342 1197 299 1167 q 454 1228 386 1228 q 566 1197 522 1228 q 630 1121 610 1167 q 650 1028 650 1075 l 536 1028 q 526 1069 535 1050 q 499 1102 517 1089 q 454 1115 482 1115 q 410 1102 428 1115 q 382 1069 392 1089 q 372 1028 372 1050 l 257 1028 z "},"Ō":{"ha":901,"x_min":49,"x_max":853,"o":"m 451 -17 q 229 35 318 -17 q 94 197 140 88 q 49 478 49 306 q 94 759 49 650 q 229 920 140 868 q 451 972 318 972 q 673 920 583 972 q 808 759 763 868 q 853 478 853 650 q 808 197 853 306 q 673 35 763 88 q 451 -17 583 -17 m 451 206 q 511 219 488 206 q 549 258 535 232 q 570 319 564 283 q 576 397 576 354 l 576 558 q 570 637 576 601 q 549 698 564 672 q 511 737 535 724 q 451 750 488 750 q 390 737 414 750 q 353 698 367 724 q 333 637 339 672 q 326 558 326 601 l 326 397 q 333 319 326 354 q 353 258 339 283 q 390 219 367 232 q 451 206 414 206 m 282 1036 l 282 1175 l 618 1175 l 618 1036 l 282 1036 z "},"Ǫ":{"ha":901,"x_min":49,"x_max":853,"o":"m 451 -17 q 229 35 318 -17 q 94 197 140 88 q 49 478 49 306 q 94 759 49 650 q 229 920 140 868 q 451 972 318 972 q 673 920 583 972 q 808 759 763 868 q 853 478 853 650 q 808 197 853 306 q 673 35 763 88 q 451 -17 583 -17 m 451 206 q 511 219 488 206 q 549 258 535 232 q 570 319 564 283 q 576 397 576 354 l 576 558 q 570 637 576 601 q 549 698 564 672 q 511 737 535 724 q 451 750 488 750 q 390 737 414 750 q 353 698 367 724 q 333 637 339 672 q 326 558 326 601 l 326 397 q 333 319 326 354 q 353 258 339 283 q 390 219 367 232 q 451 206 414 206 m 583 -293 q 512 -276 546 -292 q 457 -226 478 -260 q 436 -135 436 -192 q 456 -48 436 -83 q 499 17 475 -12 l 619 17 l 619 11 q 584 -33 596 -6 q 572 -86 572 -60 q 589 -144 572 -122 q 636 -167 606 -167 l 690 -167 l 690 -272 q 639 -288 668 -283 q 583 -293 610 -293 z "},"Ø":{"ha":901,"x_min":49,"x_max":853,"o":"m 451 -17 q 229 35 318 -17 q 94 197 140 88 q 49 478 49 306 q 94 759 49 650 q 229 920 140 868 q 451 972 318 972 q 673 920 583 972 q 808 759 763 868 q 853 478 853 650 q 808 197 853 306 q 673 35 763 88 q 451 -17 583 -17 m 451 206 q 511 219 488 206 q 549 258 535 232 q 570 319 564 283 q 576 397 576 354 l 576 558 q 570 637 576 601 q 549 698 564 672 q 511 737 535 724 q 451 750 488 750 q 390 737 414 750 q 353 698 367 724 q 333 637 339 672 q 326 558 326 601 l 326 397 q 333 319 326 354 q 353 258 339 283 q 390 219 367 232 q 451 206 414 206 m 67 -51 l 707 1006 l 835 1006 l 193 -51 l 67 -51 z "},"Ǿ":{"ha":901,"x_min":49,"x_max":853,"o":"m 451 -17 q 229 35 318 -17 q 94 197 140 88 q 49 478 49 306 q 94 759 49 650 q 229 920 140 868 q 451 972 318 972 q 673 920 583 972 q 808 759 763 868 q 853 478 853 650 q 808 197 853 306 q 673 35 763 88 q 451 -17 583 -17 m 451 206 q 511 219 488 206 q 549 258 535 232 q 570 319 564 283 q 576 397 576 354 l 576 558 q 570 637 576 601 q 549 698 564 672 q 511 737 535 724 q 451 750 488 750 q 390 737 414 750 q 353 698 367 724 q 333 637 339 672 q 326 558 326 601 l 326 397 q 333 319 326 354 q 353 258 339 283 q 390 219 367 232 q 451 206 414 206 m 67 -51 l 707 1006 l 835 1006 l 193 -51 l 67 -51 m 360 1044 l 456 1229 l 686 1229 l 689 1224 l 519 1044 l 360 1044 z "},"Õ":{"ha":901,"x_min":49,"x_max":853,"o":"m 451 -17 q 229 35 318 -17 q 94 197 140 88 q 49 478 49 306 q 94 759 49 650 q 229 920 140 868 q 451 972 318 972 q 673 920 583 972 q 808 759 763 868 q 853 478 853 650 q 808 197 853 306 q 673 35 763 88 q 451 -17 583 -17 m 451 206 q 511 219 488 206 q 549 258 535 232 q 570 319 564 283 q 576 397 576 354 l 576 558 q 570 637 576 601 q 549 698 564 672 q 511 737 535 724 q 451 750 488 750 q 390 737 414 750 q 353 698 367 724 q 333 637 339 672 q 326 558 326 601 l 326 397 q 333 319 326 354 q 353 258 339 283 q 390 219 367 232 q 451 206 414 206 m 207 1038 q 226 1137 207 1093 q 278 1205 244 1181 q 356 1229 311 1229 q 422 1216 390 1229 q 483 1190 453 1203 q 542 1178 513 1178 q 576 1192 563 1178 q 596 1229 590 1207 l 694 1229 q 676 1131 694 1174 q 624 1063 657 1088 q 546 1038 590 1038 q 481 1051 511 1038 q 421 1077 450 1064 q 360 1090 392 1090 q 324 1076 339 1090 q 306 1038 310 1061 l 207 1038 z "},"Ȭ":{"ha":901,"x_min":49,"x_max":853,"o":"m 451 -17 q 229 35 318 -17 q 94 197 140 88 q 49 478 49 306 q 94 759 49 650 q 229 920 140 868 q 451 972 318 972 q 673 920 583 972 q 808 759 763 868 q 853 478 853 650 q 808 197 853 306 q 673 35 763 88 q 451 -17 583 -17 m 451 206 q 511 219 488 206 q 549 258 535 232 q 570 319 564 283 q 576 397 576 354 l 576 558 q 570 637 576 601 q 549 698 564 672 q 511 737 535 724 q 451 750 488 750 q 390 737 414 750 q 353 698 367 724 q 333 637 339 672 q 326 558 326 601 l 326 397 q 333 319 326 354 q 353 258 339 283 q 390 219 367 232 q 451 206 414 206 m 207 1038 q 226 1137 207 1093 q 278 1205 244 1181 q 356 1229 311 1229 q 422 1216 390 1229 q 483 1190 453 1203 q 542 1178 513 1178 q 576 1192 563 1178 q 596 1229 590 1207 l 694 1229 q 676 1131 694 1174 q 624 1063 657 1088 q 546 1038 590 1038 q 481 1051 511 1038 q 421 1077 450 1064 q 360 1090 392 1090 q 324 1076 339 1090 q 306 1038 310 1061 l 207 1038 m 282 1289 l 282 1428 l 618 1428 l 618 1289 l 282 1289 z "},"Œ":{"ha":1268,"x_min":49,"x_max":1228,"o":"m 376 -17 q 191 35 264 -17 q 83 197 118 88 q 49 478 49 306 q 83 759 49 650 q 191 920 118 868 q 376 972 264 972 q 488 954 439 972 q 576 899 538 936 l 576 956 l 1219 956 l 1219 733 l 849 733 l 849 594 l 1161 594 l 1161 375 l 849 375 l 849 222 l 1228 222 l 1228 0 l 576 0 l 576 56 q 488 1 538 19 q 376 -17 439 -17 m 451 206 q 511 219 488 206 q 549 258 535 232 q 570 319 564 283 q 576 397 576 354 l 576 558 q 570 637 576 601 q 549 698 564 672 q 511 737 535 724 q 451 750 488 750 q 390 737 414 750 q 353 698 367 724 q 333 637 339 672 q 326 558 326 601 l 326 397 q 333 319 326 354 q 353 258 339 283 q 390 219 367 232 q 451 206 414 206 z "},"P":{"ha":786,"x_min":72,"x_max":771,"o":"m 72 0 l 72 956 l 503 956 q 653 915 593 956 q 742 803 713 875 q 771 635 771 731 q 740 460 771 535 q 649 343 710 385 q 500 301 589 301 l 344 301 l 344 0 l 72 0 m 344 514 l 431 514 q 482 546 467 514 q 497 628 497 578 q 491 688 497 663 q 470 726 485 713 q 431 740 456 740 l 344 740 l 344 514 z "},"Þ":{"ha":782,"x_min":72,"x_max":757,"o":"m 72 0 l 72 956 l 344 956 l 344 808 l 489 808 q 639 769 579 808 q 728 656 699 729 q 757 488 757 583 q 726 313 757 388 q 635 196 696 238 q 486 154 575 154 l 344 154 l 344 0 l 72 0 m 344 367 l 417 367 q 467 399 453 367 q 482 481 482 431 q 476 540 482 515 q 456 579 471 565 q 417 593 442 593 l 344 593 l 344 367 z "},"Q":{"ha":901,"x_min":49,"x_max":853,"o":"m 563 -182 l 449 -15 q 442 -15 446 -15 q 436 -15 439 -15 q 223 37 308 -15 q 93 199 138 89 q 49 478 49 308 q 94 759 49 650 q 229 920 140 868 q 451 972 318 972 q 673 920 583 972 q 808 759 763 868 q 853 478 853 650 q 812 209 853 315 q 689 47 771 103 l 853 -182 l 563 -182 m 451 206 q 511 219 488 206 q 549 258 535 232 q 570 319 564 283 q 576 397 576 354 l 576 558 q 570 637 576 601 q 549 698 564 672 q 511 737 535 724 q 451 750 488 750 q 390 737 414 750 q 353 698 367 724 q 333 637 339 672 q 326 558 326 601 l 326 397 q 333 319 326 354 q 353 258 339 283 q 390 219 367 232 q 451 206 414 206 z "},"R":{"ha":835,"x_min":72,"x_max":824,"o":"m 72 0 l 72 956 l 504 956 q 675 915 611 956 q 767 808 739 875 q 796 658 796 740 q 771 510 796 578 q 689 394 746 442 l 824 0 l 532 0 l 439 321 l 344 321 l 344 0 l 72 0 m 344 526 l 456 526 q 506 559 490 526 q 521 638 521 592 q 514 692 521 668 q 493 730 507 715 q 456 744 479 744 l 344 744 l 344 526 z "},"Ŕ":{"ha":835,"x_min":72,"x_max":824,"o":"m 72 0 l 72 956 l 504 956 q 675 915 611 956 q 767 808 739 875 q 796 658 796 740 q 771 510 796 578 q 689 394 746 442 l 824 0 l 532 0 l 439 321 l 344 321 l 344 0 l 72 0 m 344 526 l 456 526 q 506 559 490 526 q 521 638 521 592 q 514 692 521 668 q 493 730 507 715 q 456 744 479 744 l 344 744 l 344 526 m 290 1044 l 388 1229 l 618 1229 l 619 1224 l 450 1044 l 290 1044 z "},"Ř":{"ha":835,"x_min":72,"x_max":824,"o":"m 72 0 l 72 956 l 504 956 q 675 915 611 956 q 767 808 739 875 q 796 658 796 740 q 771 510 796 578 q 689 394 746 442 l 824 0 l 532 0 l 439 321 l 344 321 l 344 0 l 72 0 m 344 526 l 456 526 q 506 559 490 526 q 521 638 521 592 q 514 692 521 668 q 493 730 507 715 q 456 744 479 744 l 344 744 l 344 526 m 138 1229 l 303 1229 l 411 1104 l 351 1104 l 461 1229 l 624 1229 l 479 1044 l 283 1044 l 138 1229 z "},"Ŗ":{"ha":835,"x_min":72,"x_max":824,"o":"m 72 0 l 72 956 l 504 956 q 675 915 611 956 q 767 808 739 875 q 796 658 796 740 q 771 510 796 578 q 689 394 746 442 l 824 0 l 532 0 l 439 321 l 344 321 l 344 0 l 72 0 m 344 526 l 456 526 q 506 559 490 526 q 521 638 521 592 q 514 692 521 668 q 493 730 507 715 q 456 744 479 744 l 344 744 l 344 526 m 350 -440 l 350 -358 q 406 -336 390 -358 q 421 -254 421 -314 l 350 -254 l 350 -76 l 511 -76 l 511 -231 q 497 -356 511 -310 q 447 -422 482 -403 q 350 -440 411 -440 z "},"Ȑ":{"ha":835,"x_min":67,"x_max":824,"o":"m 72 0 l 72 956 l 504 956 q 675 915 611 956 q 767 808 739 875 q 796 658 796 740 q 771 510 796 578 q 689 394 746 442 l 824 0 l 532 0 l 439 321 l 344 321 l 344 0 l 72 0 m 344 526 l 456 526 q 506 559 490 526 q 521 638 521 592 q 514 692 521 668 q 493 730 507 715 q 456 744 479 744 l 344 744 l 344 526 m 467 1044 l 319 1224 l 319 1229 l 524 1229 l 604 1044 l 467 1044 m 214 1044 l 67 1224 l 68 1229 l 271 1229 l 353 1044 l 214 1044 z "},"Ȓ":{"ha":835,"x_min":72,"x_max":824,"o":"m 72 0 l 72 956 l 504 956 q 675 915 611 956 q 767 808 739 875 q 796 658 796 740 q 771 510 796 578 q 689 394 746 442 l 824 0 l 532 0 l 439 321 l 344 321 l 344 0 l 72 0 m 344 526 l 456 526 q 506 559 490 526 q 521 638 521 592 q 514 692 521 668 q 493 730 507 715 q 456 744 479 744 l 344 744 l 344 526 m 188 1028 q 208 1121 188 1075 q 273 1197 229 1167 q 385 1228 317 1228 q 497 1197 453 1228 q 560 1121 540 1167 q 581 1028 581 1075 l 467 1028 q 456 1069 465 1050 q 430 1102 447 1089 q 385 1115 413 1115 q 340 1102 358 1115 q 313 1069 322 1089 q 303 1028 304 1050 l 188 1028 z "},"S":{"ha":772,"x_min":43,"x_max":740,"o":"m 403 -17 q 263 -3 328 -17 q 149 43 199 10 q 72 137 100 76 q 43 290 43 197 q 43 302 43 293 q 44 317 43 311 l 303 317 q 303 303 303 310 q 303 290 303 296 q 314 233 303 253 q 344 207 325 214 q 388 200 364 200 q 411 202 400 200 q 432 209 422 204 q 449 222 442 214 q 460 241 456 229 q 464 267 464 253 q 447 310 464 293 q 400 340 429 328 q 335 365 371 353 q 260 392 299 378 q 185 428 221 407 q 119 481 149 449 q 73 560 90 514 q 56 669 56 606 q 83 810 56 753 q 159 904 111 868 q 267 957 207 940 q 394 974 328 974 q 520 958 461 974 q 624 910 579 943 q 694 825 668 878 q 719 697 719 772 l 719 665 l 464 665 l 464 678 q 458 719 464 701 q 439 748 453 738 q 399 758 425 758 q 361 751 376 758 q 339 731 346 743 q 332 701 332 718 q 349 654 332 674 q 396 621 367 635 q 461 595 425 607 q 536 569 497 583 q 611 535 575 556 q 677 484 647 515 q 724 409 707 453 q 740 303 740 365 q 699 124 740 194 q 581 18 657 53 q 403 -17 506 -17 z "},"Ś":{"ha":772,"x_min":43,"x_max":740,"o":"m 403 -17 q 263 -3 328 -17 q 149 43 199 10 q 72 137 100 76 q 43 290 43 197 q 43 302 43 293 q 44 317 43 311 l 303 317 q 303 303 303 310 q 303 290 303 296 q 314 233 303 253 q 344 207 325 214 q 388 200 364 200 q 411 202 400 200 q 432 209 422 204 q 449 222 442 214 q 460 241 456 229 q 464 267 464 253 q 447 310 464 293 q 400 340 429 328 q 335 365 371 353 q 260 392 299 378 q 185 428 221 407 q 119 481 149 449 q 73 560 90 514 q 56 669 56 606 q 83 810 56 753 q 159 904 111 868 q 267 957 207 940 q 394 974 328 974 q 520 958 461 974 q 624 910 579 943 q 694 825 668 878 q 719 697 719 772 l 719 665 l 464 665 l 464 678 q 458 719 464 701 q 439 748 453 738 q 399 758 425 758 q 361 751 376 758 q 339 731 346 743 q 332 701 332 718 q 349 654 332 674 q 396 621 367 635 q 461 595 425 607 q 536 569 497 583 q 611 535 575 556 q 677 484 647 515 q 724 409 707 453 q 740 303 740 365 q 699 124 740 194 q 581 18 657 53 q 403 -17 506 -17 m 306 1044 l 403 1229 l 633 1229 l 635 1224 l 465 1044 l 306 1044 z "},"Š":{"ha":772,"x_min":43,"x_max":740,"o":"m 403 -17 q 263 -3 328 -17 q 149 43 199 10 q 72 137 100 76 q 43 290 43 197 q 43 302 43 293 q 44 317 43 311 l 303 317 q 303 303 303 310 q 303 290 303 296 q 314 233 303 253 q 344 207 325 214 q 388 200 364 200 q 411 202 400 200 q 432 209 422 204 q 449 222 442 214 q 460 241 456 229 q 464 267 464 253 q 447 310 464 293 q 400 340 429 328 q 335 365 371 353 q 260 392 299 378 q 185 428 221 407 q 119 481 149 449 q 73 560 90 514 q 56 669 56 606 q 83 810 56 753 q 159 904 111 868 q 267 957 207 940 q 394 974 328 974 q 520 958 461 974 q 624 910 579 943 q 694 825 668 878 q 719 697 719 772 l 719 665 l 464 665 l 464 678 q 458 719 464 701 q 439 748 453 738 q 399 758 425 758 q 361 751 376 758 q 339 731 346 743 q 332 701 332 718 q 349 654 332 674 q 396 621 367 635 q 461 595 425 607 q 536 569 497 583 q 611 535 575 556 q 677 484 647 515 q 724 409 707 453 q 740 303 740 365 q 699 124 740 194 q 581 18 657 53 q 403 -17 506 -17 m 154 1229 l 318 1229 l 428 1104 l 367 1104 l 476 1229 l 640 1229 l 494 1044 l 299 1044 l 154 1229 z "},"Ş":{"ha":772,"x_min":43,"x_max":740,"o":"m 403 -17 q 263 -3 328 -17 q 149 43 199 10 q 72 137 100 76 q 43 290 43 197 q 43 302 43 293 q 44 317 43 311 l 303 317 q 303 303 303 310 q 303 290 303 296 q 314 233 303 253 q 344 207 325 214 q 388 200 364 200 q 411 202 400 200 q 432 209 422 204 q 449 222 442 214 q 460 241 456 229 q 464 267 464 253 q 447 310 464 293 q 400 340 429 328 q 335 365 371 353 q 260 392 299 378 q 185 428 221 407 q 119 481 149 449 q 73 560 90 514 q 56 669 56 606 q 83 810 56 753 q 159 904 111 868 q 267 957 207 940 q 394 974 328 974 q 520 958 461 974 q 624 910 579 943 q 694 825 668 878 q 719 697 719 772 l 719 665 l 464 665 l 464 678 q 458 719 464 701 q 439 748 453 738 q 399 758 425 758 q 361 751 376 758 q 339 731 346 743 q 332 701 332 718 q 349 654 332 674 q 396 621 367 635 q 461 595 425 607 q 536 569 497 583 q 611 535 575 556 q 677 484 647 515 q 724 409 707 453 q 740 303 740 365 q 699 124 740 194 q 581 18 657 53 q 403 -17 506 -17 m 400 -293 q 320 -287 363 -293 q 253 -271 278 -281 l 253 -192 l 360 -192 q 398 -187 383 -192 q 413 -161 413 -182 q 402 -134 413 -140 q 363 -128 392 -128 l 326 -128 l 350 54 l 464 54 l 453 -39 q 490 -53 468 -42 q 528 -90 513 -65 q 543 -160 543 -114 q 528 -226 543 -200 q 492 -267 514 -253 q 445 -287 469 -282 q 400 -293 421 -293 z "},"Ŝ":{"ha":772,"x_min":43,"x_max":740,"o":"m 403 -17 q 263 -3 328 -17 q 149 43 199 10 q 72 137 100 76 q 43 290 43 197 q 43 302 43 293 q 44 317 43 311 l 303 317 q 303 303 303 310 q 303 290 303 296 q 314 233 303 253 q 344 207 325 214 q 388 200 364 200 q 411 202 400 200 q 432 209 422 204 q 449 222 442 214 q 460 241 456 229 q 464 267 464 253 q 447 310 464 293 q 400 340 429 328 q 335 365 371 353 q 260 392 299 378 q 185 428 221 407 q 119 481 149 449 q 73 560 90 514 q 56 669 56 606 q 83 810 56 753 q 159 904 111 868 q 267 957 207 940 q 394 974 328 974 q 520 958 461 974 q 624 910 579 943 q 694 825 668 878 q 719 697 719 772 l 719 665 l 464 665 l 464 678 q 458 719 464 701 q 439 748 453 738 q 399 758 425 758 q 361 751 376 758 q 339 731 346 743 q 332 701 332 718 q 349 654 332 674 q 396 621 367 635 q 461 595 425 607 q 536 569 497 583 q 611 535 575 556 q 677 484 647 515 q 724 409 707 453 q 740 303 740 365 q 699 124 740 194 q 581 18 657 53 q 403 -17 506 -17 m 154 1044 l 299 1229 l 494 1229 l 640 1044 l 476 1044 l 367 1169 l 428 1169 l 318 1044 l 154 1044 z "},"Ș":{"ha":772,"x_min":43,"x_max":740,"o":"m 403 -17 q 263 -3 328 -17 q 149 43 199 10 q 72 137 100 76 q 43 290 43 197 q 43 302 43 293 q 44 317 43 311 l 303 317 q 303 303 303 310 q 303 290 303 296 q 314 233 303 253 q 344 207 325 214 q 388 200 364 200 q 411 202 400 200 q 432 209 422 204 q 449 222 442 214 q 460 241 456 229 q 464 267 464 253 q 447 310 464 293 q 400 340 429 328 q 335 365 371 353 q 260 392 299 378 q 185 428 221 407 q 119 481 149 449 q 73 560 90 514 q 56 669 56 606 q 83 810 56 753 q 159 904 111 868 q 267 957 207 940 q 394 974 328 974 q 520 958 461 974 q 624 910 579 943 q 694 825 668 878 q 719 697 719 772 l 719 665 l 464 665 l 464 678 q 458 719 464 701 q 439 748 453 738 q 399 758 425 758 q 361 751 376 758 q 339 731 346 743 q 332 701 332 718 q 349 654 332 674 q 396 621 367 635 q 461 595 425 607 q 536 569 497 583 q 611 535 575 556 q 677 484 647 515 q 724 409 707 453 q 740 303 740 365 q 699 124 740 194 q 581 18 657 53 q 403 -17 506 -17 m 304 -440 l 304 -358 q 360 -336 344 -358 q 375 -254 375 -314 l 304 -254 l 304 -76 l 465 -76 l 465 -231 q 451 -356 465 -310 q 401 -422 436 -403 q 304 -440 365 -440 z "},"Ṣ":{"ha":772,"x_min":43,"x_max":740,"o":"m 403 -17 q 263 -3 328 -17 q 149 43 199 10 q 72 137 100 76 q 43 290 43 197 q 43 302 43 293 q 44 317 43 311 l 303 317 q 303 303 303 310 q 303 290 303 296 q 314 233 303 253 q 344 207 325 214 q 388 200 364 200 q 411 202 400 200 q 432 209 422 204 q 449 222 442 214 q 460 241 456 229 q 464 267 464 253 q 447 310 464 293 q 400 340 429 328 q 335 365 371 353 q 260 392 299 378 q 185 428 221 407 q 119 481 149 449 q 73 560 90 514 q 56 669 56 606 q 83 810 56 753 q 159 904 111 868 q 267 957 207 940 q 394 974 328 974 q 520 958 461 974 q 624 910 579 943 q 694 825 668 878 q 719 697 719 772 l 719 665 l 464 665 l 464 678 q 458 719 464 701 q 439 748 453 738 q 399 758 425 758 q 361 751 376 758 q 339 731 346 743 q 332 701 332 718 q 349 654 332 674 q 396 621 367 635 q 461 595 425 607 q 536 569 497 583 q 611 535 575 556 q 677 484 647 515 q 724 409 707 453 q 740 303 740 365 q 699 124 740 194 q 581 18 657 53 q 403 -17 506 -17 m 304 -260 l 304 -83 l 465 -83 l 465 -260 l 304 -260 z "},"ẞ":{"ha":899,"x_min":67,"x_max":871,"o":"m 67 0 l 67 585 q 112 790 67 703 q 250 924 157 876 q 488 972 343 972 q 619 957 556 972 q 733 910 683 942 q 812 827 782 878 q 842 703 842 776 q 824 603 842 644 q 779 535 806 563 q 728 492 753 508 l 728 479 q 833 403 796 458 q 871 263 871 347 q 839 128 871 188 q 749 35 807 69 q 607 0 690 0 l 396 0 l 396 222 l 513 222 q 560 230 542 222 q 588 253 579 238 q 597 293 597 268 q 588 337 597 321 q 560 360 579 353 q 513 367 542 367 l 396 367 l 396 565 l 486 565 q 548 593 526 565 q 569 661 569 621 q 542 738 569 714 q 461 761 515 761 q 383 740 410 761 q 346 678 356 719 q 336 575 336 636 l 336 0 l 67 0 z "},"Ə":{"ha":901,"x_min":49,"x_max":853,"o":"m 450 -17 q 278 13 353 -17 q 152 103 203 43 q 75 258 101 164 q 49 478 49 351 l 49 539 l 575 539 q 564 672 575 624 q 525 740 553 719 q 447 761 497 761 q 394 753 417 761 q 356 728 371 744 q 334 685 342 711 q 325 622 326 658 l 53 622 q 85 779 56 713 q 169 888 115 846 q 293 951 222 931 q 450 972 364 972 q 673 920 583 972 q 808 759 763 868 q 853 478 853 650 q 808 197 853 306 q 673 35 763 88 q 450 -17 583 -17 m 450 206 q 520 226 493 206 q 560 283 547 246 q 574 371 574 321 l 328 371 q 334 301 328 332 q 356 249 340 271 q 394 217 371 228 q 450 206 417 206 z "},"T":{"ha":776,"x_min":25,"x_max":750,"o":"m 253 0 l 253 728 l 25 728 l 25 956 l 750 956 l 750 728 l 525 728 l 525 0 l 253 0 z "},"Ŧ":{"ha":776,"x_min":25,"x_max":750,"o":"m 253 0 l 253 728 l 25 728 l 25 956 l 750 956 l 750 728 l 525 728 l 525 0 l 253 0 m 151 358 l 151 514 l 629 514 l 629 358 l 151 358 z "},"Ť":{"ha":776,"x_min":25,"x_max":750,"o":"m 253 0 l 253 728 l 25 728 l 25 956 l 750 956 l 750 728 l 525 728 l 525 0 l 253 0 m 147 1229 l 311 1229 l 421 1104 l 360 1104 l 469 1229 l 633 1229 l 488 1044 l 292 1044 l 147 1229 z "},"Ţ":{"ha":776,"x_min":25,"x_max":750,"o":"m 253 0 l 253 728 l 25 728 l 25 956 l 750 956 l 750 728 l 525 728 l 525 0 l 253 0 m 406 -293 q 326 -287 368 -293 q 258 -271 283 -281 l 258 -192 l 365 -192 q 403 -187 389 -192 q 418 -161 418 -182 q 408 -134 418 -140 q 368 -128 397 -128 l 332 -128 l 356 54 l 469 54 l 458 -39 q 496 -53 474 -42 q 533 -90 518 -65 q 549 -160 549 -114 q 534 -226 549 -200 q 497 -267 519 -253 q 451 -287 475 -282 q 406 -293 426 -293 z "},"Ț":{"ha":776,"x_min":25,"x_max":750,"o":"m 253 0 l 253 728 l 25 728 l 25 956 l 750 956 l 750 728 l 525 728 l 525 0 l 253 0 m 310 -440 l 310 -358 q 365 -336 350 -358 q 381 -254 381 -314 l 310 -254 l 310 -76 l 471 -76 l 471 -231 q 456 -356 471 -310 q 406 -422 442 -403 q 310 -440 371 -440 z "},"Ṭ":{"ha":776,"x_min":25,"x_max":750,"o":"m 253 0 l 253 728 l 25 728 l 25 956 l 750 956 l 750 728 l 525 728 l 525 0 l 253 0 m 310 -260 l 310 -83 l 471 -83 l 471 -260 l 310 -260 z "},"U":{"ha":856,"x_min":67,"x_max":789,"o":"m 428 -17 q 235 19 315 -17 q 110 135 154 56 q 67 342 67 214 l 67 956 l 339 956 l 339 335 q 358 240 339 276 q 426 204 376 204 q 497 240 476 204 q 517 335 517 276 l 517 956 l 789 956 l 789 342 q 746 135 789 214 q 622 19 703 56 q 428 -17 542 -17 z "},"Ú":{"ha":856,"x_min":67,"x_max":789,"o":"m 428 -17 q 235 19 315 -17 q 110 135 154 56 q 67 342 67 214 l 67 956 l 339 956 l 339 335 q 358 240 339 276 q 426 204 376 204 q 497 240 476 204 q 517 335 517 276 l 517 956 l 789 956 l 789 342 q 746 135 789 214 q 622 19 703 56 q 428 -17 542 -17 m 338 1044 l 435 1229 l 665 1229 l 667 1224 l 497 1044 l 338 1044 z "},"Ŭ":{"ha":856,"x_min":67,"x_max":789,"o":"m 428 -17 q 235 19 315 -17 q 110 135 154 56 q 67 342 67 214 l 67 956 l 339 956 l 339 335 q 358 240 339 276 q 426 204 376 204 q 497 240 476 204 q 517 335 517 276 l 517 956 l 789 956 l 789 342 q 746 135 789 214 q 622 19 703 56 q 428 -17 542 -17 m 426 1029 q 315 1060 357 1029 q 253 1137 272 1090 q 233 1229 233 1183 l 339 1229 q 353 1194 342 1211 q 385 1167 365 1178 q 428 1157 404 1157 q 476 1169 457 1157 q 506 1198 494 1181 q 519 1229 518 1215 l 625 1229 q 603 1137 625 1183 q 538 1060 582 1090 q 426 1029 494 1029 z "},"Ǔ":{"ha":856,"x_min":67,"x_max":789,"o":"m 428 -17 q 235 19 315 -17 q 110 135 154 56 q 67 342 67 214 l 67 956 l 339 956 l 339 335 q 358 240 339 276 q 426 204 376 204 q 497 240 476 204 q 517 335 517 276 l 517 956 l 789 956 l 789 342 q 746 135 789 214 q 622 19 703 56 q 428 -17 542 -17 m 185 1229 l 350 1229 l 460 1104 l 399 1104 l 508 1229 l 671 1229 l 526 1044 l 331 1044 l 185 1229 z "},"Û":{"ha":856,"x_min":67,"x_max":789,"o":"m 428 -17 q 235 19 315 -17 q 110 135 154 56 q 67 342 67 214 l 67 956 l 339 956 l 339 335 q 358 240 339 276 q 426 204 376 204 q 497 240 476 204 q 517 335 517 276 l 517 956 l 789 956 l 789 342 q 746 135 789 214 q 622 19 703 56 q 428 -17 542 -17 m 185 1044 l 331 1229 l 526 1229 l 671 1044 l 508 1044 l 399 1169 l 460 1169 l 350 1044 l 185 1044 z "},"Ȕ":{"ha":856,"x_min":67,"x_max":789,"o":"m 428 -17 q 235 19 315 -17 q 110 135 154 56 q 67 342 67 214 l 67 956 l 339 956 l 339 335 q 358 240 339 276 q 426 204 376 204 q 497 240 476 204 q 517 335 517 276 l 517 956 l 789 956 l 789 342 q 746 135 789 214 q 622 19 703 56 q 428 -17 542 -17 m 514 1044 l 367 1224 l 368 1229 l 571 1229 l 651 1044 l 514 1044 m 261 1044 l 114 1224 l 117 1229 l 318 1229 l 400 1044 l 261 1044 z "},"Ü":{"ha":856,"x_min":67,"x_max":789,"o":"m 428 -17 q 235 19 315 -17 q 110 135 154 56 q 67 342 67 214 l 67 956 l 339 956 l 339 335 q 358 240 339 276 q 426 204 376 204 q 497 240 476 204 q 517 335 517 276 l 517 956 l 789 956 l 789 342 q 746 135 789 214 q 622 19 703 56 q 428 -17 542 -17 m 232 1036 l 232 1229 l 393 1229 l 393 1036 l 232 1036 m 465 1036 l 465 1229 l 626 1229 l 626 1036 l 465 1036 z "},"Ǘ":{"ha":856,"x_min":67,"x_max":789,"o":"m 428 -17 q 235 19 315 -17 q 110 135 154 56 q 67 342 67 214 l 67 956 l 339 956 l 339 335 q 358 240 339 276 q 426 204 376 204 q 497 240 476 204 q 517 335 517 276 l 517 956 l 789 956 l 789 342 q 746 135 789 214 q 622 19 703 56 q 428 -17 542 -17 m 232 1036 l 232 1229 l 393 1229 l 393 1036 l 232 1036 m 465 1036 l 465 1229 l 626 1229 l 626 1036 l 465 1036 m 338 1297 l 435 1482 l 665 1482 l 667 1476 l 497 1297 l 338 1297 z "},"Ǚ":{"ha":856,"x_min":67,"x_max":789,"o":"m 428 -17 q 235 19 315 -17 q 110 135 154 56 q 67 342 67 214 l 67 956 l 339 956 l 339 335 q 358 240 339 276 q 426 204 376 204 q 497 240 476 204 q 517 335 517 276 l 517 956 l 789 956 l 789 342 q 746 135 789 214 q 622 19 703 56 q 428 -17 542 -17 m 232 1036 l 232 1229 l 393 1229 l 393 1036 l 232 1036 m 465 1036 l 465 1229 l 626 1229 l 626 1036 l 465 1036 m 185 1482 l 350 1482 l 460 1357 l 399 1357 l 508 1482 l 671 1482 l 526 1297 l 331 1297 l 185 1482 z "},"Ǜ":{"ha":856,"x_min":67,"x_max":789,"o":"m 428 -17 q 235 19 315 -17 q 110 135 154 56 q 67 342 67 214 l 67 956 l 339 956 l 339 335 q 358 240 339 276 q 426 204 376 204 q 497 240 476 204 q 517 335 517 276 l 517 956 l 789 956 l 789 342 q 746 135 789 214 q 622 19 703 56 q 428 -17 542 -17 m 232 1036 l 232 1229 l 393 1229 l 393 1036 l 232 1036 m 465 1036 l 465 1229 l 626 1229 l 626 1036 l 465 1036 m 556 1297 l 396 1297 l 228 1476 l 229 1482 l 460 1482 l 556 1297 z "},"Ǖ":{"ha":856,"x_min":67,"x_max":789,"o":"m 428 -17 q 235 19 315 -17 q 110 135 154 56 q 67 342 67 214 l 67 956 l 339 956 l 339 335 q 358 240 339 276 q 426 204 376 204 q 497 240 476 204 q 517 335 517 276 l 517 956 l 789 956 l 789 342 q 746 135 789 214 q 622 19 703 56 q 428 -17 542 -17 m 232 1036 l 232 1229 l 393 1229 l 393 1036 l 232 1036 m 465 1036 l 465 1229 l 626 1229 l 626 1036 l 465 1036 m 260 1289 l 260 1428 l 596 1428 l 596 1289 l 260 1289 z "},"Ụ":{"ha":856,"x_min":67,"x_max":789,"o":"m 428 -17 q 235 19 315 -17 q 110 135 154 56 q 67 342 67 214 l 67 956 l 339 956 l 339 335 q 358 240 339 276 q 426 204 376 204 q 497 240 476 204 q 517 335 517 276 l 517 956 l 789 956 l 789 342 q 746 135 789 214 q 622 19 703 56 q 428 -17 542 -17 m 347 -260 l 347 -83 l 508 -83 l 508 -260 l 347 -260 z "},"Ù":{"ha":856,"x_min":67,"x_max":789,"o":"m 428 -17 q 235 19 315 -17 q 110 135 154 56 q 67 342 67 214 l 67 956 l 339 956 l 339 335 q 358 240 339 276 q 426 204 376 204 q 497 240 476 204 q 517 335 517 276 l 517 956 l 789 956 l 789 342 q 746 135 789 214 q 622 19 703 56 q 428 -17 542 -17 m 556 1044 l 396 1044 l 228 1224 l 229 1229 l 460 1229 l 556 1044 z "},"Ủ":{"ha":856,"x_min":67,"x_max":789,"o":"m 428 -17 q 235 19 315 -17 q 110 135 154 56 q 67 342 67 214 l 67 956 l 339 956 l 339 335 q 358 240 339 276 q 426 204 376 204 q 497 240 476 204 q 517 335 517 276 l 517 956 l 789 956 l 789 342 q 746 135 789 214 q 622 19 703 56 q 428 -17 542 -17 m 389 1039 l 389 1121 l 414 1121 q 441 1126 433 1121 q 449 1146 449 1132 q 437 1165 449 1161 q 407 1168 425 1168 l 333 1168 l 333 1235 q 367 1240 350 1238 q 402 1243 385 1242 q 433 1244 419 1244 q 481 1240 457 1244 q 525 1226 506 1235 q 556 1201 544 1217 q 567 1161 567 1185 q 553 1115 567 1133 q 517 1086 539 1096 q 468 1074 494 1076 l 468 1039 l 389 1039 z "},"Ư":{"ha":856,"x_min":67,"x_max":922,"o":"m 428 -17 q 235 19 315 -17 q 110 135 154 56 q 67 342 67 214 l 67 956 l 339 956 l 339 335 q 358 240 339 276 q 426 204 376 204 q 497 240 476 204 q 517 335 517 276 l 517 956 l 789 956 l 789 342 q 746 135 789 214 q 622 19 703 56 q 428 -17 542 -17 m 699 860 l 699 956 q 776 975 747 956 q 810 1036 806 994 l 736 1036 l 736 1228 l 922 1228 l 922 1082 q 897 957 922 1007 q 822 883 872 907 q 699 860 772 860 z "},"Ứ":{"ha":856,"x_min":67,"x_max":922,"o":"m 428 -17 q 235 19 315 -17 q 110 135 154 56 q 67 342 67 214 l 67 956 l 339 956 l 339 335 q 358 240 339 276 q 426 204 376 204 q 497 240 476 204 q 517 335 517 276 l 517 956 l 789 956 l 789 342 q 746 135 789 214 q 622 19 703 56 q 428 -17 542 -17 m 699 860 l 699 956 q 776 975 747 956 q 810 1036 806 994 l 736 1036 l 736 1228 l 922 1228 l 922 1082 q 897 957 922 1007 q 822 883 872 907 q 699 860 772 860 m 338 1044 l 435 1229 l 665 1229 l 667 1224 l 497 1044 l 338 1044 z "},"Ự":{"ha":856,"x_min":67,"x_max":922,"o":"m 428 -17 q 235 19 315 -17 q 110 135 154 56 q 67 342 67 214 l 67 956 l 339 956 l 339 335 q 358 240 339 276 q 426 204 376 204 q 497 240 476 204 q 517 335 517 276 l 517 956 l 789 956 l 789 342 q 746 135 789 214 q 622 19 703 56 q 428 -17 542 -17 m 699 860 l 699 956 q 776 975 747 956 q 810 1036 806 994 l 736 1036 l 736 1228 l 922 1228 l 922 1082 q 897 957 922 1007 q 822 883 872 907 q 699 860 772 860 m 347 -260 l 347 -83 l 508 -83 l 508 -260 l 347 -260 z "},"Ừ":{"ha":856,"x_min":67,"x_max":922,"o":"m 428 -17 q 235 19 315 -17 q 110 135 154 56 q 67 342 67 214 l 67 956 l 339 956 l 339 335 q 358 240 339 276 q 426 204 376 204 q 497 240 476 204 q 517 335 517 276 l 517 956 l 789 956 l 789 342 q 746 135 789 214 q 622 19 703 56 q 428 -17 542 -17 m 699 860 l 699 956 q 776 975 747 956 q 810 1036 806 994 l 736 1036 l 736 1228 l 922 1228 l 922 1082 q 897 957 922 1007 q 822 883 872 907 q 699 860 772 860 m 556 1044 l 396 1044 l 228 1224 l 229 1229 l 460 1229 l 556 1044 z "},"Ử":{"ha":856,"x_min":67,"x_max":922,"o":"m 428 -17 q 235 19 315 -17 q 110 135 154 56 q 67 342 67 214 l 67 956 l 339 956 l 339 335 q 358 240 339 276 q 426 204 376 204 q 497 240 476 204 q 517 335 517 276 l 517 956 l 789 956 l 789 342 q 746 135 789 214 q 622 19 703 56 q 428 -17 542 -17 m 699 860 l 699 956 q 776 975 747 956 q 810 1036 806 994 l 736 1036 l 736 1228 l 922 1228 l 922 1082 q 897 957 922 1007 q 822 883 872 907 q 699 860 772 860 m 389 1039 l 389 1121 l 414 1121 q 441 1126 433 1121 q 449 1146 449 1132 q 437 1165 449 1161 q 407 1168 425 1168 l 333 1168 l 333 1235 q 367 1240 350 1238 q 402 1243 385 1242 q 433 1244 419 1244 q 481 1240 457 1244 q 525 1226 506 1235 q 556 1201 544 1217 q 567 1161 567 1185 q 553 1115 567 1133 q 517 1086 539 1096 q 468 1074 494 1076 l 468 1039 l 389 1039 z "},"Ữ":{"ha":856,"x_min":67,"x_max":922,"o":"m 428 -17 q 235 19 315 -17 q 110 135 154 56 q 67 342 67 214 l 67 956 l 339 956 l 339 335 q 358 240 339 276 q 426 204 376 204 q 497 240 476 204 q 517 335 517 276 l 517 956 l 789 956 l 789 342 q 746 135 789 214 q 622 19 703 56 q 428 -17 542 -17 m 699 860 l 699 956 q 776 975 747 956 q 810 1036 806 994 l 736 1036 l 736 1228 l 922 1228 l 922 1082 q 897 957 922 1007 q 822 883 872 907 q 699 860 772 860 m 185 1038 q 203 1137 185 1093 q 256 1205 222 1181 q 335 1229 289 1229 q 400 1216 368 1229 q 461 1190 432 1203 q 519 1178 490 1178 q 554 1192 540 1178 q 575 1229 568 1207 l 674 1229 q 655 1131 674 1174 q 602 1063 636 1088 q 524 1038 568 1038 q 458 1051 489 1038 q 399 1077 428 1064 q 338 1090 369 1090 q 302 1076 317 1090 q 283 1038 288 1061 l 185 1038 z "},"Ű":{"ha":856,"x_min":67,"x_max":789,"o":"m 428 -17 q 235 19 315 -17 q 110 135 154 56 q 67 342 67 214 l 67 956 l 339 956 l 339 335 q 358 240 339 276 q 426 204 376 204 q 497 240 476 204 q 517 335 517 276 l 517 956 l 789 956 l 789 342 q 746 135 789 214 q 622 19 703 56 q 428 -17 542 -17 m 486 1044 l 567 1229 l 771 1229 l 772 1224 l 625 1044 l 486 1044 m 235 1044 l 315 1229 l 518 1229 l 519 1224 l 372 1044 l 235 1044 z "},"Ȗ":{"ha":856,"x_min":67,"x_max":789,"o":"m 428 -17 q 235 19 315 -17 q 110 135 154 56 q 67 342 67 214 l 67 956 l 339 956 l 339 335 q 358 240 339 276 q 426 204 376 204 q 497 240 476 204 q 517 335 517 276 l 517 956 l 789 956 l 789 342 q 746 135 789 214 q 622 19 703 56 q 428 -17 542 -17 m 236 1028 q 256 1121 236 1075 q 320 1197 276 1167 q 432 1228 364 1228 q 544 1197 501 1228 q 608 1121 588 1167 q 628 1028 628 1075 l 514 1028 q 503 1069 513 1050 q 477 1102 494 1089 q 432 1115 460 1115 q 388 1102 406 1115 q 360 1069 369 1089 q 350 1028 351 1050 l 236 1028 z "},"Ū":{"ha":856,"x_min":67,"x_max":789,"o":"m 428 -17 q 235 19 315 -17 q 110 135 154 56 q 67 342 67 214 l 67 956 l 339 956 l 339 335 q 358 240 339 276 q 426 204 376 204 q 497 240 476 204 q 517 335 517 276 l 517 956 l 789 956 l 789 342 q 746 135 789 214 q 622 19 703 56 q 428 -17 542 -17 m 260 1036 l 260 1175 l 596 1175 l 596 1036 l 260 1036 z "},"Ų":{"ha":856,"x_min":67,"x_max":789,"o":"m 428 -17 q 235 19 315 -17 q 110 135 154 56 q 67 342 67 214 l 67 956 l 339 956 l 339 335 q 358 240 339 276 q 426 204 376 204 q 497 240 476 204 q 517 335 517 276 l 517 956 l 789 956 l 789 342 q 746 135 789 214 q 622 19 703 56 q 428 -17 542 -17 m 564 -293 q 492 -276 525 -292 q 437 -226 458 -260 q 415 -135 415 -192 q 435 -48 415 -83 q 478 17 456 -12 l 600 17 l 600 11 q 563 -33 575 -6 q 551 -86 551 -60 q 568 -144 551 -122 q 617 -167 585 -167 l 671 -167 l 671 -272 q 618 -288 647 -283 q 564 -293 589 -293 z "},"Ů":{"ha":856,"x_min":67,"x_max":789,"o":"m 428 -17 q 235 19 315 -17 q 110 135 154 56 q 67 342 67 214 l 67 956 l 339 956 l 339 335 q 358 240 339 276 q 426 204 376 204 q 497 240 476 204 q 517 335 517 276 l 517 956 l 789 956 l 789 342 q 746 135 789 214 q 622 19 703 56 q 428 -17 542 -17 m 429 1010 q 312 1052 358 1010 q 265 1160 265 1094 q 312 1268 265 1225 q 429 1311 358 1311 q 545 1268 499 1311 q 592 1160 592 1225 q 545 1052 592 1094 q 429 1010 499 1010 m 429 1107 q 469 1122 453 1107 q 485 1160 485 1138 q 469 1198 485 1183 q 429 1213 453 1213 q 390 1198 406 1213 q 374 1160 374 1183 q 390 1122 374 1138 q 429 1107 406 1107 z "},"Ũ":{"ha":856,"x_min":67,"x_max":789,"o":"m 428 -17 q 235 19 315 -17 q 110 135 154 56 q 67 342 67 214 l 67 956 l 339 956 l 339 335 q 358 240 339 276 q 426 204 376 204 q 497 240 476 204 q 517 335 517 276 l 517 956 l 789 956 l 789 342 q 746 135 789 214 q 622 19 703 56 q 428 -17 542 -17 m 185 1038 q 203 1137 185 1093 q 256 1205 222 1181 q 335 1229 289 1229 q 400 1216 368 1229 q 461 1190 432 1203 q 519 1178 490 1178 q 554 1192 540 1178 q 575 1229 568 1207 l 674 1229 q 655 1131 674 1174 q 602 1063 636 1088 q 524 1038 568 1038 q 458 1051 489 1038 q 399 1077 428 1064 q 338 1090 369 1090 q 302 1076 317 1090 q 283 1038 288 1061 l 185 1038 z "},"V":{"ha":818,"x_min":8,"x_max":808,"o":"m 231 0 l 8 956 l 297 956 l 378 483 q 386 426 381 461 q 397 356 392 392 q 407 292 403 321 l 419 292 q 428 355 424 319 q 439 425 433 390 q 449 483 444 460 l 529 956 l 808 956 l 586 0 l 231 0 z "},"W":{"ha":1142,"x_min":4,"x_max":1138,"o":"m 178 0 l 4 956 l 285 956 l 333 529 q 337 493 335 518 q 342 439 339 468 q 349 385 346 410 l 358 385 q 363 422 360 401 q 368 463 365 443 q 373 501 371 483 q 376 529 375 518 l 438 956 l 724 956 l 779 529 q 785 490 782 515 q 791 435 788 464 q 796 385 794 407 l 807 385 q 809 420 807 400 q 813 460 811 440 q 816 498 814 481 q 821 529 818 515 l 874 956 l 1138 956 l 963 0 l 660 0 l 594 440 q 589 485 592 458 q 583 538 586 511 q 576 585 579 565 l 567 585 q 560 535 564 564 q 553 481 557 507 q 547 440 550 456 l 482 0 l 178 0 z "},"Ẃ":{"ha":1142,"x_min":4,"x_max":1138,"o":"m 178 0 l 4 956 l 285 956 l 333 529 q 337 493 335 518 q 342 439 339 468 q 349 385 346 410 l 358 385 q 363 422 360 401 q 368 463 365 443 q 373 501 371 483 q 376 529 375 518 l 438 956 l 724 956 l 779 529 q 785 490 782 515 q 791 435 788 464 q 796 385 794 407 l 807 385 q 809 420 807 400 q 813 460 811 440 q 816 498 814 481 q 821 529 818 515 l 874 956 l 1138 956 l 963 0 l 660 0 l 594 440 q 589 485 592 458 q 583 538 586 511 q 576 585 579 565 l 567 585 q 560 535 564 564 q 553 481 557 507 q 547 440 550 456 l 482 0 l 178 0 m 483 1044 l 581 1229 l 811 1229 l 813 1224 l 643 1044 l 483 1044 z "},"Ŵ":{"ha":1142,"x_min":4,"x_max":1138,"o":"m 178 0 l 4 956 l 285 956 l 333 529 q 337 493 335 518 q 342 439 339 468 q 349 385 346 410 l 358 385 q 363 422 360 401 q 368 463 365 443 q 373 501 371 483 q 376 529 375 518 l 438 956 l 724 956 l 779 529 q 785 490 782 515 q 791 435 788 464 q 796 385 794 407 l 807 385 q 809 420 807 400 q 813 460 811 440 q 816 498 814 481 q 821 529 818 515 l 874 956 l 1138 956 l 963 0 l 660 0 l 594 440 q 589 485 592 458 q 583 538 586 511 q 576 585 579 565 l 567 585 q 560 535 564 564 q 553 481 557 507 q 547 440 550 456 l 482 0 l 178 0 m 332 1044 l 476 1229 l 672 1229 l 817 1044 l 654 1044 l 544 1169 l 606 1169 l 496 1044 l 332 1044 z "},"Ẅ":{"ha":1142,"x_min":4,"x_max":1138,"o":"m 178 0 l 4 956 l 285 956 l 333 529 q 337 493 335 518 q 342 439 339 468 q 349 385 346 410 l 358 385 q 363 422 360 401 q 368 463 365 443 q 373 501 371 483 q 376 529 375 518 l 438 956 l 724 956 l 779 529 q 785 490 782 515 q 791 435 788 464 q 796 385 794 407 l 807 385 q 809 420 807 400 q 813 460 811 440 q 816 498 814 481 q 821 529 818 515 l 874 956 l 1138 956 l 963 0 l 660 0 l 594 440 q 589 485 592 458 q 583 538 586 511 q 576 585 579 565 l 567 585 q 560 535 564 564 q 553 481 557 507 q 547 440 550 456 l 482 0 l 178 0 m 378 1036 l 378 1229 l 539 1229 l 539 1036 l 378 1036 m 611 1036 l 611 1229 l 772 1229 l 772 1036 l 611 1036 z "},"Ẁ":{"ha":1142,"x_min":4,"x_max":1138,"o":"m 178 0 l 4 956 l 285 956 l 333 529 q 337 493 335 518 q 342 439 339 468 q 349 385 346 410 l 358 385 q 363 422 360 401 q 368 463 365 443 q 373 501 371 483 q 376 529 375 518 l 438 956 l 724 956 l 779 529 q 785 490 782 515 q 791 435 788 464 q 796 385 794 407 l 807 385 q 809 420 807 400 q 813 460 811 440 q 816 498 814 481 q 821 529 818 515 l 874 956 l 1138 956 l 963 0 l 660 0 l 594 440 q 589 485 592 458 q 583 538 586 511 q 576 585 579 565 l 567 585 q 560 535 564 564 q 553 481 557 507 q 547 440 550 456 l 482 0 l 178 0 m 701 1044 l 542 1044 l 374 1224 l 375 1229 l 606 1229 l 701 1044 z "},"X":{"ha":826,"x_min":-6,"x_max":833,"o":"m -6 0 l 236 504 l 21 956 l 325 956 l 421 704 l 426 704 l 522 956 l 810 956 l 593 504 l 833 0 l 528 0 l 408 304 l 403 304 l 282 0 l -6 0 z "},"Y":{"ha":810,"x_min":-10,"x_max":815,"o":"m 269 0 l 269 367 l -10 956 l 283 956 l 406 636 l 413 636 l 539 956 l 815 956 l 542 367 l 542 0 l 269 0 z "},"Ý":{"ha":810,"x_min":-10,"x_max":815,"o":"m 269 0 l 269 367 l -10 956 l 283 956 l 406 636 l 413 636 l 539 956 l 815 956 l 542 367 l 542 0 l 269 0 m 317 1044 l 414 1229 l 644 1229 l 646 1224 l 476 1044 l 317 1044 z "},"Ŷ":{"ha":810,"x_min":-10,"x_max":815,"o":"m 269 0 l 269 367 l -10 956 l 283 956 l 406 636 l 413 636 l 539 956 l 815 956 l 542 367 l 542 0 l 269 0 m 164 1044 l 310 1229 l 506 1229 l 650 1044 l 488 1044 l 378 1169 l 438 1169 l 329 1044 l 164 1044 z "},"Ÿ":{"ha":810,"x_min":-10,"x_max":815,"o":"m 269 0 l 269 367 l -10 956 l 283 956 l 406 636 l 413 636 l 539 956 l 815 956 l 542 367 l 542 0 l 269 0 m 211 1036 l 211 1229 l 372 1229 l 372 1036 l 211 1036 m 444 1036 l 444 1229 l 606 1229 l 606 1036 l 444 1036 z "},"Ỵ":{"ha":810,"x_min":-10,"x_max":815,"o":"m 269 0 l 269 367 l -10 956 l 283 956 l 406 636 l 413 636 l 539 956 l 815 956 l 542 367 l 542 0 l 269 0 m 326 -260 l 326 -83 l 488 -83 l 488 -260 l 326 -260 z "},"Ỳ":{"ha":810,"x_min":-10,"x_max":815,"o":"m 269 0 l 269 367 l -10 956 l 283 956 l 406 636 l 413 636 l 539 956 l 815 956 l 542 367 l 542 0 l 269 0 m 535 1044 l 375 1044 l 206 1224 l 208 1229 l 439 1229 l 535 1044 z "},"Ỷ":{"ha":810,"x_min":-10,"x_max":815,"o":"m 269 0 l 269 367 l -10 956 l 283 956 l 406 636 l 413 636 l 539 956 l 815 956 l 542 367 l 542 0 l 269 0 m 368 1039 l 368 1121 l 392 1121 q 420 1126 413 1121 q 428 1146 428 1132 q 416 1165 428 1161 q 386 1168 404 1168 l 313 1168 l 313 1235 q 347 1240 329 1238 q 381 1243 364 1242 q 413 1244 399 1244 q 460 1240 436 1244 q 504 1226 485 1235 q 535 1201 524 1217 q 546 1161 546 1185 q 532 1115 546 1133 q 495 1086 518 1096 q 447 1074 472 1076 l 447 1039 l 368 1039 z "},"Ȳ":{"ha":810,"x_min":-10,"x_max":815,"o":"m 269 0 l 269 367 l -10 956 l 283 956 l 406 636 l 413 636 l 539 956 l 815 956 l 542 367 l 542 0 l 269 0 m 239 1036 l 239 1175 l 575 1175 l 575 1036 l 239 1036 z "},"Ỹ":{"ha":810,"x_min":-10,"x_max":815,"o":"m 269 0 l 269 367 l -10 956 l 283 956 l 406 636 l 413 636 l 539 956 l 815 956 l 542 367 l 542 0 l 269 0 m 164 1038 q 183 1137 164 1093 q 235 1205 201 1181 q 314 1229 268 1229 q 378 1216 347 1229 q 440 1190 410 1203 q 499 1178 469 1178 q 533 1192 519 1178 q 554 1229 547 1207 l 653 1229 q 634 1131 653 1174 q 581 1063 615 1088 q 503 1038 547 1038 q 438 1051 468 1038 q 378 1077 407 1064 q 317 1090 349 1090 q 281 1076 296 1090 q 263 1038 267 1061 l 164 1038 z "},"Z":{"ha":776,"x_min":25,"x_max":749,"o":"m 25 0 l 25 99 l 365 733 l 51 733 l 51 956 l 740 956 l 740 857 l 400 222 l 749 222 l 749 0 l 25 0 z "},"Ź":{"ha":776,"x_min":25,"x_max":749,"o":"m 25 0 l 25 99 l 365 733 l 51 733 l 51 956 l 740 956 l 740 857 l 400 222 l 749 222 l 749 0 l 25 0 m 299 1044 l 396 1229 l 626 1229 l 628 1224 l 458 1044 l 299 1044 z "},"Ž":{"ha":776,"x_min":25,"x_max":749,"o":"m 25 0 l 25 99 l 365 733 l 51 733 l 51 956 l 740 956 l 740 857 l 400 222 l 749 222 l 749 0 l 25 0 m 147 1229 l 311 1229 l 421 1104 l 360 1104 l 469 1229 l 633 1229 l 488 1044 l 292 1044 l 147 1229 z "},"Ż":{"ha":776,"x_min":25,"x_max":749,"o":"m 25 0 l 25 99 l 365 733 l 51 733 l 51 956 l 740 956 l 740 857 l 400 222 l 749 222 l 749 0 l 25 0 m 311 1036 l 311 1229 l 472 1229 l 472 1036 l 311 1036 z "},"a":{"ha":722,"x_min":32,"x_max":719,"o":"m 232 -17 q 149 -4 186 -17 q 86 33 113 8 q 46 97 60 58 q 32 189 32 136 q 56 305 32 256 q 128 385 81 354 q 244 432 175 417 q 406 447 314 447 l 406 503 q 399 539 406 525 q 380 560 393 553 q 347 568 367 568 q 317 562 331 568 q 294 544 303 556 q 286 514 286 532 l 286 503 l 57 503 q 56 513 56 508 q 56 524 56 518 q 90 644 56 593 q 191 722 124 694 q 357 750 258 750 q 499 731 432 750 q 607 661 565 711 q 649 521 649 611 l 649 215 q 658 183 649 196 q 690 169 668 169 l 719 169 l 719 11 q 660 -9 696 -1 q 586 -17 625 -17 q 510 -6 543 -17 q 458 24 478 4 q 431 69 438 43 l 424 69 q 380 26 406 46 q 318 -5 354 7 q 232 -17 282 -17 m 335 164 q 365 171 351 164 q 388 190 379 178 q 401 217 397 201 q 406 251 406 233 l 406 319 q 328 308 356 319 q 290 275 300 296 q 279 229 279 254 q 286 192 279 207 q 306 171 293 178 q 335 164 318 164 z "},"á":{"ha":722,"x_min":32,"x_max":719,"o":"m 232 -17 q 149 -4 186 -17 q 86 33 113 8 q 46 97 60 58 q 32 189 32 136 q 56 305 32 256 q 128 385 81 354 q 244 432 175 417 q 406 447 314 447 l 406 503 q 399 539 406 525 q 380 560 393 553 q 347 568 367 568 q 317 562 331 568 q 294 544 303 556 q 286 514 286 532 l 286 503 l 57 503 q 56 513 56 508 q 56 524 56 518 q 90 644 56 593 q 191 722 124 694 q 357 750 258 750 q 499 731 432 750 q 607 661 565 711 q 649 521 649 611 l 649 215 q 658 183 649 196 q 690 169 668 169 l 719 169 l 719 11 q 660 -9 696 -1 q 586 -17 625 -17 q 510 -6 543 -17 q 458 24 478 4 q 431 69 438 43 l 424 69 q 380 26 406 46 q 318 -5 354 7 q 232 -17 282 -17 m 335 164 q 365 171 351 164 q 388 190 379 178 q 401 217 397 201 q 406 251 406 233 l 406 319 q 328 308 356 319 q 290 275 300 296 q 279 229 279 254 q 286 192 279 207 q 306 171 293 178 q 335 164 318 164 m 249 821 l 344 1006 l 568 1006 l 569 1000 l 401 821 l 249 821 z "},"ă":{"ha":722,"x_min":32,"x_max":719,"o":"m 232 -17 q 149 -4 186 -17 q 86 33 113 8 q 46 97 60 58 q 32 189 32 136 q 56 305 32 256 q 128 385 81 354 q 244 432 175 417 q 406 447 314 447 l 406 503 q 399 539 406 525 q 380 560 393 553 q 347 568 367 568 q 317 562 331 568 q 294 544 303 556 q 286 514 286 532 l 286 503 l 57 503 q 56 513 56 508 q 56 524 56 518 q 90 644 56 593 q 191 722 124 694 q 357 750 258 750 q 499 731 432 750 q 607 661 565 711 q 649 521 649 611 l 649 215 q 658 183 649 196 q 690 169 668 169 l 719 169 l 719 11 q 660 -9 696 -1 q 586 -17 625 -17 q 510 -6 543 -17 q 458 24 478 4 q 431 69 438 43 l 424 69 q 380 26 406 46 q 318 -5 354 7 q 232 -17 282 -17 m 335 164 q 365 171 351 164 q 388 190 379 178 q 401 217 397 201 q 406 251 406 233 l 406 319 q 328 308 356 319 q 290 275 300 296 q 279 229 279 254 q 286 192 279 207 q 306 171 293 178 q 335 164 318 164 m 354 806 q 242 836 285 806 q 178 913 199 867 q 157 1006 157 960 l 272 1006 q 285 963 274 983 q 314 931 296 943 q 354 918 332 918 q 397 931 378 918 q 426 965 415 944 q 436 1006 436 985 l 550 1006 q 529 913 550 960 q 465 836 508 867 q 354 806 422 806 z "},"ắ":{"ha":722,"x_min":32,"x_max":719,"o":"m 232 -17 q 149 -4 186 -17 q 86 33 113 8 q 46 97 60 58 q 32 189 32 136 q 56 305 32 256 q 128 385 81 354 q 244 432 175 417 q 406 447 314 447 l 406 503 q 399 539 406 525 q 380 560 393 553 q 347 568 367 568 q 317 562 331 568 q 294 544 303 556 q 286 514 286 532 l 286 503 l 57 503 q 56 513 56 508 q 56 524 56 518 q 90 644 56 593 q 191 722 124 694 q 357 750 258 750 q 499 731 432 750 q 607 661 565 711 q 649 521 649 611 l 649 215 q 658 183 649 196 q 690 169 668 169 l 719 169 l 719 11 q 660 -9 696 -1 q 586 -17 625 -17 q 510 -6 543 -17 q 458 24 478 4 q 431 69 438 43 l 424 69 q 380 26 406 46 q 318 -5 354 7 q 232 -17 282 -17 m 335 164 q 365 171 351 164 q 388 190 379 178 q 401 217 397 201 q 406 251 406 233 l 406 319 q 328 308 356 319 q 290 275 300 296 q 279 229 279 254 q 286 192 279 207 q 306 171 293 178 q 335 164 318 164 m 354 806 q 242 836 285 806 q 178 913 199 867 q 157 1006 157 960 l 272 1006 q 285 963 274 983 q 314 931 296 943 q 354 918 332 918 q 397 931 378 918 q 426 965 415 944 q 436 1006 436 985 l 550 1006 q 529 913 550 960 q 465 836 508 867 q 354 806 422 806 m 249 1074 l 344 1258 l 568 1258 l 569 1253 l 401 1074 l 249 1074 z "},"ặ":{"ha":722,"x_min":32,"x_max":719,"o":"m 232 -17 q 149 -4 186 -17 q 86 33 113 8 q 46 97 60 58 q 32 189 32 136 q 56 305 32 256 q 128 385 81 354 q 244 432 175 417 q 406 447 314 447 l 406 503 q 399 539 406 525 q 380 560 393 553 q 347 568 367 568 q 317 562 331 568 q 294 544 303 556 q 286 514 286 532 l 286 503 l 57 503 q 56 513 56 508 q 56 524 56 518 q 90 644 56 593 q 191 722 124 694 q 357 750 258 750 q 499 731 432 750 q 607 661 565 711 q 649 521 649 611 l 649 215 q 658 183 649 196 q 690 169 668 169 l 719 169 l 719 11 q 660 -9 696 -1 q 586 -17 625 -17 q 510 -6 543 -17 q 458 24 478 4 q 431 69 438 43 l 424 69 q 380 26 406 46 q 318 -5 354 7 q 232 -17 282 -17 m 335 164 q 365 171 351 164 q 388 190 379 178 q 401 217 397 201 q 406 251 406 233 l 406 319 q 328 308 356 319 q 290 275 300 296 q 279 229 279 254 q 286 192 279 207 q 306 171 293 178 q 335 164 318 164 m 281 -260 l 281 -83 l 442 -83 l 442 -260 l 281 -260 m 354 806 q 242 836 285 806 q 178 913 199 867 q 157 1006 157 960 l 272 1006 q 285 963 274 983 q 314 931 296 943 q 354 918 332 918 q 397 931 378 918 q 426 965 415 944 q 436 1006 436 985 l 550 1006 q 529 913 550 960 q 465 836 508 867 q 354 806 422 806 z "},"ằ":{"ha":722,"x_min":32,"x_max":719,"o":"m 232 -17 q 149 -4 186 -17 q 86 33 113 8 q 46 97 60 58 q 32 189 32 136 q 56 305 32 256 q 128 385 81 354 q 244 432 175 417 q 406 447 314 447 l 406 503 q 399 539 406 525 q 380 560 393 553 q 347 568 367 568 q 317 562 331 568 q 294 544 303 556 q 286 514 286 532 l 286 503 l 57 503 q 56 513 56 508 q 56 524 56 518 q 90 644 56 593 q 191 722 124 694 q 357 750 258 750 q 499 731 432 750 q 607 661 565 711 q 649 521 649 611 l 649 215 q 658 183 649 196 q 690 169 668 169 l 719 169 l 719 11 q 660 -9 696 -1 q 586 -17 625 -17 q 510 -6 543 -17 q 458 24 478 4 q 431 69 438 43 l 424 69 q 380 26 406 46 q 318 -5 354 7 q 232 -17 282 -17 m 335 164 q 365 171 351 164 q 388 190 379 178 q 401 217 397 201 q 406 251 406 233 l 406 319 q 328 308 356 319 q 290 275 300 296 q 279 229 279 254 q 286 192 279 207 q 306 171 293 178 q 335 164 318 164 m 354 806 q 242 836 285 806 q 178 913 199 867 q 157 1006 157 960 l 272 1006 q 285 963 274 983 q 314 931 296 943 q 354 918 332 918 q 397 931 378 918 q 426 965 415 944 q 436 1006 436 985 l 550 1006 q 529 913 550 960 q 465 836 508 867 q 354 806 422 806 m 454 1074 l 301 1074 l 132 1253 l 133 1258 l 357 1258 l 454 1074 z "},"ẳ":{"ha":722,"x_min":32,"x_max":719,"o":"m 232 -17 q 149 -4 186 -17 q 86 33 113 8 q 46 97 60 58 q 32 189 32 136 q 56 305 32 256 q 128 385 81 354 q 244 432 175 417 q 406 447 314 447 l 406 503 q 399 539 406 525 q 380 560 393 553 q 347 568 367 568 q 317 562 331 568 q 294 544 303 556 q 286 514 286 532 l 286 503 l 57 503 q 56 513 56 508 q 56 524 56 518 q 90 644 56 593 q 191 722 124 694 q 357 750 258 750 q 499 731 432 750 q 607 661 565 711 q 649 521 649 611 l 649 215 q 658 183 649 196 q 690 169 668 169 l 719 169 l 719 11 q 660 -9 696 -1 q 586 -17 625 -17 q 510 -6 543 -17 q 458 24 478 4 q 431 69 438 43 l 424 69 q 380 26 406 46 q 318 -5 354 7 q 232 -17 282 -17 m 335 164 q 365 171 351 164 q 388 190 379 178 q 401 217 397 201 q 406 251 406 233 l 406 319 q 328 308 356 319 q 290 275 300 296 q 279 229 279 254 q 286 192 279 207 q 306 171 293 178 q 335 164 318 164 m 354 806 q 242 836 285 806 q 178 913 199 867 q 157 1006 157 960 l 272 1006 q 285 963 274 983 q 314 931 296 943 q 354 918 332 918 q 397 931 378 918 q 426 965 415 944 q 436 1006 436 985 l 550 1006 q 529 913 550 960 q 465 836 508 867 q 354 806 422 806 m 314 1072 l 314 1156 l 338 1156 q 365 1160 357 1156 q 374 1179 374 1165 q 362 1199 374 1194 q 332 1203 350 1203 l 258 1203 l 258 1268 q 292 1274 275 1272 q 326 1277 308 1276 q 358 1278 343 1278 q 406 1274 382 1278 q 449 1260 431 1269 q 480 1234 468 1250 q 492 1194 492 1218 q 478 1148 492 1167 q 441 1119 464 1129 q 392 1107 418 1110 l 392 1072 l 314 1072 z "},"ẵ":{"ha":722,"x_min":32,"x_max":719,"o":"m 232 -17 q 149 -4 186 -17 q 86 33 113 8 q 46 97 60 58 q 32 189 32 136 q 56 305 32 256 q 128 385 81 354 q 244 432 175 417 q 406 447 314 447 l 406 503 q 399 539 406 525 q 380 560 393 553 q 347 568 367 568 q 317 562 331 568 q 294 544 303 556 q 286 514 286 532 l 286 503 l 57 503 q 56 513 56 508 q 56 524 56 518 q 90 644 56 593 q 191 722 124 694 q 357 750 258 750 q 499 731 432 750 q 607 661 565 711 q 649 521 649 611 l 649 215 q 658 183 649 196 q 690 169 668 169 l 719 169 l 719 11 q 660 -9 696 -1 q 586 -17 625 -17 q 510 -6 543 -17 q 458 24 478 4 q 431 69 438 43 l 424 69 q 380 26 406 46 q 318 -5 354 7 q 232 -17 282 -17 m 335 164 q 365 171 351 164 q 388 190 379 178 q 401 217 397 201 q 406 251 406 233 l 406 319 q 328 308 356 319 q 290 275 300 296 q 279 229 279 254 q 286 192 279 207 q 306 171 293 178 q 335 164 318 164 m 354 806 q 242 836 285 806 q 178 913 199 867 q 157 1006 157 960 l 272 1006 q 285 963 274 983 q 314 931 296 943 q 354 918 332 918 q 397 931 378 918 q 426 965 415 944 q 436 1006 436 985 l 550 1006 q 529 913 550 960 q 465 836 508 867 q 354 806 422 806 m 110 1068 q 128 1167 110 1124 q 181 1234 147 1210 q 260 1258 215 1258 q 325 1246 293 1258 q 386 1220 357 1233 q 444 1207 415 1207 q 479 1222 465 1207 q 500 1258 493 1236 l 599 1258 q 580 1160 599 1203 q 527 1093 561 1118 q 449 1068 493 1068 q 383 1081 414 1068 q 324 1106 353 1093 q 264 1119 294 1119 q 227 1105 242 1119 q 208 1068 213 1090 l 110 1068 z "},"ǎ":{"ha":722,"x_min":32,"x_max":719,"o":"m 232 -17 q 149 -4 186 -17 q 86 33 113 8 q 46 97 60 58 q 32 189 32 136 q 56 305 32 256 q 128 385 81 354 q 244 432 175 417 q 406 447 314 447 l 406 503 q 399 539 406 525 q 380 560 393 553 q 347 568 367 568 q 317 562 331 568 q 294 544 303 556 q 286 514 286 532 l 286 503 l 57 503 q 56 513 56 508 q 56 524 56 518 q 90 644 56 593 q 191 722 124 694 q 357 750 258 750 q 499 731 432 750 q 607 661 565 711 q 649 521 649 611 l 649 215 q 658 183 649 196 q 690 169 668 169 l 719 169 l 719 11 q 660 -9 696 -1 q 586 -17 625 -17 q 510 -6 543 -17 q 458 24 478 4 q 431 69 438 43 l 424 69 q 380 26 406 46 q 318 -5 354 7 q 232 -17 282 -17 m 335 164 q 365 171 351 164 q 388 190 379 178 q 401 217 397 201 q 406 251 406 233 l 406 319 q 328 308 356 319 q 290 275 300 296 q 279 229 279 254 q 286 192 279 207 q 306 171 293 178 q 335 164 318 164 m 118 1006 l 275 1006 l 385 881 l 324 881 l 433 1006 l 590 1006 l 444 821 l 263 821 l 118 1006 z "},"â":{"ha":722,"x_min":32,"x_max":719,"o":"m 232 -17 q 149 -4 186 -17 q 86 33 113 8 q 46 97 60 58 q 32 189 32 136 q 56 305 32 256 q 128 385 81 354 q 244 432 175 417 q 406 447 314 447 l 406 503 q 399 539 406 525 q 380 560 393 553 q 347 568 367 568 q 317 562 331 568 q 294 544 303 556 q 286 514 286 532 l 286 503 l 57 503 q 56 513 56 508 q 56 524 56 518 q 90 644 56 593 q 191 722 124 694 q 357 750 258 750 q 499 731 432 750 q 607 661 565 711 q 649 521 649 611 l 649 215 q 658 183 649 196 q 690 169 668 169 l 719 169 l 719 11 q 660 -9 696 -1 q 586 -17 625 -17 q 510 -6 543 -17 q 458 24 478 4 q 431 69 438 43 l 424 69 q 380 26 406 46 q 318 -5 354 7 q 232 -17 282 -17 m 335 164 q 365 171 351 164 q 388 190 379 178 q 401 217 397 201 q 406 251 406 233 l 406 319 q 328 308 356 319 q 290 275 300 296 q 279 229 279 254 q 286 192 279 207 q 306 171 293 178 q 335 164 318 164 m 118 821 l 263 1006 l 444 1006 l 590 821 l 433 821 l 324 947 l 385 947 l 275 821 l 118 821 z "},"ấ":{"ha":722,"x_min":32,"x_max":719,"o":"m 232 -17 q 149 -4 186 -17 q 86 33 113 8 q 46 97 60 58 q 32 189 32 136 q 56 305 32 256 q 128 385 81 354 q 244 432 175 417 q 406 447 314 447 l 406 503 q 399 539 406 525 q 380 560 393 553 q 347 568 367 568 q 317 562 331 568 q 294 544 303 556 q 286 514 286 532 l 286 503 l 57 503 q 56 513 56 508 q 56 524 56 518 q 90 644 56 593 q 191 722 124 694 q 357 750 258 750 q 499 731 432 750 q 607 661 565 711 q 649 521 649 611 l 649 215 q 658 183 649 196 q 690 169 668 169 l 719 169 l 719 11 q 660 -9 696 -1 q 586 -17 625 -17 q 510 -6 543 -17 q 458 24 478 4 q 431 69 438 43 l 424 69 q 380 26 406 46 q 318 -5 354 7 q 232 -17 282 -17 m 335 164 q 365 171 351 164 q 388 190 379 178 q 401 217 397 201 q 406 251 406 233 l 406 319 q 328 308 356 319 q 290 275 300 296 q 279 229 279 254 q 286 192 279 207 q 306 171 293 178 q 335 164 318 164 m 118 821 l 263 1006 l 444 1006 l 590 821 l 433 821 l 324 947 l 385 947 l 275 821 l 118 821 m 249 1074 l 344 1258 l 568 1258 l 569 1253 l 401 1074 l 249 1074 z "},"ậ":{"ha":722,"x_min":32,"x_max":719,"o":"m 232 -17 q 149 -4 186 -17 q 86 33 113 8 q 46 97 60 58 q 32 189 32 136 q 56 305 32 256 q 128 385 81 354 q 244 432 175 417 q 406 447 314 447 l 406 503 q 399 539 406 525 q 380 560 393 553 q 347 568 367 568 q 317 562 331 568 q 294 544 303 556 q 286 514 286 532 l 286 503 l 57 503 q 56 513 56 508 q 56 524 56 518 q 90 644 56 593 q 191 722 124 694 q 357 750 258 750 q 499 731 432 750 q 607 661 565 711 q 649 521 649 611 l 649 215 q 658 183 649 196 q 690 169 668 169 l 719 169 l 719 11 q 660 -9 696 -1 q 586 -17 625 -17 q 510 -6 543 -17 q 458 24 478 4 q 431 69 438 43 l 424 69 q 380 26 406 46 q 318 -5 354 7 q 232 -17 282 -17 m 335 164 q 365 171 351 164 q 388 190 379 178 q 401 217 397 201 q 406 251 406 233 l 406 319 q 328 308 356 319 q 290 275 300 296 q 279 229 279 254 q 286 192 279 207 q 306 171 293 178 q 335 164 318 164 m 281 -260 l 281 -83 l 442 -83 l 442 -260 l 281 -260 m 118 821 l 263 1006 l 444 1006 l 590 821 l 433 821 l 324 947 l 385 947 l 275 821 l 118 821 z "},"ầ":{"ha":722,"x_min":32,"x_max":719,"o":"m 232 -17 q 149 -4 186 -17 q 86 33 113 8 q 46 97 60 58 q 32 189 32 136 q 56 305 32 256 q 128 385 81 354 q 244 432 175 417 q 406 447 314 447 l 406 503 q 399 539 406 525 q 380 560 393 553 q 347 568 367 568 q 317 562 331 568 q 294 544 303 556 q 286 514 286 532 l 286 503 l 57 503 q 56 513 56 508 q 56 524 56 518 q 90 644 56 593 q 191 722 124 694 q 357 750 258 750 q 499 731 432 750 q 607 661 565 711 q 649 521 649 611 l 649 215 q 658 183 649 196 q 690 169 668 169 l 719 169 l 719 11 q 660 -9 696 -1 q 586 -17 625 -17 q 510 -6 543 -17 q 458 24 478 4 q 431 69 438 43 l 424 69 q 380 26 406 46 q 318 -5 354 7 q 232 -17 282 -17 m 335 164 q 365 171 351 164 q 388 190 379 178 q 401 217 397 201 q 406 251 406 233 l 406 319 q 328 308 356 319 q 290 275 300 296 q 279 229 279 254 q 286 192 279 207 q 306 171 293 178 q 335 164 318 164 m 118 821 l 263 1006 l 444 1006 l 590 821 l 433 821 l 324 947 l 385 947 l 275 821 l 118 821 m 454 1074 l 301 1074 l 132 1253 l 133 1258 l 357 1258 l 454 1074 z "},"ẩ":{"ha":722,"x_min":32,"x_max":719,"o":"m 232 -17 q 149 -4 186 -17 q 86 33 113 8 q 46 97 60 58 q 32 189 32 136 q 56 305 32 256 q 128 385 81 354 q 244 432 175 417 q 406 447 314 447 l 406 503 q 399 539 406 525 q 380 560 393 553 q 347 568 367 568 q 317 562 331 568 q 294 544 303 556 q 286 514 286 532 l 286 503 l 57 503 q 56 513 56 508 q 56 524 56 518 q 90 644 56 593 q 191 722 124 694 q 357 750 258 750 q 499 731 432 750 q 607 661 565 711 q 649 521 649 611 l 649 215 q 658 183 649 196 q 690 169 668 169 l 719 169 l 719 11 q 660 -9 696 -1 q 586 -17 625 -17 q 510 -6 543 -17 q 458 24 478 4 q 431 69 438 43 l 424 69 q 380 26 406 46 q 318 -5 354 7 q 232 -17 282 -17 m 335 164 q 365 171 351 164 q 388 190 379 178 q 401 217 397 201 q 406 251 406 233 l 406 319 q 328 308 356 319 q 290 275 300 296 q 279 229 279 254 q 286 192 279 207 q 306 171 293 178 q 335 164 318 164 m 118 821 l 263 1006 l 444 1006 l 590 821 l 433 821 l 324 947 l 385 947 l 275 821 l 118 821 m 314 1072 l 314 1156 l 338 1156 q 365 1160 357 1156 q 374 1179 374 1165 q 362 1199 374 1194 q 332 1203 350 1203 l 258 1203 l 258 1268 q 292 1274 275 1272 q 326 1277 308 1276 q 358 1278 343 1278 q 406 1274 382 1278 q 449 1260 431 1269 q 480 1234 468 1250 q 492 1194 492 1218 q 478 1148 492 1167 q 441 1119 464 1129 q 392 1107 418 1110 l 392 1072 l 314 1072 z "},"ẫ":{"ha":722,"x_min":32,"x_max":719,"o":"m 232 -17 q 149 -4 186 -17 q 86 33 113 8 q 46 97 60 58 q 32 189 32 136 q 56 305 32 256 q 128 385 81 354 q 244 432 175 417 q 406 447 314 447 l 406 503 q 399 539 406 525 q 380 560 393 553 q 347 568 367 568 q 317 562 331 568 q 294 544 303 556 q 286 514 286 532 l 286 503 l 57 503 q 56 513 56 508 q 56 524 56 518 q 90 644 56 593 q 191 722 124 694 q 357 750 258 750 q 499 731 432 750 q 607 661 565 711 q 649 521 649 611 l 649 215 q 658 183 649 196 q 690 169 668 169 l 719 169 l 719 11 q 660 -9 696 -1 q 586 -17 625 -17 q 510 -6 543 -17 q 458 24 478 4 q 431 69 438 43 l 424 69 q 380 26 406 46 q 318 -5 354 7 q 232 -17 282 -17 m 335 164 q 365 171 351 164 q 388 190 379 178 q 401 217 397 201 q 406 251 406 233 l 406 319 q 328 308 356 319 q 290 275 300 296 q 279 229 279 254 q 286 192 279 207 q 306 171 293 178 q 335 164 318 164 m 118 821 l 263 1006 l 444 1006 l 590 821 l 433 821 l 324 947 l 385 947 l 275 821 l 118 821 m 110 1068 q 128 1167 110 1124 q 181 1234 147 1210 q 260 1258 215 1258 q 325 1246 293 1258 q 386 1220 357 1233 q 444 1207 415 1207 q 479 1222 465 1207 q 500 1258 493 1236 l 599 1258 q 580 1160 599 1203 q 527 1093 561 1118 q 449 1068 493 1068 q 383 1081 414 1068 q 324 1106 353 1093 q 264 1119 294 1119 q 227 1105 242 1119 q 208 1068 213 1090 l 110 1068 z "},"ȁ":{"ha":722,"x_min":32,"x_max":719,"o":"m 232 -17 q 149 -4 186 -17 q 86 33 113 8 q 46 97 60 58 q 32 189 32 136 q 56 305 32 256 q 128 385 81 354 q 244 432 175 417 q 406 447 314 447 l 406 503 q 399 539 406 525 q 380 560 393 553 q 347 568 367 568 q 317 562 331 568 q 294 544 303 556 q 286 514 286 532 l 286 503 l 57 503 q 56 513 56 508 q 56 524 56 518 q 90 644 56 593 q 191 722 124 694 q 357 750 258 750 q 499 731 432 750 q 607 661 565 711 q 649 521 649 611 l 649 215 q 658 183 649 196 q 690 169 668 169 l 719 169 l 719 11 q 660 -9 696 -1 q 586 -17 625 -17 q 510 -6 543 -17 q 458 24 478 4 q 431 69 438 43 l 424 69 q 380 26 406 46 q 318 -5 354 7 q 232 -17 282 -17 m 335 164 q 365 171 351 164 q 388 190 379 178 q 401 217 397 201 q 406 251 406 233 l 406 319 q 328 308 356 319 q 290 275 300 296 q 279 229 279 254 q 286 192 279 207 q 306 171 293 178 q 335 164 318 164 m 414 821 l 267 1001 l 268 1007 l 457 1007 l 538 821 l 414 821 m 190 821 l 43 1001 l 44 1007 l 233 1007 l 314 821 l 190 821 z "},"ä":{"ha":722,"x_min":32,"x_max":719,"o":"m 232 -17 q 149 -4 186 -17 q 86 33 113 8 q 46 97 60 58 q 32 189 32 136 q 56 305 32 256 q 128 385 81 354 q 244 432 175 417 q 406 447 314 447 l 406 503 q 399 539 406 525 q 380 560 393 553 q 347 568 367 568 q 317 562 331 568 q 294 544 303 556 q 286 514 286 532 l 286 503 l 57 503 q 56 513 56 508 q 56 524 56 518 q 90 644 56 593 q 191 722 124 694 q 357 750 258 750 q 499 731 432 750 q 607 661 565 711 q 649 521 649 611 l 649 215 q 658 183 649 196 q 690 169 668 169 l 719 169 l 719 11 q 660 -9 696 -1 q 586 -17 625 -17 q 510 -6 543 -17 q 458 24 478 4 q 431 69 438 43 l 424 69 q 380 26 406 46 q 318 -5 354 7 q 232 -17 282 -17 m 335 164 q 365 171 351 164 q 388 190 379 178 q 401 217 397 201 q 406 251 406 233 l 406 319 q 328 308 356 319 q 290 275 300 296 q 279 229 279 254 q 286 192 279 207 q 306 171 293 178 q 335 164 318 164 m 157 828 l 157 1006 l 318 1006 l 318 828 l 157 828 m 390 828 l 390 1006 l 551 1006 l 551 828 l 390 828 z "},"ạ":{"ha":722,"x_min":32,"x_max":719,"o":"m 232 -17 q 149 -4 186 -17 q 86 33 113 8 q 46 97 60 58 q 32 189 32 136 q 56 305 32 256 q 128 385 81 354 q 244 432 175 417 q 406 447 314 447 l 406 503 q 399 539 406 525 q 380 560 393 553 q 347 568 367 568 q 317 562 331 568 q 294 544 303 556 q 286 514 286 532 l 286 503 l 57 503 q 56 513 56 508 q 56 524 56 518 q 90 644 56 593 q 191 722 124 694 q 357 750 258 750 q 499 731 432 750 q 607 661 565 711 q 649 521 649 611 l 649 215 q 658 183 649 196 q 690 169 668 169 l 719 169 l 719 11 q 660 -9 696 -1 q 586 -17 625 -17 q 510 -6 543 -17 q 458 24 478 4 q 431 69 438 43 l 424 69 q 380 26 406 46 q 318 -5 354 7 q 232 -17 282 -17 m 335 164 q 365 171 351 164 q 388 190 379 178 q 401 217 397 201 q 406 251 406 233 l 406 319 q 328 308 356 319 q 290 275 300 296 q 279 229 279 254 q 286 192 279 207 q 306 171 293 178 q 335 164 318 164 m 281 -260 l 281 -83 l 442 -83 l 442 -260 l 281 -260 z "},"à":{"ha":722,"x_min":32,"x_max":719,"o":"m 232 -17 q 149 -4 186 -17 q 86 33 113 8 q 46 97 60 58 q 32 189 32 136 q 56 305 32 256 q 128 385 81 354 q 244 432 175 417 q 406 447 314 447 l 406 503 q 399 539 406 525 q 380 560 393 553 q 347 568 367 568 q 317 562 331 568 q 294 544 303 556 q 286 514 286 532 l 286 503 l 57 503 q 56 513 56 508 q 56 524 56 518 q 90 644 56 593 q 191 722 124 694 q 357 750 258 750 q 499 731 432 750 q 607 661 565 711 q 649 521 649 611 l 649 215 q 658 183 649 196 q 690 169 668 169 l 719 169 l 719 11 q 660 -9 696 -1 q 586 -17 625 -17 q 510 -6 543 -17 q 458 24 478 4 q 431 69 438 43 l 424 69 q 380 26 406 46 q 318 -5 354 7 q 232 -17 282 -17 m 335 164 q 365 171 351 164 q 388 190 379 178 q 401 217 397 201 q 406 251 406 233 l 406 319 q 328 308 356 319 q 290 275 300 296 q 279 229 279 254 q 286 192 279 207 q 306 171 293 178 q 335 164 318 164 m 454 821 l 301 821 l 132 1000 l 133 1006 l 357 1006 l 454 821 z "},"ả":{"ha":722,"x_min":32,"x_max":719,"o":"m 232 -17 q 149 -4 186 -17 q 86 33 113 8 q 46 97 60 58 q 32 189 32 136 q 56 305 32 256 q 128 385 81 354 q 244 432 175 417 q 406 447 314 447 l 406 503 q 399 539 406 525 q 380 560 393 553 q 347 568 367 568 q 317 562 331 568 q 294 544 303 556 q 286 514 286 532 l 286 503 l 57 503 q 56 513 56 508 q 56 524 56 518 q 90 644 56 593 q 191 722 124 694 q 357 750 258 750 q 499 731 432 750 q 607 661 565 711 q 649 521 649 611 l 649 215 q 658 183 649 196 q 690 169 668 169 l 719 169 l 719 11 q 660 -9 696 -1 q 586 -17 625 -17 q 510 -6 543 -17 q 458 24 478 4 q 431 69 438 43 l 424 69 q 380 26 406 46 q 318 -5 354 7 q 232 -17 282 -17 m 335 164 q 365 171 351 164 q 388 190 379 178 q 401 217 397 201 q 406 251 406 233 l 406 319 q 328 308 356 319 q 290 275 300 296 q 279 229 279 254 q 286 192 279 207 q 306 171 293 178 q 335 164 318 164 m 314 819 l 314 903 l 338 903 q 365 908 357 903 q 374 926 374 913 q 362 946 374 942 q 332 950 350 950 l 258 950 l 258 1015 q 292 1022 275 1019 q 326 1024 308 1024 q 358 1025 343 1025 q 406 1021 382 1025 q 449 1007 431 1017 q 480 981 468 997 q 492 942 492 965 q 478 895 492 914 q 441 867 464 876 q 392 854 418 857 l 392 819 l 314 819 z "},"ȃ":{"ha":722,"x_min":32,"x_max":719,"o":"m 232 -17 q 149 -4 186 -17 q 86 33 113 8 q 46 97 60 58 q 32 189 32 136 q 56 305 32 256 q 128 385 81 354 q 244 432 175 417 q 406 447 314 447 l 406 503 q 399 539 406 525 q 380 560 393 553 q 347 568 367 568 q 317 562 331 568 q 294 544 303 556 q 286 514 286 532 l 286 503 l 57 503 q 56 513 56 508 q 56 524 56 518 q 90 644 56 593 q 191 722 124 694 q 357 750 258 750 q 499 731 432 750 q 607 661 565 711 q 649 521 649 611 l 649 215 q 658 183 649 196 q 690 169 668 169 l 719 169 l 719 11 q 660 -9 696 -1 q 586 -17 625 -17 q 510 -6 543 -17 q 458 24 478 4 q 431 69 438 43 l 424 69 q 380 26 406 46 q 318 -5 354 7 q 232 -17 282 -17 m 335 164 q 365 171 351 164 q 388 190 379 178 q 401 217 397 201 q 406 251 406 233 l 406 319 q 328 308 356 319 q 290 275 300 296 q 279 229 279 254 q 286 192 279 207 q 306 171 293 178 q 335 164 318 164 m 354 1007 q 465 976 422 1007 q 529 899 508 944 q 550 806 550 853 l 436 806 q 426 849 436 829 q 397 881 415 868 q 354 893 378 893 q 314 881 332 893 q 285 850 296 869 q 272 806 274 831 l 157 806 q 178 899 157 853 q 242 976 199 944 q 354 1007 285 1007 z "},"ā":{"ha":722,"x_min":32,"x_max":719,"o":"m 232 -17 q 149 -4 186 -17 q 86 33 113 8 q 46 97 60 58 q 32 189 32 136 q 56 305 32 256 q 128 385 81 354 q 244 432 175 417 q 406 447 314 447 l 406 503 q 399 539 406 525 q 380 560 393 553 q 347 568 367 568 q 317 562 331 568 q 294 544 303 556 q 286 514 286 532 l 286 503 l 57 503 q 56 513 56 508 q 56 524 56 518 q 90 644 56 593 q 191 722 124 694 q 357 750 258 750 q 499 731 432 750 q 607 661 565 711 q 649 521 649 611 l 649 215 q 658 183 649 196 q 690 169 668 169 l 719 169 l 719 11 q 660 -9 696 -1 q 586 -17 625 -17 q 510 -6 543 -17 q 458 24 478 4 q 431 69 438 43 l 424 69 q 380 26 406 46 q 318 -5 354 7 q 232 -17 282 -17 m 335 164 q 365 171 351 164 q 388 190 379 178 q 401 217 397 201 q 406 251 406 233 l 406 319 q 328 308 356 319 q 290 275 300 296 q 279 229 279 254 q 286 192 279 207 q 306 171 293 178 q 335 164 318 164 m 186 832 l 186 971 l 521 971 l 521 832 l 186 832 z "},"ą":{"ha":722,"x_min":32,"x_max":719,"o":"m 232 -17 q 149 -4 186 -17 q 86 33 113 8 q 46 97 60 58 q 32 189 32 136 q 56 305 32 256 q 128 385 81 354 q 244 432 175 417 q 406 447 314 447 l 406 503 q 399 539 406 525 q 380 560 393 553 q 347 568 367 568 q 317 562 331 568 q 294 544 303 556 q 286 514 286 532 l 286 503 l 57 503 q 56 513 56 508 q 56 524 56 518 q 90 644 56 593 q 191 722 124 694 q 357 750 258 750 q 499 731 432 750 q 607 661 565 711 q 649 521 649 611 l 649 215 q 658 183 649 196 q 690 169 668 169 l 719 169 l 719 11 q 660 -9 696 -1 q 586 -17 625 -17 q 510 -6 543 -17 q 458 24 478 4 q 431 69 438 43 l 424 69 q 380 26 406 46 q 318 -5 354 7 q 232 -17 282 -17 m 335 164 q 365 171 351 164 q 388 190 379 178 q 401 217 397 201 q 406 251 406 233 l 406 319 q 328 308 356 319 q 290 275 300 296 q 279 229 279 254 q 286 192 279 207 q 306 171 293 178 q 335 164 318 164 m 594 -293 q 522 -276 556 -292 q 467 -226 489 -260 q 446 -135 446 -192 q 466 -48 446 -83 q 508 17 486 -12 l 631 17 l 631 11 q 594 -33 606 -6 q 582 -86 582 -60 q 599 -144 582 -122 q 647 -167 615 -167 l 701 -167 l 701 -272 q 649 -288 678 -283 q 594 -293 619 -293 z "},"å":{"ha":722,"x_min":32,"x_max":719,"o":"m 232 -17 q 149 -4 186 -17 q 86 33 113 8 q 46 97 60 58 q 32 189 32 136 q 56 305 32 256 q 128 385 81 354 q 244 432 175 417 q 406 447 314 447 l 406 503 q 399 539 406 525 q 380 560 393 553 q 347 568 367 568 q 317 562 331 568 q 294 544 303 556 q 286 514 286 532 l 286 503 l 57 503 q 56 513 56 508 q 56 524 56 518 q 90 644 56 593 q 191 722 124 694 q 357 750 258 750 q 499 731 432 750 q 607 661 565 711 q 649 521 649 611 l 649 215 q 658 183 649 196 q 690 169 668 169 l 719 169 l 719 11 q 660 -9 696 -1 q 586 -17 625 -17 q 510 -6 543 -17 q 458 24 478 4 q 431 69 438 43 l 424 69 q 380 26 406 46 q 318 -5 354 7 q 232 -17 282 -17 m 335 164 q 365 171 351 164 q 388 190 379 178 q 401 217 397 201 q 406 251 406 233 l 406 319 q 328 308 356 319 q 290 275 300 296 q 279 229 279 254 q 286 192 279 207 q 306 171 293 178 q 335 164 318 164 m 354 800 q 243 842 288 800 q 199 950 199 885 q 243 1058 199 1015 q 354 1101 288 1101 q 465 1058 421 1101 q 508 950 508 1015 q 465 842 508 885 q 354 800 421 800 m 354 892 q 394 908 378 892 q 410 951 410 925 q 394 992 410 976 q 354 1008 378 1008 q 315 992 331 1008 q 299 950 299 975 q 315 908 299 925 q 354 892 331 892 z "},"ǻ":{"ha":722,"x_min":32,"x_max":719,"o":"m 232 -17 q 149 -4 186 -17 q 86 33 113 8 q 46 97 60 58 q 32 189 32 136 q 56 305 32 256 q 128 385 81 354 q 244 432 175 417 q 406 447 314 447 l 406 503 q 399 539 406 525 q 380 560 393 553 q 347 568 367 568 q 317 562 331 568 q 294 544 303 556 q 286 514 286 532 l 286 503 l 57 503 q 56 513 56 508 q 56 524 56 518 q 90 644 56 593 q 191 722 124 694 q 357 750 258 750 q 499 731 432 750 q 607 661 565 711 q 649 521 649 611 l 649 215 q 658 183 649 196 q 690 169 668 169 l 719 169 l 719 11 q 660 -9 696 -1 q 586 -17 625 -17 q 510 -6 543 -17 q 458 24 478 4 q 431 69 438 43 l 424 69 q 380 26 406 46 q 318 -5 354 7 q 232 -17 282 -17 m 335 164 q 365 171 351 164 q 388 190 379 178 q 401 217 397 201 q 406 251 406 233 l 406 319 q 328 308 356 319 q 290 275 300 296 q 279 229 279 254 q 286 192 279 207 q 306 171 293 178 q 335 164 318 164 m 354 800 q 243 842 288 800 q 199 950 199 885 q 243 1058 199 1015 q 354 1101 288 1101 q 465 1058 421 1101 q 508 950 508 1015 q 465 842 508 885 q 354 800 421 800 m 354 892 q 394 908 378 892 q 410 951 410 925 q 394 992 410 976 q 354 1008 378 1008 q 315 992 331 1008 q 299 950 299 975 q 315 908 299 925 q 354 892 331 892 m 249 1143 l 344 1328 l 568 1328 l 569 1322 l 401 1143 l 249 1143 z "},"ã":{"ha":722,"x_min":32,"x_max":719,"o":"m 232 -17 q 149 -4 186 -17 q 86 33 113 8 q 46 97 60 58 q 32 189 32 136 q 56 305 32 256 q 128 385 81 354 q 244 432 175 417 q 406 447 314 447 l 406 503 q 399 539 406 525 q 380 560 393 553 q 347 568 367 568 q 317 562 331 568 q 294 544 303 556 q 286 514 286 532 l 286 503 l 57 503 q 56 513 56 508 q 56 524 56 518 q 90 644 56 593 q 191 722 124 694 q 357 750 258 750 q 499 731 432 750 q 607 661 565 711 q 649 521 649 611 l 649 215 q 658 183 649 196 q 690 169 668 169 l 719 169 l 719 11 q 660 -9 696 -1 q 586 -17 625 -17 q 510 -6 543 -17 q 458 24 478 4 q 431 69 438 43 l 424 69 q 380 26 406 46 q 318 -5 354 7 q 232 -17 282 -17 m 335 164 q 365 171 351 164 q 388 190 379 178 q 401 217 397 201 q 406 251 406 233 l 406 319 q 328 308 356 319 q 290 275 300 296 q 279 229 279 254 q 286 192 279 207 q 306 171 293 178 q 335 164 318 164 m 110 815 q 128 914 110 871 q 181 981 147 957 q 260 1006 215 1006 q 325 993 293 1006 q 386 967 357 981 q 444 954 415 954 q 479 969 465 954 q 500 1006 493 983 l 599 1006 q 580 908 599 950 q 527 840 561 865 q 449 815 493 815 q 383 828 414 815 q 324 853 353 840 q 264 867 294 867 q 227 852 242 867 q 208 815 213 838 l 110 815 z "},"æ":{"ha":1065,"x_min":32,"x_max":1031,"o":"m 251 -17 q 158 -4 199 -17 q 90 33 118 8 q 47 99 63 58 q 32 193 32 139 q 56 308 32 260 q 128 385 81 356 q 244 431 175 415 q 406 446 314 446 l 406 503 q 399 539 406 525 q 381 560 393 553 q 350 568 368 568 q 317 562 332 568 q 294 544 303 556 q 286 514 286 532 l 286 503 l 57 503 q 56 513 56 508 q 56 524 56 518 q 90 644 56 593 q 191 722 124 694 q 357 750 258 750 q 460 740 410 750 q 547 701 510 729 q 628 738 583 726 q 724 750 672 750 q 897 714 829 750 q 997 594 964 678 q 1031 367 1031 510 l 1031 324 l 650 324 q 656 228 650 265 q 678 173 663 190 q 721 156 693 156 q 755 163 742 156 q 775 183 768 169 q 785 218 782 197 q 789 267 789 239 l 1028 267 q 1010 142 1028 194 q 954 53 992 89 q 859 1 917 18 q 724 -17 801 -17 q 572 8 635 -17 q 468 86 508 32 q 417 36 447 60 q 347 -2 388 13 q 251 -17 306 -17 m 335 164 q 365 171 351 164 q 388 190 379 178 q 401 217 397 201 q 406 251 406 233 l 406 324 q 328 310 356 324 q 290 276 300 297 q 279 229 279 254 q 286 192 279 207 q 306 171 293 178 q 335 164 318 164 m 650 446 l 782 446 q 779 509 782 483 q 769 550 776 535 q 749 572 761 565 q 718 578 736 578 q 679 565 693 578 q 658 524 665 553 q 650 446 651 494 z "},"ǽ":{"ha":1065,"x_min":32,"x_max":1031,"o":"m 251 -17 q 158 -4 199 -17 q 90 33 118 8 q 47 99 63 58 q 32 193 32 139 q 56 308 32 260 q 128 385 81 356 q 244 431 175 415 q 406 446 314 446 l 406 503 q 399 539 406 525 q 381 560 393 553 q 350 568 368 568 q 317 562 332 568 q 294 544 303 556 q 286 514 286 532 l 286 503 l 57 503 q 56 513 56 508 q 56 524 56 518 q 90 644 56 593 q 191 722 124 694 q 357 750 258 750 q 460 740 410 750 q 547 701 510 729 q 628 738 583 726 q 724 750 672 750 q 897 714 829 750 q 997 594 964 678 q 1031 367 1031 510 l 1031 324 l 650 324 q 656 228 650 265 q 678 173 663 190 q 721 156 693 156 q 755 163 742 156 q 775 183 768 169 q 785 218 782 197 q 789 267 789 239 l 1028 267 q 1010 142 1028 194 q 954 53 992 89 q 859 1 917 18 q 724 -17 801 -17 q 572 8 635 -17 q 468 86 508 32 q 417 36 447 60 q 347 -2 388 13 q 251 -17 306 -17 m 335 164 q 365 171 351 164 q 388 190 379 178 q 401 217 397 201 q 406 251 406 233 l 406 324 q 328 310 356 324 q 290 276 300 297 q 279 229 279 254 q 286 192 279 207 q 306 171 293 178 q 335 164 318 164 m 650 446 l 782 446 q 779 509 782 483 q 769 550 776 535 q 749 572 761 565 q 718 578 736 578 q 679 565 693 578 q 658 524 665 553 q 650 446 651 494 m 432 822 l 529 1007 l 753 1007 l 754 1001 l 585 822 l 432 822 z "},"b":{"ha":719,"x_min":60,"x_max":683,"o":"m 458 -17 q 350 12 393 -17 q 282 89 307 40 l 275 89 l 260 0 l 60 0 l 60 1007 l 303 1007 l 303 656 l 311 656 q 346 705 325 683 q 397 738 367 726 q 467 750 428 750 q 590 710 542 750 q 660 586 638 669 q 683 375 683 503 q 660 158 683 246 q 587 27 636 71 q 458 -17 538 -17 m 368 186 q 408 199 393 186 q 429 238 422 211 q 436 303 436 264 l 436 421 q 429 486 436 461 q 408 524 422 511 q 368 538 393 538 q 335 530 349 538 q 315 506 322 522 q 304 468 307 490 q 301 415 301 446 l 301 307 q 307 241 301 268 q 328 200 313 214 q 368 186 343 186 z "},"c":{"ha":701,"x_min":35,"x_max":663,"o":"m 351 -17 q 178 25 249 -17 q 72 151 108 67 q 35 367 35 236 q 72 583 35 497 q 178 709 108 668 q 351 750 249 750 q 478 735 421 750 q 577 683 536 719 q 640 587 618 647 q 663 438 663 526 l 425 438 q 418 514 425 486 q 396 553 411 542 q 354 564 381 564 q 313 551 328 564 q 290 510 297 539 q 282 433 282 482 l 282 299 q 290 222 282 251 q 315 181 299 193 q 357 169 331 169 q 401 181 385 169 q 425 219 418 192 q 432 297 432 247 l 663 297 q 641 153 663 213 q 578 56 619 93 q 480 1 538 18 q 351 -17 422 -17 z "},"ć":{"ha":701,"x_min":35,"x_max":663,"o":"m 351 -17 q 178 25 249 -17 q 72 151 108 67 q 35 367 35 236 q 72 583 35 497 q 178 709 108 668 q 351 750 249 750 q 478 735 421 750 q 577 683 536 719 q 640 587 618 647 q 663 438 663 526 l 425 438 q 418 514 425 486 q 396 553 411 542 q 354 564 381 564 q 313 551 328 564 q 290 510 297 539 q 282 433 282 482 l 282 299 q 290 222 282 251 q 315 181 299 193 q 357 169 331 169 q 401 181 385 169 q 425 219 418 192 q 432 297 432 247 l 663 297 q 641 153 663 213 q 578 56 619 93 q 480 1 538 18 q 351 -17 422 -17 m 246 819 l 343 1004 l 567 1004 l 568 999 l 399 819 l 246 819 z "},"č":{"ha":701,"x_min":35,"x_max":663,"o":"m 351 -17 q 178 25 249 -17 q 72 151 108 67 q 35 367 35 236 q 72 583 35 497 q 178 709 108 668 q 351 750 249 750 q 478 735 421 750 q 577 683 536 719 q 640 587 618 647 q 663 438 663 526 l 425 438 q 418 514 425 486 q 396 553 411 542 q 354 564 381 564 q 313 551 328 564 q 290 510 297 539 q 282 433 282 482 l 282 299 q 290 222 282 251 q 315 181 299 193 q 357 169 331 169 q 401 181 385 169 q 425 219 418 192 q 432 297 432 247 l 663 297 q 641 153 663 213 q 578 56 619 93 q 480 1 538 18 q 351 -17 422 -17 m 115 1004 l 274 1004 l 382 879 l 322 879 l 431 1004 l 588 1004 l 443 819 l 260 819 l 115 1004 z "},"ç":{"ha":701,"x_min":35,"x_max":663,"o":"m 351 -17 q 178 25 249 -17 q 72 151 108 67 q 35 367 35 236 q 72 583 35 497 q 178 709 108 668 q 351 750 249 750 q 478 735 421 750 q 577 683 536 719 q 640 587 618 647 q 663 438 663 526 l 425 438 q 418 514 425 486 q 396 553 411 542 q 354 564 381 564 q 313 551 328 564 q 290 510 297 539 q 282 433 282 482 l 282 299 q 290 222 282 251 q 315 181 299 193 q 357 169 331 169 q 401 181 385 169 q 425 219 418 192 q 432 297 432 247 l 663 297 q 641 153 663 213 q 578 56 619 93 q 480 1 538 18 q 351 -17 422 -17 m 368 -293 q 288 -287 331 -293 q 222 -271 246 -281 l 222 -192 l 328 -192 q 367 -187 353 -192 q 381 -161 381 -182 q 371 -134 381 -140 q 331 -128 361 -128 l 296 -128 l 318 54 l 432 54 l 421 -39 q 459 -53 438 -42 q 497 -90 481 -65 q 513 -160 513 -114 q 497 -226 513 -200 q 460 -267 482 -253 q 413 -287 438 -282 q 368 -293 389 -293 z "},"ĉ":{"ha":701,"x_min":35,"x_max":663,"o":"m 351 -17 q 178 25 249 -17 q 72 151 108 67 q 35 367 35 236 q 72 583 35 497 q 178 709 108 668 q 351 750 249 750 q 478 735 421 750 q 577 683 536 719 q 640 587 618 647 q 663 438 663 526 l 425 438 q 418 514 425 486 q 396 553 411 542 q 354 564 381 564 q 313 551 328 564 q 290 510 297 539 q 282 433 282 482 l 282 299 q 290 222 282 251 q 315 181 299 193 q 357 169 331 169 q 401 181 385 169 q 425 219 418 192 q 432 297 432 247 l 663 297 q 641 153 663 213 q 578 56 619 93 q 480 1 538 18 q 351 -17 422 -17 m 115 819 l 260 1004 l 443 1004 l 588 819 l 431 819 l 322 944 l 382 944 l 274 819 l 115 819 z "},"ċ":{"ha":701,"x_min":35,"x_max":663,"o":"m 351 -17 q 178 25 249 -17 q 72 151 108 67 q 35 367 35 236 q 72 583 35 497 q 178 709 108 668 q 351 750 249 750 q 478 735 421 750 q 577 683 536 719 q 640 587 618 647 q 663 438 663 526 l 425 438 q 418 514 425 486 q 396 553 411 542 q 354 564 381 564 q 313 551 328 564 q 290 510 297 539 q 282 433 282 482 l 282 299 q 290 222 282 251 q 315 181 299 193 q 357 169 331 169 q 401 181 385 169 q 425 219 418 192 q 432 297 432 247 l 663 297 q 641 153 663 213 q 578 56 619 93 q 480 1 538 18 q 351 -17 422 -17 m 271 826 l 271 1001 l 432 1001 l 432 826 l 271 826 z "},"d":{"ha":719,"x_min":35,"x_max":660,"o":"m 261 -17 q 133 27 183 -17 q 58 158 82 71 q 35 375 35 246 q 58 586 35 503 q 130 710 82 669 q 253 750 178 750 q 322 738 293 750 q 373 706 351 726 q 408 656 394 685 l 417 656 l 417 1007 l 660 1007 l 660 0 l 460 0 l 444 89 l 436 89 q 369 12 411 40 q 261 -17 326 -17 m 351 186 q 391 200 376 186 q 412 241 406 214 q 418 307 418 268 l 418 415 q 415 468 418 446 q 403 506 411 490 q 383 530 396 522 q 351 538 369 538 q 311 524 326 538 q 289 486 296 511 q 282 421 282 461 l 282 303 q 289 238 282 264 q 311 199 296 211 q 351 186 326 186 z "},"ð":{"ha":713,"x_min":35,"x_max":678,"o":"m 356 -17 q 180 25 251 -17 q 72 151 108 67 q 35 367 35 236 q 69 577 35 494 q 161 700 103 660 q 293 740 219 740 q 328 738 311 740 q 361 729 346 735 l 367 738 q 336 785 351 763 q 306 829 321 808 l 129 810 l 129 910 l 231 921 q 185 967 207 947 q 147 1001 163 988 l 147 1007 l 381 1007 q 399 992 389 1001 q 421 972 408 983 q 444 946 433 960 l 599 964 l 599 864 l 519 854 q 596 725 560 799 q 655 562 632 651 q 678 367 678 472 q 640 151 678 236 q 531 25 603 67 q 356 -17 460 -17 m 356 169 q 399 181 383 169 q 423 222 415 193 q 431 299 431 251 l 431 433 q 423 510 431 482 q 399 551 415 539 q 356 564 383 564 q 313 551 329 564 q 290 510 297 539 q 282 433 282 482 l 282 299 q 290 222 282 251 q 313 181 297 193 q 356 169 329 169 z "},"ď":{"ha":719,"x_min":35,"x_max":913,"o":"m 261 -17 q 133 27 183 -17 q 58 158 82 71 q 35 375 35 246 q 58 586 35 503 q 130 710 82 669 q 253 750 178 750 q 322 738 293 750 q 373 706 351 726 q 408 656 394 685 l 417 656 l 417 1007 l 660 1007 l 660 0 l 460 0 l 444 89 l 436 89 q 369 12 411 40 q 261 -17 326 -17 m 351 186 q 391 200 376 186 q 412 241 406 214 q 418 307 418 268 l 418 415 q 415 468 418 446 q 403 506 411 490 q 383 530 396 522 q 351 538 369 538 q 311 524 326 538 q 289 486 296 511 q 282 421 282 461 l 282 303 q 289 238 282 264 q 311 199 296 211 q 351 186 326 186 m 706 771 l 706 1007 l 913 1007 l 851 771 l 706 771 z "},"đ":{"ha":719,"x_min":35,"x_max":728,"o":"m 261 -17 q 133 27 183 -17 q 58 158 82 71 q 35 375 35 246 q 58 586 35 503 q 130 710 82 669 q 253 750 178 750 q 322 738 293 750 q 373 706 351 726 q 408 656 394 685 l 417 656 l 417 1007 l 660 1007 l 660 0 l 460 0 l 444 89 l 436 89 q 369 12 411 40 q 261 -17 326 -17 m 351 186 q 391 200 376 186 q 412 241 406 214 q 418 307 418 268 l 418 415 q 415 468 418 446 q 403 506 411 490 q 383 530 396 522 q 351 538 369 538 q 311 524 326 538 q 289 486 296 511 q 282 421 282 461 l 282 303 q 289 238 282 264 q 311 199 296 211 q 351 186 326 186 m 250 792 l 250 931 l 728 931 l 728 792 l 250 792 z "},"ǆ":{"ha":1333,"x_min":35,"x_max":1304,"o":"m 261 -17 q 133 27 183 -17 q 58 158 82 71 q 35 375 35 246 q 58 586 35 503 q 130 710 82 669 q 253 750 178 750 q 322 738 293 750 q 373 706 351 726 q 408 656 394 685 l 417 656 l 417 1007 l 660 1007 l 660 0 l 460 0 l 444 89 l 436 89 q 369 12 411 40 q 261 -17 326 -17 m 351 186 q 391 200 376 186 q 412 241 406 214 q 418 307 418 268 l 418 415 q 415 468 418 446 q 403 506 411 490 q 383 530 396 522 q 351 538 369 538 q 311 524 326 538 q 289 486 296 511 q 282 421 282 461 l 282 303 q 289 238 282 264 q 311 199 296 211 q 351 186 326 186 m 747 0 l 747 90 l 976 547 l 760 547 l 760 733 l 1294 733 l 1294 647 l 1064 186 l 1304 186 l 1304 0 l 747 0 m 790 1007 l 947 1007 l 1057 882 l 996 882 l 1106 1007 l 1263 1007 l 1117 822 l 935 822 l 790 1007 z "},"e":{"ha":708,"x_min":35,"x_max":672,"o":"m 357 -17 q 179 22 251 -17 q 71 146 107 61 q 35 367 35 231 q 74 588 35 504 q 184 711 113 672 q 357 750 256 750 q 535 714 465 750 q 638 594 604 678 q 672 367 672 510 l 672 326 l 282 326 q 289 231 282 268 q 313 174 296 193 q 358 156 329 156 q 394 163 381 156 q 417 183 408 169 q 428 218 425 197 q 431 267 431 239 l 671 267 q 652 142 671 194 q 594 53 633 89 q 497 1 556 18 q 357 -17 438 -17 m 283 443 l 425 443 q 422 506 425 481 q 410 548 418 532 q 390 571 403 564 q 357 578 376 578 q 315 564 331 578 q 292 521 300 550 q 283 443 285 492 z "},"é":{"ha":708,"x_min":35,"x_max":672,"o":"m 357 -17 q 179 22 251 -17 q 71 146 107 61 q 35 367 35 231 q 74 588 35 504 q 184 711 113 672 q 357 750 256 750 q 535 714 465 750 q 638 594 604 678 q 672 367 672 510 l 672 326 l 282 326 q 289 231 282 268 q 313 174 296 193 q 358 156 329 156 q 394 163 381 156 q 417 183 408 169 q 428 218 425 197 q 431 267 431 239 l 671 267 q 652 142 671 194 q 594 53 633 89 q 497 1 556 18 q 357 -17 438 -17 m 283 443 l 425 443 q 422 506 425 481 q 410 548 418 532 q 390 571 403 564 q 357 578 376 578 q 315 564 331 578 q 292 521 300 550 q 283 443 285 492 m 243 822 l 340 1007 l 564 1007 l 565 1001 l 396 822 l 243 822 z "},"ĕ":{"ha":708,"x_min":35,"x_max":672,"o":"m 357 -17 q 179 22 251 -17 q 71 146 107 61 q 35 367 35 231 q 74 588 35 504 q 184 711 113 672 q 357 750 256 750 q 535 714 465 750 q 638 594 604 678 q 672 367 672 510 l 672 326 l 282 326 q 289 231 282 268 q 313 174 296 193 q 358 156 329 156 q 394 163 381 156 q 417 183 408 169 q 428 218 425 197 q 431 267 431 239 l 671 267 q 652 142 671 194 q 594 53 633 89 q 497 1 556 18 q 357 -17 438 -17 m 283 443 l 425 443 q 422 506 425 481 q 410 548 418 532 q 390 571 403 564 q 357 578 376 578 q 315 564 331 578 q 292 521 300 550 q 283 443 285 492 m 349 806 q 238 837 281 806 q 174 915 194 868 q 153 1007 153 961 l 268 1007 q 281 963 269 983 q 310 931 292 943 q 349 919 328 919 q 392 932 374 919 q 421 965 411 944 q 432 1007 431 986 l 546 1007 q 525 915 546 961 q 460 837 504 868 q 349 806 417 806 z "},"ě":{"ha":708,"x_min":35,"x_max":672,"o":"m 357 -17 q 179 22 251 -17 q 71 146 107 61 q 35 367 35 231 q 74 588 35 504 q 184 711 113 672 q 357 750 256 750 q 535 714 465 750 q 638 594 604 678 q 672 367 672 510 l 672 326 l 282 326 q 289 231 282 268 q 313 174 296 193 q 358 156 329 156 q 394 163 381 156 q 417 183 408 169 q 428 218 425 197 q 431 267 431 239 l 671 267 q 652 142 671 194 q 594 53 633 89 q 497 1 556 18 q 357 -17 438 -17 m 283 443 l 425 443 q 422 506 425 481 q 410 548 418 532 q 390 571 403 564 q 357 578 376 578 q 315 564 331 578 q 292 521 300 550 q 283 443 285 492 m 113 1007 l 271 1007 l 379 882 l 319 882 l 429 1007 l 585 1007 l 440 822 l 258 822 l 113 1007 z "},"ê":{"ha":708,"x_min":35,"x_max":672,"o":"m 357 -17 q 179 22 251 -17 q 71 146 107 61 q 35 367 35 231 q 74 588 35 504 q 184 711 113 672 q 357 750 256 750 q 535 714 465 750 q 638 594 604 678 q 672 367 672 510 l 672 326 l 282 326 q 289 231 282 268 q 313 174 296 193 q 358 156 329 156 q 394 163 381 156 q 417 183 408 169 q 428 218 425 197 q 431 267 431 239 l 671 267 q 652 142 671 194 q 594 53 633 89 q 497 1 556 18 q 357 -17 438 -17 m 283 443 l 425 443 q 422 506 425 481 q 410 548 418 532 q 390 571 403 564 q 357 578 376 578 q 315 564 331 578 q 292 521 300 550 q 283 443 285 492 m 113 822 l 258 1007 l 440 1007 l 585 822 l 429 822 l 319 947 l 379 947 l 271 822 l 113 822 z "},"ế":{"ha":708,"x_min":35,"x_max":672,"o":"m 357 -17 q 179 22 251 -17 q 71 146 107 61 q 35 367 35 231 q 74 588 35 504 q 184 711 113 672 q 357 750 256 750 q 535 714 465 750 q 638 594 604 678 q 672 367 672 510 l 672 326 l 282 326 q 289 231 282 268 q 313 174 296 193 q 358 156 329 156 q 394 163 381 156 q 417 183 408 169 q 428 218 425 197 q 431 267 431 239 l 671 267 q 652 142 671 194 q 594 53 633 89 q 497 1 556 18 q 357 -17 438 -17 m 283 443 l 425 443 q 422 506 425 481 q 410 548 418 532 q 390 571 403 564 q 357 578 376 578 q 315 564 331 578 q 292 521 300 550 q 283 443 285 492 m 113 822 l 258 1007 l 440 1007 l 585 822 l 429 822 l 319 947 l 379 947 l 271 822 l 113 822 m 243 1075 l 340 1260 l 564 1260 l 565 1254 l 396 1075 l 243 1075 z "},"ệ":{"ha":708,"x_min":35,"x_max":672,"o":"m 357 -17 q 179 22 251 -17 q 71 146 107 61 q 35 367 35 231 q 74 588 35 504 q 184 711 113 672 q 357 750 256 750 q 535 714 465 750 q 638 594 604 678 q 672 367 672 510 l 672 326 l 282 326 q 289 231 282 268 q 313 174 296 193 q 358 156 329 156 q 394 163 381 156 q 417 183 408 169 q 428 218 425 197 q 431 267 431 239 l 671 267 q 652 142 671 194 q 594 53 633 89 q 497 1 556 18 q 357 -17 438 -17 m 283 443 l 425 443 q 422 506 425 481 q 410 548 418 532 q 390 571 403 564 q 357 578 376 578 q 315 564 331 578 q 292 521 300 550 q 283 443 285 492 m 274 -260 l 274 -83 l 435 -83 l 435 -260 l 274 -260 m 113 822 l 258 1007 l 440 1007 l 585 822 l 429 822 l 319 947 l 379 947 l 271 822 l 113 822 z "},"ề":{"ha":708,"x_min":35,"x_max":672,"o":"m 357 -17 q 179 22 251 -17 q 71 146 107 61 q 35 367 35 231 q 74 588 35 504 q 184 711 113 672 q 357 750 256 750 q 535 714 465 750 q 638 594 604 678 q 672 367 672 510 l 672 326 l 282 326 q 289 231 282 268 q 313 174 296 193 q 358 156 329 156 q 394 163 381 156 q 417 183 408 169 q 428 218 425 197 q 431 267 431 239 l 671 267 q 652 142 671 194 q 594 53 633 89 q 497 1 556 18 q 357 -17 438 -17 m 283 443 l 425 443 q 422 506 425 481 q 410 548 418 532 q 390 571 403 564 q 357 578 376 578 q 315 564 331 578 q 292 521 300 550 q 283 443 285 492 m 113 822 l 258 1007 l 440 1007 l 585 822 l 429 822 l 319 947 l 379 947 l 271 822 l 113 822 m 450 1075 l 297 1075 l 128 1254 l 129 1260 l 353 1260 l 450 1075 z "},"ể":{"ha":708,"x_min":35,"x_max":672,"o":"m 357 -17 q 179 22 251 -17 q 71 146 107 61 q 35 367 35 231 q 74 588 35 504 q 184 711 113 672 q 357 750 256 750 q 535 714 465 750 q 638 594 604 678 q 672 367 672 510 l 672 326 l 282 326 q 289 231 282 268 q 313 174 296 193 q 358 156 329 156 q 394 163 381 156 q 417 183 408 169 q 428 218 425 197 q 431 267 431 239 l 671 267 q 652 142 671 194 q 594 53 633 89 q 497 1 556 18 q 357 -17 438 -17 m 283 443 l 425 443 q 422 506 425 481 q 410 548 418 532 q 390 571 403 564 q 357 578 376 578 q 315 564 331 578 q 292 521 300 550 q 283 443 285 492 m 113 822 l 258 1007 l 440 1007 l 585 822 l 429 822 l 319 947 l 379 947 l 271 822 l 113 822 m 310 1074 l 310 1156 l 333 1156 q 361 1161 353 1156 q 369 1181 369 1167 q 358 1199 369 1196 q 328 1203 346 1203 l 254 1203 l 254 1269 q 287 1274 269 1272 q 322 1278 304 1276 q 353 1279 339 1279 q 402 1274 378 1279 q 445 1260 426 1269 q 476 1235 464 1251 q 488 1196 488 1219 q 474 1149 488 1168 q 437 1121 460 1131 q 388 1108 414 1111 l 388 1074 l 310 1074 z "},"ễ":{"ha":708,"x_min":35,"x_max":672,"o":"m 357 -17 q 179 22 251 -17 q 71 146 107 61 q 35 367 35 231 q 74 588 35 504 q 184 711 113 672 q 357 750 256 750 q 535 714 465 750 q 638 594 604 678 q 672 367 672 510 l 672 326 l 282 326 q 289 231 282 268 q 313 174 296 193 q 358 156 329 156 q 394 163 381 156 q 417 183 408 169 q 428 218 425 197 q 431 267 431 239 l 671 267 q 652 142 671 194 q 594 53 633 89 q 497 1 556 18 q 357 -17 438 -17 m 283 443 l 425 443 q 422 506 425 481 q 410 548 418 532 q 390 571 403 564 q 357 578 376 578 q 315 564 331 578 q 292 521 300 550 q 283 443 285 492 m 113 822 l 258 1007 l 440 1007 l 585 822 l 429 822 l 319 947 l 379 947 l 271 822 l 113 822 m 106 1068 q 124 1167 106 1124 q 176 1235 143 1211 q 256 1260 210 1260 q 320 1247 289 1260 q 381 1221 351 1233 q 440 1208 411 1208 q 475 1223 461 1208 q 496 1260 489 1238 l 594 1260 q 576 1161 594 1204 q 523 1093 557 1118 q 444 1068 489 1068 q 379 1081 410 1068 q 319 1108 349 1094 q 258 1121 290 1121 q 223 1106 238 1121 q 204 1068 208 1092 l 106 1068 z "},"ȅ":{"ha":708,"x_min":35,"x_max":672,"o":"m 357 -17 q 179 22 251 -17 q 71 146 107 61 q 35 367 35 231 q 74 588 35 504 q 184 711 113 672 q 357 750 256 750 q 535 714 465 750 q 638 594 604 678 q 672 367 672 510 l 672 326 l 282 326 q 289 231 282 268 q 313 174 296 193 q 358 156 329 156 q 394 163 381 156 q 417 183 408 169 q 428 218 425 197 q 431 267 431 239 l 671 267 q 652 142 671 194 q 594 53 633 89 q 497 1 556 18 q 357 -17 438 -17 m 283 443 l 425 443 q 422 506 425 481 q 410 548 418 532 q 390 571 403 564 q 357 578 376 578 q 315 564 331 578 q 292 521 300 550 q 283 443 285 492 m 410 822 l 263 1003 l 264 1008 l 453 1008 l 533 822 l 410 822 m 186 822 l 38 1003 l 40 1008 l 229 1008 l 310 822 l 186 822 z "},"ë":{"ha":708,"x_min":35,"x_max":672,"o":"m 357 -17 q 179 22 251 -17 q 71 146 107 61 q 35 367 35 231 q 74 588 35 504 q 184 711 113 672 q 357 750 256 750 q 535 714 465 750 q 638 594 604 678 q 672 367 672 510 l 672 326 l 282 326 q 289 231 282 268 q 313 174 296 193 q 358 156 329 156 q 394 163 381 156 q 417 183 408 169 q 428 218 425 197 q 431 267 431 239 l 671 267 q 652 142 671 194 q 594 53 633 89 q 497 1 556 18 q 357 -17 438 -17 m 283 443 l 425 443 q 422 506 425 481 q 410 548 418 532 q 390 571 403 564 q 357 578 376 578 q 315 564 331 578 q 292 521 300 550 q 283 443 285 492 m 153 829 l 153 1007 l 314 1007 l 314 829 l 153 829 m 386 829 l 386 1007 l 547 1007 l 547 829 l 386 829 z "},"ė":{"ha":708,"x_min":35,"x_max":672,"o":"m 357 -17 q 179 22 251 -17 q 71 146 107 61 q 35 367 35 231 q 74 588 35 504 q 184 711 113 672 q 357 750 256 750 q 535 714 465 750 q 638 594 604 678 q 672 367 672 510 l 672 326 l 282 326 q 289 231 282 268 q 313 174 296 193 q 358 156 329 156 q 394 163 381 156 q 417 183 408 169 q 428 218 425 197 q 431 267 431 239 l 671 267 q 652 142 671 194 q 594 53 633 89 q 497 1 556 18 q 357 -17 438 -17 m 283 443 l 425 443 q 422 506 425 481 q 410 548 418 532 q 390 571 403 564 q 357 578 376 578 q 315 564 331 578 q 292 521 300 550 q 283 443 285 492 m 269 829 l 269 1004 l 431 1004 l 431 829 l 269 829 z "},"ẹ":{"ha":708,"x_min":35,"x_max":672,"o":"m 357 -17 q 179 22 251 -17 q 71 146 107 61 q 35 367 35 231 q 74 588 35 504 q 184 711 113 672 q 357 750 256 750 q 535 714 465 750 q 638 594 604 678 q 672 367 672 510 l 672 326 l 282 326 q 289 231 282 268 q 313 174 296 193 q 358 156 329 156 q 394 163 381 156 q 417 183 408 169 q 428 218 425 197 q 431 267 431 239 l 671 267 q 652 142 671 194 q 594 53 633 89 q 497 1 556 18 q 357 -17 438 -17 m 283 443 l 425 443 q 422 506 425 481 q 410 548 418 532 q 390 571 403 564 q 357 578 376 578 q 315 564 331 578 q 292 521 300 550 q 283 443 285 492 m 274 -260 l 274 -83 l 435 -83 l 435 -260 l 274 -260 z "},"è":{"ha":708,"x_min":35,"x_max":672,"o":"m 357 -17 q 179 22 251 -17 q 71 146 107 61 q 35 367 35 231 q 74 588 35 504 q 184 711 113 672 q 357 750 256 750 q 535 714 465 750 q 638 594 604 678 q 672 367 672 510 l 672 326 l 282 326 q 289 231 282 268 q 313 174 296 193 q 358 156 329 156 q 394 163 381 156 q 417 183 408 169 q 428 218 425 197 q 431 267 431 239 l 671 267 q 652 142 671 194 q 594 53 633 89 q 497 1 556 18 q 357 -17 438 -17 m 283 443 l 425 443 q 422 506 425 481 q 410 548 418 532 q 390 571 403 564 q 357 578 376 578 q 315 564 331 578 q 292 521 300 550 q 283 443 285 492 m 450 822 l 297 822 l 128 1001 l 129 1007 l 353 1007 l 450 822 z "},"ẻ":{"ha":708,"x_min":35,"x_max":672,"o":"m 357 -17 q 179 22 251 -17 q 71 146 107 61 q 35 367 35 231 q 74 588 35 504 q 184 711 113 672 q 357 750 256 750 q 535 714 465 750 q 638 594 604 678 q 672 367 672 510 l 672 326 l 282 326 q 289 231 282 268 q 313 174 296 193 q 358 156 329 156 q 394 163 381 156 q 417 183 408 169 q 428 218 425 197 q 431 267 431 239 l 671 267 q 652 142 671 194 q 594 53 633 89 q 497 1 556 18 q 357 -17 438 -17 m 283 443 l 425 443 q 422 506 425 481 q 410 548 418 532 q 390 571 403 564 q 357 578 376 578 q 315 564 331 578 q 292 521 300 550 q 283 443 285 492 m 310 821 l 310 903 l 333 903 q 361 908 353 903 q 369 928 369 914 q 358 947 369 943 q 328 950 346 950 l 254 950 l 254 1017 q 287 1022 269 1019 q 322 1025 304 1024 q 353 1026 339 1026 q 402 1022 378 1026 q 445 1008 426 1017 q 476 983 464 999 q 488 943 488 967 q 474 897 488 915 q 437 868 460 878 q 388 856 414 858 l 388 821 l 310 821 z "},"ȇ":{"ha":708,"x_min":35,"x_max":672,"o":"m 357 -17 q 179 22 251 -17 q 71 146 107 61 q 35 367 35 231 q 74 588 35 504 q 184 711 113 672 q 357 750 256 750 q 535 714 465 750 q 638 594 604 678 q 672 367 672 510 l 672 326 l 282 326 q 289 231 282 268 q 313 174 296 193 q 358 156 329 156 q 394 163 381 156 q 417 183 408 169 q 428 218 425 197 q 431 267 431 239 l 671 267 q 652 142 671 194 q 594 53 633 89 q 497 1 556 18 q 357 -17 438 -17 m 283 443 l 425 443 q 422 506 425 481 q 410 548 418 532 q 390 571 403 564 q 357 578 376 578 q 315 564 331 578 q 292 521 300 550 q 283 443 285 492 m 349 1008 q 460 977 417 1008 q 525 900 504 946 q 546 807 546 854 l 432 807 q 421 849 431 829 q 392 882 411 869 q 349 894 374 894 q 310 883 328 894 q 281 851 292 871 q 268 807 269 832 l 153 807 q 174 900 153 854 q 238 977 194 946 q 349 1008 281 1008 z "},"ē":{"ha":708,"x_min":35,"x_max":672,"o":"m 357 -17 q 179 22 251 -17 q 71 146 107 61 q 35 367 35 231 q 74 588 35 504 q 184 711 113 672 q 357 750 256 750 q 535 714 465 750 q 638 594 604 678 q 672 367 672 510 l 672 326 l 282 326 q 289 231 282 268 q 313 174 296 193 q 358 156 329 156 q 394 163 381 156 q 417 183 408 169 q 428 218 425 197 q 431 267 431 239 l 671 267 q 652 142 671 194 q 594 53 633 89 q 497 1 556 18 q 357 -17 438 -17 m 283 443 l 425 443 q 422 506 425 481 q 410 548 418 532 q 390 571 403 564 q 357 578 376 578 q 315 564 331 578 q 292 521 300 550 q 283 443 285 492 m 182 833 l 182 972 l 517 972 l 517 833 l 182 833 z "},"ę":{"ha":708,"x_min":35,"x_max":672,"o":"m 357 -17 q 179 22 251 -17 q 71 146 107 61 q 35 367 35 231 q 74 588 35 504 q 184 711 113 672 q 357 750 256 750 q 535 714 465 750 q 638 594 604 678 q 672 367 672 510 l 672 326 l 282 326 q 289 231 282 268 q 313 174 296 193 q 358 156 329 156 q 394 163 381 156 q 417 183 408 169 q 428 218 425 197 q 431 267 431 239 l 671 267 q 652 142 671 194 q 594 53 633 89 q 497 1 556 18 q 357 -17 438 -17 m 283 443 l 425 443 q 422 506 425 481 q 410 548 418 532 q 390 571 403 564 q 357 578 376 578 q 315 564 331 578 q 292 521 300 550 q 283 443 285 492 m 488 -293 q 416 -276 450 -292 q 361 -226 382 -260 q 340 -135 340 -192 q 360 -48 340 -83 q 403 17 381 -12 l 524 17 l 524 11 q 488 -33 500 -6 q 476 -86 476 -60 q 493 -144 476 -122 q 542 -167 510 -167 l 594 -167 l 594 -272 q 543 -288 572 -283 q 488 -293 514 -293 z "},"ẽ":{"ha":708,"x_min":35,"x_max":672,"o":"m 357 -17 q 179 22 251 -17 q 71 146 107 61 q 35 367 35 231 q 74 588 35 504 q 184 711 113 672 q 357 750 256 750 q 535 714 465 750 q 638 594 604 678 q 672 367 672 510 l 672 326 l 282 326 q 289 231 282 268 q 313 174 296 193 q 358 156 329 156 q 394 163 381 156 q 417 183 408 169 q 428 218 425 197 q 431 267 431 239 l 671 267 q 652 142 671 194 q 594 53 633 89 q 497 1 556 18 q 357 -17 438 -17 m 283 443 l 425 443 q 422 506 425 481 q 410 548 418 532 q 390 571 403 564 q 357 578 376 578 q 315 564 331 578 q 292 521 300 550 q 283 443 285 492 m 106 815 q 124 915 106 871 q 176 983 143 958 q 256 1007 210 1007 q 320 994 289 1007 q 381 968 351 981 q 440 956 411 956 q 475 970 461 956 q 496 1007 489 985 l 594 1007 q 576 908 594 951 q 523 840 557 865 q 444 815 489 815 q 379 828 410 815 q 319 855 349 842 q 258 868 290 868 q 223 853 238 868 q 204 815 208 839 l 106 815 z "},"ə":{"ha":708,"x_min":35,"x_max":672,"o":"m 351 -17 q 174 19 244 -17 q 69 140 103 56 q 35 367 35 224 l 35 407 l 425 407 q 419 503 425 465 q 396 560 413 542 q 350 578 379 578 q 313 571 328 578 q 291 550 299 564 q 280 515 283 536 q 276 467 276 494 l 38 467 q 56 592 38 539 q 114 680 75 644 q 212 733 153 715 q 351 750 271 750 q 528 711 457 750 q 636 588 600 672 q 672 367 672 503 q 634 145 672 229 q 524 22 596 61 q 351 -17 451 -17 m 350 156 q 394 169 378 156 q 417 213 410 183 q 425 290 424 242 l 283 290 q 287 227 283 253 q 298 185 290 201 q 319 163 306 169 q 350 156 332 156 z "},"f":{"ha":447,"x_min":13,"x_max":432,"o":"m 89 0 l 89 547 l 13 547 l 13 733 l 89 733 l 89 800 q 116 940 89 892 q 191 1006 143 989 q 300 1024 239 1024 q 342 1021 317 1024 q 392 1013 367 1018 q 432 1000 418 1007 l 432 838 l 379 838 q 342 826 353 838 q 332 792 332 814 l 332 733 l 432 733 l 432 547 l 332 547 l 332 0 l 89 0 z "},"g":{"ha":696,"x_min":-1,"x_max":700,"o":"m 189 -292 q 90 -267 133 -292 q 22 -199 46 -242 q -1 -107 -1 -157 q 28 -14 -1 -56 q 101 51 57 28 q 49 106 68 74 q 31 178 31 139 q 62 265 31 224 q 151 325 93 307 q 80 404 107 360 q 53 506 53 449 q 90 644 53 590 q 193 724 126 697 q 346 750 260 750 q 399 747 376 750 q 443 740 422 744 q 494 800 476 767 q 515 871 513 833 l 700 871 q 682 767 700 804 q 633 709 664 729 q 565 674 603 689 q 619 601 600 643 q 638 510 638 560 q 605 380 638 433 q 516 297 572 326 q 388 268 460 268 l 314 268 q 263 258 281 268 q 246 228 246 249 q 262 198 246 208 q 310 188 278 188 l 486 188 q 647 123 594 188 q 700 -37 700 58 q 668 -166 700 -108 q 578 -258 636 -224 q 440 -292 519 -292 l 189 -292 m 294 -137 l 399 -137 q 433 -129 418 -137 q 458 -105 449 -121 q 467 -68 467 -89 q 447 -18 467 -36 q 399 0 426 0 l 294 0 q 246 -17 265 0 q 226 -67 226 -35 q 246 -118 226 -99 q 294 -137 265 -137 m 344 413 q 390 435 375 413 q 404 510 404 457 q 390 584 404 563 q 344 606 375 606 q 301 584 317 606 q 286 510 286 563 q 292 453 286 475 q 312 422 299 432 q 344 413 325 413 z "},"ğ":{"ha":696,"x_min":-1,"x_max":700,"o":"m 189 -292 q 90 -267 133 -292 q 22 -199 46 -242 q -1 -107 -1 -157 q 28 -14 -1 -56 q 101 51 57 28 q 49 106 68 74 q 31 178 31 139 q 62 265 31 224 q 151 325 93 307 q 80 404 107 360 q 53 506 53 449 q 90 644 53 590 q 193 724 126 697 q 346 750 260 750 q 399 747 376 750 q 443 740 422 744 q 494 800 476 767 q 515 871 513 833 l 700 871 q 682 767 700 804 q 633 709 664 729 q 565 674 603 689 q 619 601 600 643 q 638 510 638 560 q 605 380 638 433 q 516 297 572 326 q 388 268 460 268 l 314 268 q 263 258 281 268 q 246 228 246 249 q 262 198 246 208 q 310 188 278 188 l 486 188 q 647 123 594 188 q 700 -37 700 58 q 668 -166 700 -108 q 578 -258 636 -224 q 440 -292 519 -292 l 189 -292 m 294 -137 l 399 -137 q 433 -129 418 -137 q 458 -105 449 -121 q 467 -68 467 -89 q 447 -18 467 -36 q 399 0 426 0 l 294 0 q 246 -17 265 0 q 226 -67 226 -35 q 246 -118 226 -99 q 294 -137 265 -137 m 344 413 q 390 435 375 413 q 404 510 404 457 q 390 584 404 563 q 344 606 375 606 q 301 584 317 606 q 286 510 286 563 q 292 453 286 475 q 312 422 299 432 q 344 413 325 413 m 343 806 q 232 837 275 806 q 168 915 189 868 q 147 1007 147 961 l 263 1007 q 275 963 264 983 q 304 931 286 943 q 343 919 322 919 q 387 932 368 919 q 415 965 406 944 q 426 1007 425 986 l 540 1007 q 519 915 540 961 q 455 837 499 868 q 343 806 411 806 z "},"ǧ":{"ha":696,"x_min":-1,"x_max":700,"o":"m 189 -292 q 90 -267 133 -292 q 22 -199 46 -242 q -1 -107 -1 -157 q 28 -14 -1 -56 q 101 51 57 28 q 49 106 68 74 q 31 178 31 139 q 62 265 31 224 q 151 325 93 307 q 80 404 107 360 q 53 506 53 449 q 90 644 53 590 q 193 724 126 697 q 346 750 260 750 q 399 747 376 750 q 443 740 422 744 q 494 800 476 767 q 515 871 513 833 l 700 871 q 682 767 700 804 q 633 709 664 729 q 565 674 603 689 q 619 601 600 643 q 638 510 638 560 q 605 380 638 433 q 516 297 572 326 q 388 268 460 268 l 314 268 q 263 258 281 268 q 246 228 246 249 q 262 198 246 208 q 310 188 278 188 l 486 188 q 647 123 594 188 q 700 -37 700 58 q 668 -166 700 -108 q 578 -258 636 -224 q 440 -292 519 -292 l 189 -292 m 294 -137 l 399 -137 q 433 -129 418 -137 q 458 -105 449 -121 q 467 -68 467 -89 q 447 -18 467 -36 q 399 0 426 0 l 294 0 q 246 -17 265 0 q 226 -67 226 -35 q 246 -118 226 -99 q 294 -137 265 -137 m 344 413 q 390 435 375 413 q 404 510 404 457 q 390 584 404 563 q 344 606 375 606 q 301 584 317 606 q 286 510 286 563 q 292 453 286 475 q 312 422 299 432 q 344 413 325 413 m 107 1007 l 265 1007 l 374 882 l 314 882 l 424 1007 l 579 1007 l 435 822 l 253 822 l 107 1007 z "},"ĝ":{"ha":696,"x_min":-1,"x_max":700,"o":"m 189 -292 q 90 -267 133 -292 q 22 -199 46 -242 q -1 -107 -1 -157 q 28 -14 -1 -56 q 101 51 57 28 q 49 106 68 74 q 31 178 31 139 q 62 265 31 224 q 151 325 93 307 q 80 404 107 360 q 53 506 53 449 q 90 644 53 590 q 193 724 126 697 q 346 750 260 750 q 399 747 376 750 q 443 740 422 744 q 494 800 476 767 q 515 871 513 833 l 700 871 q 682 767 700 804 q 633 709 664 729 q 565 674 603 689 q 619 601 600 643 q 638 510 638 560 q 605 380 638 433 q 516 297 572 326 q 388 268 460 268 l 314 268 q 263 258 281 268 q 246 228 246 249 q 262 198 246 208 q 310 188 278 188 l 486 188 q 647 123 594 188 q 700 -37 700 58 q 668 -166 700 -108 q 578 -258 636 -224 q 440 -292 519 -292 l 189 -292 m 294 -137 l 399 -137 q 433 -129 418 -137 q 458 -105 449 -121 q 467 -68 467 -89 q 447 -18 467 -36 q 399 0 426 0 l 294 0 q 246 -17 265 0 q 226 -67 226 -35 q 246 -118 226 -99 q 294 -137 265 -137 m 344 413 q 390 435 375 413 q 404 510 404 457 q 390 584 404 563 q 344 606 375 606 q 301 584 317 606 q 286 510 286 563 q 292 453 286 475 q 312 422 299 432 q 344 413 325 413 m 107 822 l 253 1007 l 435 1007 l 579 822 l 424 822 l 314 947 l 374 947 l 265 822 l 107 822 z "},"ģ":{"ha":696,"x_min":-1,"x_max":700,"o":"m 189 -292 q 90 -267 133 -292 q 22 -199 46 -242 q -1 -107 -1 -157 q 28 -14 -1 -56 q 101 51 57 28 q 49 106 68 74 q 31 178 31 139 q 62 265 31 224 q 151 325 93 307 q 80 404 107 360 q 53 506 53 449 q 90 644 53 590 q 193 724 126 697 q 346 750 260 750 q 399 747 376 750 q 443 740 422 744 q 494 800 476 767 q 515 871 513 833 l 700 871 q 682 767 700 804 q 633 709 664 729 q 565 674 603 689 q 619 601 600 643 q 638 510 638 560 q 605 380 638 433 q 516 297 572 326 q 388 268 460 268 l 314 268 q 263 258 281 268 q 246 228 246 249 q 262 198 246 208 q 310 188 278 188 l 486 188 q 647 123 594 188 q 700 -37 700 58 q 668 -166 700 -108 q 578 -258 636 -224 q 440 -292 519 -292 l 189 -292 m 294 -137 l 399 -137 q 433 -129 418 -137 q 458 -105 449 -121 q 467 -68 467 -89 q 447 -18 467 -36 q 399 0 426 0 l 294 0 q 246 -17 265 0 q 226 -67 226 -35 q 246 -118 226 -99 q 294 -137 265 -137 m 344 413 q 390 435 375 413 q 404 510 404 457 q 390 584 404 563 q 344 606 375 606 q 301 584 317 606 q 286 510 286 563 q 292 453 286 475 q 312 422 299 432 q 344 413 325 413 m 425 1183 l 425 1101 q 369 1079 383 1101 q 354 997 354 1057 l 425 997 l 425 819 l 264 819 l 264 974 q 278 1100 264 1054 q 328 1165 293 1146 q 425 1183 364 1183 z "},"ġ":{"ha":696,"x_min":-1,"x_max":700,"o":"m 189 -292 q 90 -267 133 -292 q 22 -199 46 -242 q -1 -107 -1 -157 q 28 -14 -1 -56 q 101 51 57 28 q 49 106 68 74 q 31 178 31 139 q 62 265 31 224 q 151 325 93 307 q 80 404 107 360 q 53 506 53 449 q 90 644 53 590 q 193 724 126 697 q 346 750 260 750 q 399 747 376 750 q 443 740 422 744 q 494 800 476 767 q 515 871 513 833 l 700 871 q 682 767 700 804 q 633 709 664 729 q 565 674 603 689 q 619 601 600 643 q 638 510 638 560 q 605 380 638 433 q 516 297 572 326 q 388 268 460 268 l 314 268 q 263 258 281 268 q 246 228 246 249 q 262 198 246 208 q 310 188 278 188 l 486 188 q 647 123 594 188 q 700 -37 700 58 q 668 -166 700 -108 q 578 -258 636 -224 q 440 -292 519 -292 l 189 -292 m 294 -137 l 399 -137 q 433 -129 418 -137 q 458 -105 449 -121 q 467 -68 467 -89 q 447 -18 467 -36 q 399 0 426 0 l 294 0 q 246 -17 265 0 q 226 -67 226 -35 q 246 -118 226 -99 q 294 -137 265 -137 m 344 413 q 390 435 375 413 q 404 510 404 457 q 390 584 404 563 q 344 606 375 606 q 301 584 317 606 q 286 510 286 563 q 292 453 286 475 q 312 422 299 432 q 344 413 325 413 m 264 829 l 264 1004 l 425 1004 l 425 829 l 264 829 z "},"h":{"ha":717,"x_min":58,"x_max":661,"o":"m 58 0 l 58 1007 l 301 1007 l 301 664 l 308 664 q 351 710 326 692 q 408 740 376 729 q 478 750 440 750 q 585 724 546 750 q 643 648 625 697 q 661 529 661 599 l 661 0 l 418 0 l 418 471 q 415 499 418 486 q 406 520 413 511 q 389 534 399 529 q 367 539 379 539 q 328 523 343 539 q 308 481 314 507 q 301 424 301 456 l 301 0 l 58 0 z "},"ħ":{"ha":717,"x_min":-10,"x_max":661,"o":"m 58 0 l 58 1007 l 301 1007 l 301 664 l 308 664 q 351 710 326 692 q 408 740 376 729 q 478 750 440 750 q 585 724 546 750 q 643 648 625 697 q 661 529 661 599 l 661 0 l 418 0 l 418 471 q 415 499 418 486 q 406 520 413 511 q 389 534 399 529 q 367 539 379 539 q 328 523 343 539 q 308 481 314 507 q 301 424 301 456 l 301 0 l 58 0 m -10 792 l -10 931 l 469 931 l 469 792 l -10 792 z "},"ĥ":{"ha":717,"x_min":-64,"x_max":661,"o":"m 58 0 l 58 1007 l 301 1007 l 301 664 l 308 664 q 351 710 326 692 q 408 740 376 729 q 478 750 440 750 q 585 724 546 750 q 643 648 625 697 q 661 529 661 599 l 661 0 l 418 0 l 418 471 q 415 499 418 486 q 406 520 413 511 q 389 534 399 529 q 367 539 379 539 q 328 523 343 539 q 308 481 314 507 q 301 424 301 456 l 301 0 l 58 0 m -64 1044 l 82 1229 l 278 1229 l 422 1044 l 260 1044 l 150 1169 l 210 1169 l 101 1044 l -64 1044 z "},"ḥ":{"ha":717,"x_min":58,"x_max":661,"o":"m 58 0 l 58 1007 l 301 1007 l 301 664 l 308 664 q 351 710 326 692 q 408 740 376 729 q 478 750 440 750 q 585 724 546 750 q 643 648 625 697 q 661 529 661 599 l 661 0 l 418 0 l 418 471 q 415 499 418 486 q 406 520 413 511 q 389 534 399 529 q 367 539 379 539 q 328 523 343 539 q 308 481 314 507 q 301 424 301 456 l 301 0 l 58 0 m 279 -260 l 279 -83 l 440 -83 l 440 -260 l 279 -260 z "},"i":{"ha":360,"x_min":58,"x_max":301,"o":"m 58 819 l 58 1007 l 301 1007 l 301 819 l 58 819 m 58 0 l 58 733 l 301 733 l 301 0 l 58 0 z "},"ı":{"ha":360,"x_min":58,"x_max":301,"o":"m 58 0 l 58 733 l 301 733 l 301 0 l 58 0 z "},"í":{"ha":360,"x_min":58,"x_max":396,"o":"m 58 0 l 58 733 l 301 733 l 301 0 l 58 0 m 74 822 l 171 1007 l 394 1007 l 396 1001 l 226 822 l 74 822 z "},"ĭ":{"ha":360,"x_min":-17,"x_max":376,"o":"m 58 0 l 58 733 l 301 733 l 301 0 l 58 0 m 179 806 q 68 837 111 806 q 4 915 25 868 q -17 1007 -17 961 l 99 1007 q 111 963 100 983 q 140 931 122 943 q 179 919 158 919 q 223 932 204 919 q 251 965 242 944 q 263 1007 261 986 l 376 1007 q 356 915 376 961 q 291 837 335 868 q 179 806 247 806 z "},"ǐ":{"ha":360,"x_min":-57,"x_max":415,"o":"m 58 0 l 58 733 l 301 733 l 301 0 l 58 0 m -57 1007 l 101 1007 l 210 882 l 150 882 l 260 1007 l 415 1007 l 271 822 l 89 822 l -57 1007 z "},"î":{"ha":360,"x_min":-57,"x_max":415,"o":"m 58 0 l 58 733 l 301 733 l 301 0 l 58 0 m -57 822 l 89 1007 l 271 1007 l 415 822 l 260 822 l 150 947 l 210 947 l 101 822 l -57 822 z "},"ȉ":{"ha":360,"x_min":-132,"x_max":364,"o":"m 58 0 l 58 733 l 301 733 l 301 0 l 58 0 m 240 822 l 93 1003 l 94 1008 l 283 1008 l 364 822 l 240 822 m 17 822 l -132 1003 l -129 1008 l 60 1008 l 140 822 l 17 822 z "},"ï":{"ha":360,"x_min":-17,"x_max":378,"o":"m 58 0 l 58 733 l 301 733 l 301 0 l 58 0 m -17 829 l -17 1007 l 144 1007 l 144 829 l -17 829 m 217 829 l 217 1007 l 378 1007 l 378 829 l 217 829 z "},"ị":{"ha":360,"x_min":58,"x_max":301,"o":"m 58 819 l 58 1007 l 301 1007 l 301 819 l 58 819 m 58 0 l 58 733 l 301 733 l 301 0 l 58 0 m 99 -260 l 99 -83 l 260 -83 l 260 -260 l 99 -260 z "},"ì":{"ha":360,"x_min":-42,"x_max":301,"o":"m 58 0 l 58 733 l 301 733 l 301 0 l 58 0 m 281 822 l 128 822 l -42 1001 l -40 1007 l 183 1007 l 281 822 z "},"ỉ":{"ha":360,"x_min":58,"x_max":318,"o":"m 58 0 l 58 733 l 301 733 l 301 0 l 58 0 m 140 821 l 140 903 l 164 903 q 192 908 183 903 q 200 928 200 914 q 188 947 200 943 q 158 950 176 950 l 85 950 l 85 1017 q 118 1022 100 1019 q 153 1025 136 1024 q 185 1026 169 1026 q 233 1022 208 1026 q 276 1008 257 1017 q 306 983 294 999 q 318 943 318 967 q 304 897 318 915 q 267 868 290 878 q 218 856 244 858 l 218 821 l 140 821 z "},"ȋ":{"ha":360,"x_min":-17,"x_max":376,"o":"m 58 0 l 58 733 l 301 733 l 301 0 l 58 0 m 179 1008 q 291 977 247 1008 q 356 900 335 946 q 376 807 376 854 l 263 807 q 251 849 261 829 q 223 882 242 869 q 179 894 204 894 q 140 883 158 894 q 111 851 122 871 q 99 807 100 832 l -17 807 q 4 900 -17 854 q 68 977 25 946 q 179 1008 111 1008 z "},"ĳ":{"ha":722,"x_min":58,"x_max":665,"o":"m 58 819 l 58 1007 l 301 1007 l 301 819 l 58 819 m 58 0 l 58 733 l 301 733 l 301 0 l 58 0 m 424 819 l 424 1007 l 665 1007 l 665 819 l 424 819 m 458 -292 q 413 -289 442 -292 q 354 -280 383 -286 q 308 -267 325 -274 l 308 -101 l 371 -101 q 413 -83 403 -101 q 424 -22 424 -64 l 424 733 l 665 733 l 665 -76 q 642 -205 665 -157 q 573 -272 619 -253 q 458 -292 526 -292 z "},"ī":{"ha":360,"x_min":13,"x_max":347,"o":"m 58 0 l 58 733 l 301 733 l 301 0 l 58 0 m 13 833 l 13 972 l 347 972 l 347 833 l 13 833 z "},"į":{"ha":360,"x_min":43,"x_max":301,"o":"m 58 819 l 58 1007 l 301 1007 l 301 819 l 58 819 m 58 0 l 58 733 l 301 733 l 301 0 l 58 0 m 190 -293 q 119 -276 153 -292 q 64 -226 85 -260 q 43 -135 43 -192 q 63 -48 43 -83 q 106 17 82 -12 l 226 17 l 226 11 q 190 -33 203 -6 q 178 -86 178 -60 q 194 -144 178 -122 q 243 -167 211 -167 l 297 -167 l 297 -272 q 246 -288 275 -283 q 190 -293 217 -293 z "},"ĩ":{"ha":360,"x_min":-64,"x_max":425,"o":"m 58 0 l 58 733 l 301 733 l 301 0 l 58 0 m -64 815 q -45 915 -64 871 q 7 983 -26 958 q 86 1007 40 1007 q 151 994 119 1007 q 212 968 182 981 q 271 956 242 956 q 306 970 292 956 q 326 1007 319 985 l 425 1007 q 406 908 425 951 q 353 840 388 865 q 275 815 319 815 q 210 828 240 815 q 150 855 179 842 q 89 868 121 868 q 53 853 68 868 q 35 815 39 839 l -64 815 z "},"j":{"ha":363,"x_min":-51,"x_max":306,"o":"m 64 819 l 64 1007 l 306 1007 l 306 819 l 64 819 m 99 -292 q 53 -289 82 -292 q -6 -280 24 -286 q -51 -267 -35 -274 l -51 -101 l 11 -101 q 53 -83 43 -101 q 64 -22 64 -64 l 64 733 l 306 733 l 306 -76 q 283 -205 306 -157 q 213 -272 260 -253 q 99 -292 167 -292 z "},"ȷ":{"ha":363,"x_min":-51,"x_max":306,"o":"m 99 -292 q 53 -289 82 -292 q -6 -280 24 -286 q -51 -267 -35 -274 l -51 -101 l 11 -101 q 53 -83 43 -101 q 64 -22 64 -65 l 64 733 l 306 733 l 306 -76 q 283 -205 306 -157 q 213 -272 260 -253 q 99 -292 167 -292 z "},"ĵ":{"ha":363,"x_min":-54,"x_max":418,"o":"m 99 -292 q 53 -289 82 -292 q -6 -280 24 -286 q -51 -267 -35 -274 l -51 -101 l 11 -101 q 53 -83 43 -101 q 64 -22 64 -65 l 64 733 l 306 733 l 306 -76 q 283 -205 306 -157 q 213 -272 260 -253 q 99 -292 167 -292 m -54 822 l 90 1007 l 272 1007 l 418 822 l 261 822 l 151 947 l 213 947 l 103 822 l -54 822 z "},"k":{"ha":739,"x_min":58,"x_max":733,"o":"m 58 0 l 58 1007 l 301 1007 l 301 492 l 465 733 l 728 733 l 521 449 l 733 0 l 465 0 l 356 235 l 301 168 l 301 0 l 58 0 z "},"ķ":{"ha":739,"x_min":58,"x_max":733,"o":"m 58 0 l 58 1007 l 301 1007 l 301 492 l 465 733 l 728 733 l 521 449 l 733 0 l 465 0 l 356 235 l 301 168 l 301 0 l 58 0 m 311 -440 l 311 -358 q 368 -336 353 -358 q 383 -254 383 -314 l 311 -254 l 311 -76 l 472 -76 l 472 -231 q 458 -356 472 -310 q 408 -422 443 -403 q 311 -440 372 -440 z "},"ĸ":{"ha":739,"x_min":58,"x_max":733,"o":"m 58 0 l 58 733 l 301 733 l 301 492 l 465 733 l 728 733 l 521 449 l 733 0 l 465 0 l 356 235 l 301 168 l 301 0 l 58 0 z "},"l":{"ha":360,"x_min":58,"x_max":301,"o":"m 58 0 l 58 1007 l 301 1007 l 301 0 l 58 0 z "},"ĺ":{"ha":360,"x_min":58,"x_max":418,"o":"m 58 0 l 58 1007 l 301 1007 l 301 0 l 58 0 m 89 1044 l 186 1229 l 417 1229 l 418 1224 l 249 1044 l 89 1044 z "},"ľ":{"ha":360,"x_min":58,"x_max":554,"o":"m 58 0 l 58 1007 l 301 1007 l 301 0 l 58 0 m 347 771 l 347 1007 l 554 1007 l 493 771 l 347 771 z "},"ļ":{"ha":360,"x_min":58,"x_max":301,"o":"m 58 0 l 58 1007 l 301 1007 l 301 0 l 58 0 m 99 -440 l 99 -358 q 156 -336 140 -358 q 171 -254 171 -314 l 99 -254 l 99 -76 l 260 -76 l 260 -231 q 245 -356 260 -310 q 196 -422 231 -403 q 99 -440 161 -440 z "},"ŀ":{"ha":360,"x_min":58,"x_max":458,"o":"m 58 0 l 58 1007 l 301 1007 l 301 0 l 58 0 m 324 431 l 324 624 l 458 624 l 458 431 l 324 431 z "},"ǉ":{"ha":722,"x_min":58,"x_max":665,"o":"m 58 0 l 58 1007 l 301 1007 l 301 0 l 58 0 m 424 819 l 424 1007 l 665 1007 l 665 819 l 424 819 m 458 -292 q 413 -289 442 -292 q 354 -280 383 -286 q 308 -267 325 -274 l 308 -101 l 371 -101 q 413 -83 403 -101 q 424 -22 424 -64 l 424 733 l 665 733 l 665 -76 q 642 -205 665 -157 q 573 -272 619 -253 q 458 -292 526 -292 z "},"ł":{"ha":360,"x_min":-21,"x_max":379,"o":"m 58 0 l 58 1007 l 301 1007 l 301 0 l 58 0 m -21 281 l -21 417 l 379 731 l 379 592 l -21 281 z "},"m":{"ha":1068,"x_min":58,"x_max":1013,"o":"m 58 0 l 58 733 l 267 733 l 281 642 l 288 642 q 333 702 307 678 q 394 738 360 726 q 472 750 429 750 q 582 722 542 750 q 639 642 622 694 l 646 642 q 692 702 665 678 q 752 738 718 726 q 828 750 786 750 q 936 724 896 750 q 994 648 976 697 q 1013 529 1013 599 l 1013 0 l 769 0 l 769 471 q 767 499 769 486 q 758 520 764 511 q 742 534 751 529 q 719 539 733 539 q 683 523 697 539 q 663 481 668 507 q 657 424 657 456 l 657 0 l 414 0 l 414 471 q 411 499 414 486 q 402 520 408 511 q 386 534 396 529 q 364 539 376 539 q 328 523 342 539 q 308 481 314 507 q 301 424 301 456 l 301 0 l 58 0 z "},"n":{"ha":717,"x_min":58,"x_max":661,"o":"m 58 0 l 58 733 l 267 733 l 281 642 l 288 642 q 335 702 308 678 q 396 738 361 726 q 474 750 431 750 q 584 724 543 750 q 643 648 625 697 q 661 529 661 599 l 661 0 l 418 0 l 418 471 q 415 499 418 486 q 406 520 413 511 q 389 534 399 529 q 367 539 379 539 q 328 523 343 539 q 308 481 314 507 q 301 424 301 456 l 301 0 l 58 0 z "},"ń":{"ha":717,"x_min":58,"x_max":661,"o":"m 58 0 l 58 733 l 267 733 l 281 642 l 288 642 q 335 702 308 678 q 396 738 361 726 q 474 750 431 750 q 584 724 543 750 q 643 648 625 697 q 661 529 661 599 l 661 0 l 418 0 l 418 471 q 415 499 418 486 q 406 520 413 511 q 389 534 399 529 q 367 539 379 539 q 328 523 343 539 q 308 481 314 507 q 301 424 301 456 l 301 0 l 58 0 m 256 822 l 351 1007 l 575 1007 l 578 1001 l 408 822 l 256 822 z "},"ŉ":{"ha":717,"x_min":0,"x_max":661,"o":"m 58 0 l 58 733 l 267 733 l 281 642 l 288 642 q 335 702 308 678 q 396 738 361 726 q 474 750 431 750 q 584 724 543 750 q 643 648 625 697 q 661 529 661 599 l 661 0 l 418 0 l 418 471 q 415 499 418 486 q 406 520 413 511 q 389 534 399 529 q 367 539 379 539 q 328 523 343 539 q 308 481 314 507 q 301 424 301 456 l 301 0 l 58 0 m 0 796 l 0 878 q 56 900 40 878 q 71 982 71 922 l 0 982 l 0 1160 l 161 1160 l 161 1006 q 147 880 161 926 q 97 815 132 833 q 0 796 61 796 z "},"ň":{"ha":717,"x_min":58,"x_max":661,"o":"m 58 0 l 58 733 l 267 733 l 281 642 l 288 642 q 335 702 308 678 q 396 738 361 726 q 474 750 431 750 q 584 724 543 750 q 643 648 625 697 q 661 529 661 599 l 661 0 l 418 0 l 418 471 q 415 499 418 486 q 406 520 413 511 q 389 534 399 529 q 367 539 379 539 q 328 523 343 539 q 308 481 314 507 q 301 424 301 456 l 301 0 l 58 0 m 125 1007 l 282 1007 l 392 882 l 331 882 l 440 1007 l 597 1007 l 451 822 l 269 822 l 125 1007 z "},"ņ":{"ha":717,"x_min":58,"x_max":661,"o":"m 58 0 l 58 733 l 267 733 l 281 642 l 288 642 q 335 702 308 678 q 396 738 361 726 q 474 750 431 750 q 584 724 543 750 q 643 648 625 697 q 661 529 661 599 l 661 0 l 418 0 l 418 471 q 415 499 418 486 q 406 520 413 511 q 389 534 399 529 q 367 539 379 539 q 328 523 343 539 q 308 481 314 507 q 301 424 301 456 l 301 0 l 58 0 m 282 -440 l 282 -358 q 338 -336 322 -358 q 353 -254 353 -314 l 282 -254 l 282 -76 l 443 -76 l 443 -231 q 428 -356 443 -310 q 378 -422 413 -403 q 282 -440 343 -440 z "},"ŋ":{"ha":717,"x_min":58,"x_max":661,"o":"m 449 -292 q 405 -289 433 -292 q 348 -280 376 -286 q 303 -267 319 -274 l 303 -101 l 367 -101 q 408 -83 399 -101 q 418 -22 418 -65 l 418 471 q 415 499 418 486 q 406 520 413 511 q 389 534 399 529 q 367 539 379 539 q 328 523 343 539 q 308 481 314 507 q 301 424 301 456 l 301 0 l 58 0 l 58 733 l 267 733 l 281 642 l 288 642 q 335 702 308 678 q 396 738 361 726 q 474 750 431 750 q 584 724 543 750 q 643 648 625 697 q 661 529 661 599 l 661 -76 q 647 -179 661 -137 q 606 -245 633 -221 q 540 -281 579 -269 q 449 -292 500 -292 z "},"ɲ":{"ha":717,"x_min":-57,"x_max":661,"o":"m 89 -292 q 45 -289 74 -292 q -12 -280 17 -286 q -57 -267 -40 -274 l -57 -101 l 7 -101 q 49 -83 39 -101 q 58 -22 58 -65 l 58 733 l 267 733 l 281 642 l 288 642 q 335 702 308 678 q 396 738 361 726 q 474 750 431 750 q 584 724 543 750 q 643 648 625 697 q 661 529 661 599 l 661 0 l 418 0 l 418 471 q 415 499 418 486 q 406 520 413 511 q 389 534 399 529 q 367 539 379 539 q 328 523 343 539 q 308 481 314 507 q 301 424 301 456 l 301 -76 q 288 -179 301 -137 q 247 -245 274 -221 q 180 -281 219 -269 q 89 -292 140 -292 z "},"ǌ":{"ha":1078,"x_min":58,"x_max":1022,"o":"m 58 0 l 58 733 l 267 733 l 281 642 l 288 642 q 335 702 308 678 q 396 738 361 726 q 474 750 431 750 q 584 724 543 750 q 643 648 625 697 q 661 529 661 599 l 661 0 l 418 0 l 418 471 q 415 499 418 486 q 406 520 413 511 q 389 534 399 529 q 367 539 379 539 q 328 523 343 539 q 308 481 314 507 q 301 424 301 456 l 301 0 l 58 0 m 779 819 l 779 1007 l 1022 1007 l 1022 819 l 779 819 m 814 -292 q 768 -289 797 -292 q 710 -280 739 -286 q 664 -267 681 -274 l 664 -101 l 728 -101 q 769 -83 760 -101 q 779 -22 779 -65 l 779 733 l 1022 733 l 1022 -76 q 999 -205 1022 -157 q 929 -272 975 -253 q 814 -292 883 -292 z "},"ñ":{"ha":717,"x_min":58,"x_max":661,"o":"m 58 0 l 58 733 l 267 733 l 281 642 l 288 642 q 335 702 308 678 q 396 738 361 726 q 474 750 431 750 q 584 724 543 750 q 643 648 625 697 q 661 529 661 599 l 661 0 l 418 0 l 418 471 q 415 499 418 486 q 406 520 413 511 q 389 534 399 529 q 367 539 379 539 q 328 523 343 539 q 308 481 314 507 q 301 424 301 456 l 301 0 l 58 0 m 117 815 q 135 915 117 871 q 188 983 154 958 q 267 1007 222 1007 q 333 994 301 1007 q 393 968 364 981 q 451 956 422 956 q 486 970 472 956 q 507 1007 500 985 l 606 1007 q 587 908 606 951 q 534 840 568 865 q 456 815 500 815 q 391 828 421 815 q 331 855 361 842 q 271 868 301 868 q 235 853 250 868 q 215 815 219 839 l 117 815 z "},"o":{"ha":713,"x_min":35,"x_max":678,"o":"m 356 -17 q 180 25 251 -17 q 72 151 108 67 q 35 367 35 236 q 72 582 35 497 q 180 708 108 667 q 356 750 251 750 q 531 708 460 750 q 640 582 603 667 q 678 367 678 497 q 640 151 678 236 q 531 25 603 67 q 356 -17 460 -17 m 356 169 q 399 181 383 169 q 423 222 415 193 q 431 299 431 251 l 431 433 q 423 510 431 482 q 399 551 415 539 q 356 564 383 564 q 313 551 329 564 q 290 510 297 539 q 282 433 282 482 l 282 299 q 290 222 282 251 q 313 181 297 193 q 356 169 329 169 z "},"ó":{"ha":713,"x_min":35,"x_max":678,"o":"m 356 -17 q 180 25 251 -17 q 72 151 108 67 q 35 367 35 236 q 72 582 35 497 q 180 708 108 667 q 356 750 251 750 q 531 708 460 750 q 640 582 603 667 q 678 367 678 497 q 640 151 678 236 q 531 25 603 67 q 356 -17 460 -17 m 356 169 q 399 181 383 169 q 423 222 415 193 q 431 299 431 251 l 431 433 q 423 510 431 482 q 399 551 415 539 q 356 564 383 564 q 313 551 329 564 q 290 510 297 539 q 282 433 282 482 l 282 299 q 290 222 282 251 q 313 181 297 193 q 356 169 329 169 m 251 822 l 347 1007 l 571 1007 l 574 1001 l 404 822 l 251 822 z "},"ŏ":{"ha":713,"x_min":35,"x_max":678,"o":"m 356 -17 q 180 25 251 -17 q 72 151 108 67 q 35 367 35 236 q 72 582 35 497 q 180 708 108 667 q 356 750 251 750 q 531 708 460 750 q 640 582 603 667 q 678 367 678 497 q 640 151 678 236 q 531 25 603 67 q 356 -17 460 -17 m 356 169 q 399 181 383 169 q 423 222 415 193 q 431 299 431 251 l 431 433 q 423 510 431 482 q 399 551 415 539 q 356 564 383 564 q 313 551 329 564 q 290 510 297 539 q 282 433 282 482 l 282 299 q 290 222 282 251 q 313 181 297 193 q 356 169 329 169 m 357 806 q 245 837 289 806 q 181 915 201 868 q 160 1007 160 961 l 275 1007 q 288 963 276 983 q 317 931 299 943 q 357 919 335 919 q 399 932 381 919 q 428 965 418 944 q 439 1007 439 986 l 553 1007 q 532 915 553 961 q 468 837 511 868 q 357 806 425 806 z "},"ǒ":{"ha":713,"x_min":35,"x_max":678,"o":"m 356 -17 q 180 25 251 -17 q 72 151 108 67 q 35 367 35 236 q 72 582 35 497 q 180 708 108 667 q 356 750 251 750 q 531 708 460 750 q 640 582 603 667 q 678 367 678 497 q 640 151 678 236 q 531 25 603 67 q 356 -17 460 -17 m 356 169 q 399 181 383 169 q 423 222 415 193 q 431 299 431 251 l 431 433 q 423 510 431 482 q 399 551 415 539 q 356 564 383 564 q 313 551 329 564 q 290 510 297 539 q 282 433 282 482 l 282 299 q 290 222 282 251 q 313 181 297 193 q 356 169 329 169 m 121 1007 l 278 1007 l 388 882 l 326 882 l 436 1007 l 593 1007 l 447 822 l 265 822 l 121 1007 z "},"ô":{"ha":713,"x_min":35,"x_max":678,"o":"m 356 -17 q 180 25 251 -17 q 72 151 108 67 q 35 367 35 236 q 72 582 35 497 q 180 708 108 667 q 356 750 251 750 q 531 708 460 750 q 640 582 603 667 q 678 367 678 497 q 640 151 678 236 q 531 25 603 67 q 356 -17 460 -17 m 356 169 q 399 181 383 169 q 423 222 415 193 q 431 299 431 251 l 431 433 q 423 510 431 482 q 399 551 415 539 q 356 564 383 564 q 313 551 329 564 q 290 510 297 539 q 282 433 282 482 l 282 299 q 290 222 282 251 q 313 181 297 193 q 356 169 329 169 m 121 822 l 265 1007 l 447 1007 l 593 822 l 436 822 l 326 947 l 388 947 l 278 822 l 121 822 z "},"ố":{"ha":713,"x_min":35,"x_max":678,"o":"m 356 -17 q 180 25 251 -17 q 72 151 108 67 q 35 367 35 236 q 72 582 35 497 q 180 708 108 667 q 356 750 251 750 q 531 708 460 750 q 640 582 603 667 q 678 367 678 497 q 640 151 678 236 q 531 25 603 67 q 356 -17 460 -17 m 356 169 q 399 181 383 169 q 423 222 415 193 q 431 299 431 251 l 431 433 q 423 510 431 482 q 399 551 415 539 q 356 564 383 564 q 313 551 329 564 q 290 510 297 539 q 282 433 282 482 l 282 299 q 290 222 282 251 q 313 181 297 193 q 356 169 329 169 m 121 822 l 265 1007 l 447 1007 l 593 822 l 436 822 l 326 947 l 388 947 l 278 822 l 121 822 m 251 1075 l 347 1260 l 571 1260 l 574 1254 l 404 1075 l 251 1075 z "},"ộ":{"ha":713,"x_min":35,"x_max":678,"o":"m 356 -17 q 180 25 251 -17 q 72 151 108 67 q 35 367 35 236 q 72 582 35 497 q 180 708 108 667 q 356 750 251 750 q 531 708 460 750 q 640 582 603 667 q 678 367 678 497 q 640 151 678 236 q 531 25 603 67 q 356 -17 460 -17 m 356 169 q 399 181 383 169 q 423 222 415 193 q 431 299 431 251 l 431 433 q 423 510 431 482 q 399 551 415 539 q 356 564 383 564 q 313 551 329 564 q 290 510 297 539 q 282 433 282 482 l 282 299 q 290 222 282 251 q 313 181 297 193 q 356 169 329 169 m 276 -260 l 276 -83 l 438 -83 l 438 -260 l 276 -260 m 121 822 l 265 1007 l 447 1007 l 593 822 l 436 822 l 326 947 l 388 947 l 278 822 l 121 822 z "},"ồ":{"ha":713,"x_min":35,"x_max":678,"o":"m 356 -17 q 180 25 251 -17 q 72 151 108 67 q 35 367 35 236 q 72 582 35 497 q 180 708 108 667 q 356 750 251 750 q 531 708 460 750 q 640 582 603 667 q 678 367 678 497 q 640 151 678 236 q 531 25 603 67 q 356 -17 460 -17 m 356 169 q 399 181 383 169 q 423 222 415 193 q 431 299 431 251 l 431 433 q 423 510 431 482 q 399 551 415 539 q 356 564 383 564 q 313 551 329 564 q 290 510 297 539 q 282 433 282 482 l 282 299 q 290 222 282 251 q 313 181 297 193 q 356 169 329 169 m 121 822 l 265 1007 l 447 1007 l 593 822 l 436 822 l 326 947 l 388 947 l 278 822 l 121 822 m 457 1075 l 304 1075 l 135 1254 l 138 1260 l 360 1260 l 457 1075 z "},"ổ":{"ha":713,"x_min":35,"x_max":678,"o":"m 356 -17 q 180 25 251 -17 q 72 151 108 67 q 35 367 35 236 q 72 582 35 497 q 180 708 108 667 q 356 750 251 750 q 531 708 460 750 q 640 582 603 667 q 678 367 678 497 q 640 151 678 236 q 531 25 603 67 q 356 -17 460 -17 m 356 169 q 399 181 383 169 q 423 222 415 193 q 431 299 431 251 l 431 433 q 423 510 431 482 q 399 551 415 539 q 356 564 383 564 q 313 551 329 564 q 290 510 297 539 q 282 433 282 482 l 282 299 q 290 222 282 251 q 313 181 297 193 q 356 169 329 169 m 121 822 l 265 1007 l 447 1007 l 593 822 l 436 822 l 326 947 l 388 947 l 278 822 l 121 822 m 317 1074 l 317 1156 l 340 1156 q 369 1161 361 1156 q 376 1181 376 1167 q 365 1199 376 1196 q 335 1203 353 1203 l 261 1203 l 261 1269 q 295 1274 278 1272 q 330 1278 313 1276 q 361 1279 347 1279 q 409 1274 385 1279 q 453 1260 433 1269 q 483 1235 472 1251 q 494 1196 494 1219 q 481 1149 494 1168 q 444 1121 467 1131 q 396 1108 422 1111 l 396 1074 l 317 1074 z "},"ỗ":{"ha":713,"x_min":35,"x_max":678,"o":"m 356 -17 q 180 25 251 -17 q 72 151 108 67 q 35 367 35 236 q 72 582 35 497 q 180 708 108 667 q 356 750 251 750 q 531 708 460 750 q 640 582 603 667 q 678 367 678 497 q 640 151 678 236 q 531 25 603 67 q 356 -17 460 -17 m 356 169 q 399 181 383 169 q 423 222 415 193 q 431 299 431 251 l 431 433 q 423 510 431 482 q 399 551 415 539 q 356 564 383 564 q 313 551 329 564 q 290 510 297 539 q 282 433 282 482 l 282 299 q 290 222 282 251 q 313 181 297 193 q 356 169 329 169 m 121 822 l 265 1007 l 447 1007 l 593 822 l 436 822 l 326 947 l 388 947 l 278 822 l 121 822 m 113 1068 q 131 1167 113 1124 q 184 1235 150 1211 q 263 1260 218 1260 q 328 1247 297 1260 q 389 1221 360 1233 q 447 1208 418 1208 q 482 1223 468 1208 q 503 1260 496 1238 l 601 1260 q 583 1161 601 1204 q 530 1093 564 1118 q 451 1068 496 1068 q 387 1081 417 1068 q 327 1108 357 1094 q 267 1121 297 1121 q 231 1106 246 1121 q 211 1068 215 1092 l 113 1068 z "},"ȍ":{"ha":713,"x_min":35,"x_max":678,"o":"m 356 -17 q 180 25 251 -17 q 72 151 108 67 q 35 367 35 236 q 72 582 35 497 q 180 708 108 667 q 356 750 251 750 q 531 708 460 750 q 640 582 603 667 q 678 367 678 497 q 640 151 678 236 q 531 25 603 67 q 356 -17 460 -17 m 356 169 q 399 181 383 169 q 423 222 415 193 q 431 299 431 251 l 431 433 q 423 510 431 482 q 399 551 415 539 q 356 564 383 564 q 313 551 329 564 q 290 510 297 539 q 282 433 282 482 l 282 299 q 290 222 282 251 q 313 181 297 193 q 356 169 329 169 m 417 822 l 269 1003 l 271 1008 l 461 1008 l 540 822 l 417 822 m 193 822 l 46 1003 l 47 1008 l 238 1008 l 317 822 l 193 822 z "},"ö":{"ha":713,"x_min":35,"x_max":678,"o":"m 356 -17 q 180 25 251 -17 q 72 151 108 67 q 35 367 35 236 q 72 582 35 497 q 180 708 108 667 q 356 750 251 750 q 531 708 460 750 q 640 582 603 667 q 678 367 678 497 q 640 151 678 236 q 531 25 603 67 q 356 -17 460 -17 m 356 169 q 399 181 383 169 q 423 222 415 193 q 431 299 431 251 l 431 433 q 423 510 431 482 q 399 551 415 539 q 356 564 383 564 q 313 551 329 564 q 290 510 297 539 q 282 433 282 482 l 282 299 q 290 222 282 251 q 313 181 297 193 q 356 169 329 169 m 160 829 l 160 1007 l 321 1007 l 321 829 l 160 829 m 393 829 l 393 1007 l 554 1007 l 554 829 l 393 829 z "},"ȫ":{"ha":713,"x_min":35,"x_max":678,"o":"m 356 -17 q 180 25 251 -17 q 72 151 108 67 q 35 367 35 236 q 72 582 35 497 q 180 708 108 667 q 356 750 251 750 q 531 708 460 750 q 640 582 603 667 q 678 367 678 497 q 640 151 678 236 q 531 25 603 67 q 356 -17 460 -17 m 356 169 q 399 181 383 169 q 423 222 415 193 q 431 299 431 251 l 431 433 q 423 510 431 482 q 399 551 415 539 q 356 564 383 564 q 313 551 329 564 q 290 510 297 539 q 282 433 282 482 l 282 299 q 290 222 282 251 q 313 181 297 193 q 356 169 329 169 m 160 829 l 160 1007 l 321 1007 l 321 829 l 160 829 m 393 829 l 393 1007 l 554 1007 l 554 829 l 393 829 m 190 1072 l 190 1211 l 525 1211 l 525 1072 l 190 1072 z "},"ȱ":{"ha":713,"x_min":35,"x_max":678,"o":"m 356 -17 q 180 25 251 -17 q 72 151 108 67 q 35 367 35 236 q 72 582 35 497 q 180 708 108 667 q 356 750 251 750 q 531 708 460 750 q 640 582 603 667 q 678 367 678 497 q 640 151 678 236 q 531 25 603 67 q 356 -17 460 -17 m 356 169 q 399 181 383 169 q 423 222 415 193 q 431 299 431 251 l 431 433 q 423 510 431 482 q 399 551 415 539 q 356 564 383 564 q 313 551 329 564 q 290 510 297 539 q 282 433 282 482 l 282 299 q 290 222 282 251 q 313 181 297 193 q 356 169 329 169 m 276 829 l 276 1004 l 438 1004 l 438 829 l 276 829 m 190 1072 l 190 1211 l 525 1211 l 525 1072 l 190 1072 z "},"ọ":{"ha":713,"x_min":35,"x_max":678,"o":"m 356 -17 q 180 25 251 -17 q 72 151 108 67 q 35 367 35 236 q 72 582 35 497 q 180 708 108 667 q 356 750 251 750 q 531 708 460 750 q 640 582 603 667 q 678 367 678 497 q 640 151 678 236 q 531 25 603 67 q 356 -17 460 -17 m 356 169 q 399 181 383 169 q 423 222 415 193 q 431 299 431 251 l 431 433 q 423 510 431 482 q 399 551 415 539 q 356 564 383 564 q 313 551 329 564 q 290 510 297 539 q 282 433 282 482 l 282 299 q 290 222 282 251 q 313 181 297 193 q 356 169 329 169 m 276 -260 l 276 -83 l 438 -83 l 438 -260 l 276 -260 z "},"ò":{"ha":713,"x_min":35,"x_max":678,"o":"m 356 -17 q 180 25 251 -17 q 72 151 108 67 q 35 367 35 236 q 72 582 35 497 q 180 708 108 667 q 356 750 251 750 q 531 708 460 750 q 640 582 603 667 q 678 367 678 497 q 640 151 678 236 q 531 25 603 67 q 356 -17 460 -17 m 356 169 q 399 181 383 169 q 423 222 415 193 q 431 299 431 251 l 431 433 q 423 510 431 482 q 399 551 415 539 q 356 564 383 564 q 313 551 329 564 q 290 510 297 539 q 282 433 282 482 l 282 299 q 290 222 282 251 q 313 181 297 193 q 356 169 329 169 m 457 822 l 304 822 l 135 1001 l 138 1007 l 360 1007 l 457 822 z "},"ỏ":{"ha":713,"x_min":35,"x_max":678,"o":"m 356 -17 q 180 25 251 -17 q 72 151 108 67 q 35 367 35 236 q 72 582 35 497 q 180 708 108 667 q 356 750 251 750 q 531 708 460 750 q 640 582 603 667 q 678 367 678 497 q 640 151 678 236 q 531 25 603 67 q 356 -17 460 -17 m 356 169 q 399 181 383 169 q 423 222 415 193 q 431 299 431 251 l 431 433 q 423 510 431 482 q 399 551 415 539 q 356 564 383 564 q 313 551 329 564 q 290 510 297 539 q 282 433 282 482 l 282 299 q 290 222 282 251 q 313 181 297 193 q 356 169 329 169 m 317 821 l 317 903 l 340 903 q 369 908 361 903 q 376 928 376 914 q 365 947 376 943 q 335 950 353 950 l 261 950 l 261 1017 q 295 1022 278 1019 q 330 1025 313 1024 q 361 1026 347 1026 q 409 1022 385 1026 q 453 1008 433 1017 q 483 983 472 999 q 494 943 494 967 q 481 897 494 915 q 444 868 467 878 q 396 856 422 858 l 396 821 l 317 821 z "},"ơ":{"ha":713,"x_min":35,"x_max":765,"o":"m 356 -17 q 180 25 251 -17 q 72 151 108 67 q 35 367 35 236 q 72 582 35 497 q 180 708 108 667 q 356 750 251 750 q 531 708 460 750 q 640 582 603 667 q 678 367 678 497 q 640 151 678 236 q 531 25 603 67 q 356 -17 460 -17 m 356 169 q 399 181 383 169 q 423 222 415 193 q 431 299 431 251 l 431 433 q 423 510 431 482 q 399 551 415 539 q 356 564 383 564 q 313 551 329 564 q 290 510 297 539 q 282 433 282 482 l 282 299 q 290 222 282 251 q 313 181 297 193 q 356 169 329 169 m 542 583 l 542 679 q 619 701 590 679 q 653 764 649 722 l 579 764 l 579 956 l 765 956 l 765 810 q 740 683 765 732 q 665 609 715 633 q 542 583 615 585 z "}}}
